<!-- Generator: Adobe Illustrator 24.0.1, SVG Export Plug-In  -->
<svg version="1.1" xmlns="http://www.w3.org/2000/svg" xmlns:xlink="http://www.w3.org/1999/xlink" x="0px" y="0px" width="32.64px"
	 height="36.41px" viewBox="0 0 32.64 36.41" style="enable-background:new 0 0 32.64 36.41;" xml:space="preserve">
<style type="text/css">
	.st0{fill:#150958;}
</style>
<defs>
</defs>
<path class="st0" d="M32.64,34.36l-2.27,1.32c-2.06,1.2-4.61,0.89-6.39-0.68c-2.06-1.78-4.7-2.86-7.65-2.86
	c-2.92,0-5.59,1.08-7.65,2.86c-1.78,1.57-4.33,1.87-6.39,0.68L0,34.36c2.49-4.3,6.64-7.53,11.59-8.82c0.98-0.25,1.69-1.17,1.69-2.18
	V14.5c0-0.65-0.52-1.14-1.14-1.14l-3.56,0.06V6.58l3.66-0.22c0.61-0.03,1.08-0.52,1.08-1.14V0.58L19.54,0v4.73
	c0,0.65,0.55,1.17,1.2,1.14l4.21-0.25v7.56l-4.27,0.06c-0.61,0-1.11,0.52-1.11,1.14v9c0,1.01,0.68,1.94,1.66,2.18
	C26.06,26.86,30.15,30.09,32.64,34.36z"/>
</svg>
