<!-- Generator: Adobe Illustrator 24.0.1, SVG Export Plug-In  -->
<svg version="1.1" xmlns="http://www.w3.org/2000/svg" xmlns:xlink="http://www.w3.org/1999/xlink" x="0px" y="0px" width="216px"
	 height="29.19px" viewBox="0 0 216 29.19" style="enable-background:new 0 0 216 29.19;" xml:space="preserve">
<style type="text/css">
	.st0{fill:#EC2027;}
	.st1{fill:#FFFFFF;}
</style>
<defs>
</defs>
<g>
	<path class="st0" d="M0,0.01v29.18h216L174.49,5.22C168.57,1.8,161.86,0,155.03,0L0,0.01L0,0.01z"/>
</g>
<g>
	<path class="st1" d="M22.38,19.01c-0.83-0.94-1.24-2.27-1.24-3.99c0-1.09,0.2-2.04,0.6-2.83s0.98-1.4,1.74-1.82s1.66-0.63,2.7-0.63
		c1.18,0,2.4,0.27,3.66,0.8c-0.09,0.91-0.24,1.92-0.44,3.02l-1.15,0.08l-1.05-1.53c-0.45-0.13-0.94-0.2-1.47-0.2
		c-0.4,0-0.79,0.04-1.15,0.11c-0.16,0.31-0.29,0.73-0.39,1.24c-0.1,0.52-0.15,1.04-0.15,1.56c0,1.12,0.21,1.95,0.61,2.5
		c0.41,0.54,1.06,0.82,1.95,0.84c0.35,0,0.8-0.05,1.34-0.16s1.07-0.25,1.59-0.42L30,19.25c-0.53,0.34-1.16,0.62-1.9,0.84
		c-0.74,0.22-1.46,0.33-2.15,0.33C24.4,20.42,23.21,19.95,22.38,19.01z"/>
	<path class="st1" d="M31.69,19.4c-0.63-0.66-0.95-1.66-0.95-3.02c0-0.87,0.16-1.63,0.48-2.28s0.78-1.14,1.37-1.49
		s1.3-0.52,2.11-0.52c2.62,0,3.93,1.36,3.93,4.07c0,1.33-0.36,2.36-1.07,3.1s-1.71,1.12-3,1.12C33.28,20.39,32.32,20.06,31.69,19.4z
		 M35.34,18.56c0.15-0.04,0.31-0.09,0.49-0.17c0.06-0.23,0.11-0.53,0.15-0.89s0.06-0.71,0.06-1.05c0-0.82-0.13-1.44-0.39-1.87
		c-0.26-0.42-0.64-0.64-1.15-0.64c-0.33,0-0.67,0.04-1.02,0.14c-0.07,0.15-0.13,0.4-0.17,0.74c-0.04,0.34-0.06,0.73-0.06,1.16
		c0,0.85,0.13,1.5,0.4,1.96s0.65,0.68,1.14,0.68C35.01,18.62,35.19,18.6,35.34,18.56z"/>
	<path class="st1" d="M39.31,18.75l0.93-0.27v-3.69c0-0.22-0.01-0.37-0.05-0.43c-0.03-0.07-0.11-0.14-0.24-0.22l-0.67-0.36
		l0.05-1.14c0.17-0.04,0.32-0.07,0.44-0.08c1.22-0.25,2.13-0.39,2.72-0.41c0.09,0.26,0.18,0.59,0.26,0.99
		c0.61-0.47,1.12-0.8,1.55-0.99h0.86c-0.01,0.38-0.04,0.8-0.08,1.25s-0.09,0.81-0.15,1.08c-0.36-0.02-0.63-0.03-0.8-0.03
		c-0.42,0-0.86,0.03-1.32,0.08v3.44c0,0.21,0.02,0.35,0.05,0.42s0.11,0.15,0.24,0.23l0.91,0.49l-0.07,1.08h-4.55L39.31,18.75z"/>
	<path class="st1" d="M45.91,18.74l0.94-0.27V14.8c0-0.22-0.01-0.37-0.05-0.43c-0.03-0.07-0.11-0.14-0.24-0.22l-0.67-0.36l0.05-1.14
		l0.33-0.06c1.32-0.26,2.28-0.4,2.87-0.42c0.08,0.21,0.15,0.45,0.2,0.7c0.62-0.28,1.12-0.48,1.51-0.58c0.39-0.11,0.76-0.16,1.1-0.16
		c1.61,0,2.41,0.96,2.41,2.88v2.97c0,0.21,0.01,0.35,0.05,0.42c0.03,0.07,0.12,0.15,0.26,0.23l0.73,0.42l-0.06,1.14h-4.19
		l-0.08-1.44l0.74-0.21v-2.87c0-0.46-0.02-0.77-0.05-0.96c-0.03-0.18-0.11-0.32-0.25-0.42s-0.38-0.15-0.72-0.15
		c-0.36,0-0.82,0.06-1.38,0.17v3.67c0,0.21,0.02,0.35,0.05,0.42c0.03,0.07,0.11,0.15,0.24,0.23l0.74,0.42l-0.06,1.14h-4.4
		L45.91,18.74z"/>
	<path class="st1" d="M56.72,19.3c-0.64-0.72-0.96-1.71-0.96-2.97c0-0.88,0.16-1.64,0.47-2.27s0.76-1.12,1.33-1.45
		c0.58-0.33,1.25-0.5,2.02-0.5c1.14,0,2.02,0.36,2.63,1.09c0.61,0.73,0.9,1.77,0.87,3.11l-4.61,0.85c0.14,0.42,0.34,0.74,0.6,0.93
		c0.26,0.2,0.6,0.3,1.02,0.3c0.29,0,0.64-0.04,1.05-0.13s0.81-0.2,1.23-0.36l0.35,1.5c-0.38,0.28-0.86,0.52-1.46,0.7
		s-1.2,0.27-1.8,0.27C58.28,20.37,57.36,20.02,56.72,19.3z M60.6,15.04c-0.02-0.38-0.13-0.67-0.33-0.84s-0.47-0.27-0.83-0.27
		c-0.29,0-0.57,0.04-0.83,0.12c-0.21,0.5-0.31,1.03-0.29,1.61L60.6,15.04z"/>
	<path class="st1" d="M63.77,18.75l0.93-0.27v-3.69c0-0.22-0.01-0.37-0.05-0.43c-0.03-0.07-0.11-0.14-0.24-0.22l-0.67-0.36
		l0.05-1.14c0.17-0.04,0.32-0.07,0.44-0.08c1.22-0.25,2.13-0.39,2.72-0.41c0.09,0.26,0.18,0.59,0.26,0.99
		c0.61-0.47,1.12-0.8,1.55-0.99h0.86c-0.01,0.38-0.04,0.8-0.08,1.25s-0.09,0.81-0.15,1.08c-0.36-0.02-0.63-0.03-0.8-0.03
		c-0.42,0-0.86,0.03-1.32,0.08v3.44c0,0.21,0.02,0.35,0.05,0.42s0.11,0.15,0.24,0.23l0.91,0.49l-0.06,1.08h-4.55L63.77,18.75z"/>
	<path class="st1" d="M70.17,20.03c0.06-0.99,0.13-1.72,0.2-2.2l0.86-0.17l0.96,1.02c0.33,0.1,0.71,0.15,1.12,0.15
		c0.23,0,0.41-0.02,0.55-0.05c0.03-0.08,0.05-0.19,0.05-0.33c0-0.12-0.03-0.22-0.08-0.3s-0.18-0.18-0.37-0.29s-0.53-0.28-1-0.52
		c-0.6-0.31-1.05-0.59-1.37-0.84c-0.31-0.25-0.54-0.5-0.67-0.77s-0.21-0.58-0.21-0.94c0-0.81,0.3-1.45,0.9-1.93s1.42-0.71,2.45-0.71
		c0.42,0,0.87,0.05,1.34,0.14c0.47,0.1,0.89,0.23,1.27,0.39c0,0.66-0.04,1.39-0.14,2.2L75.24,15l-1.02-1.09
		c-0.26-0.08-0.65-0.12-1.15-0.12c-0.08,0-0.24,0.01-0.49,0.03c-0.03,0.06-0.05,0.16-0.05,0.29c0,0.14,0.04,0.27,0.12,0.37
		c0.08,0.11,0.22,0.22,0.43,0.35s0.54,0.31,0.99,0.54c0.67,0.32,1.17,0.6,1.51,0.84c0.34,0.24,0.58,0.48,0.71,0.72
		s0.21,0.54,0.21,0.88c0,0.83-0.32,1.48-0.95,1.94c-0.63,0.47-1.5,0.7-2.62,0.7C72.15,20.45,71.22,20.31,70.17,20.03z"/>
	<path class="st1" d="M78.59,19.73c-0.42-0.44-0.64-1.11-0.64-2.01v-3.69h-1.06v-1.11l2.73-2.49l0.88,0.11v1.71h2.55v1.79H80.5v3.13
		c0,0.49,0.07,0.81,0.2,0.97c0.14,0.16,0.4,0.24,0.8,0.24c0.33,0,0.8-0.04,1.4-0.14l0.18,1.55c-0.36,0.17-0.77,0.31-1.22,0.42
		s-0.88,0.17-1.3,0.17C79.67,20.39,79.02,20.17,78.59,19.73z"/>
	<path class="st1" d="M84.68,19.4c-0.63-0.66-0.95-1.66-0.95-3.02c0-0.87,0.16-1.63,0.48-2.28s0.78-1.14,1.37-1.49
		s1.3-0.52,2.11-0.52c2.62,0,3.93,1.36,3.93,4.07c0,1.33-0.36,2.36-1.07,3.1s-1.71,1.12-3,1.12C86.27,20.39,85.31,20.06,84.68,19.4z
		 M88.33,18.56c0.15-0.04,0.31-0.09,0.49-0.17c0.06-0.23,0.11-0.53,0.15-0.89s0.06-0.71,0.06-1.05c0-0.82-0.13-1.44-0.39-1.87
		c-0.26-0.42-0.64-0.64-1.15-0.64c-0.33,0-0.67,0.04-1.02,0.14c-0.07,0.15-0.13,0.4-0.17,0.74c-0.04,0.34-0.06,0.73-0.06,1.16
		c0,0.85,0.13,1.5,0.4,1.96c0.27,0.46,0.65,0.68,1.14,0.68C88,18.62,88.18,18.6,88.33,18.56z"/>
	<path class="st1" d="M92.37,18.74l0.94-0.27V14.8c0-0.22-0.01-0.37-0.05-0.43c-0.03-0.07-0.11-0.14-0.24-0.22l-0.67-0.36l0.05-1.14
		l0.33-0.06c1.32-0.26,2.28-0.4,2.87-0.42c0.08,0.21,0.15,0.45,0.2,0.7c0.62-0.28,1.12-0.48,1.51-0.58c0.39-0.11,0.76-0.16,1.1-0.16
		c1.61,0,2.41,0.96,2.41,2.88v2.97c0,0.21,0.01,0.35,0.05,0.42c0.03,0.07,0.12,0.15,0.26,0.23l0.73,0.42l-0.06,1.14h-4.19
		l-0.08-1.44l0.74-0.21v-2.87c0-0.46-0.02-0.77-0.05-0.96c-0.03-0.18-0.11-0.32-0.25-0.42s-0.38-0.15-0.72-0.15
		c-0.36,0-0.82,0.06-1.38,0.17v3.67c0,0.21,0.02,0.35,0.05,0.42c0.03,0.07,0.11,0.15,0.24,0.23l0.74,0.42l-0.06,1.14h-4.4
		L92.37,18.74z"/>
	<path class="st1" d="M103.17,19.3c-0.64-0.72-0.96-1.71-0.96-2.97c0-0.88,0.16-1.64,0.47-2.27s0.76-1.12,1.33-1.45
		c0.58-0.33,1.25-0.5,2.02-0.5c1.14,0,2.02,0.36,2.63,1.09c0.61,0.73,0.9,1.77,0.87,3.11l-4.61,0.85c0.14,0.42,0.34,0.74,0.6,0.93
		c0.26,0.2,0.6,0.3,1.02,0.3c0.29,0,0.64-0.04,1.05-0.13s0.81-0.2,1.23-0.36l0.35,1.5c-0.38,0.28-0.86,0.52-1.46,0.7
		s-1.2,0.27-1.8,0.27C104.73,20.37,103.82,20.02,103.17,19.3z M107.05,15.04c-0.02-0.38-0.13-0.67-0.33-0.84s-0.47-0.27-0.83-0.27
		c-0.29,0-0.57,0.04-0.83,0.12c-0.21,0.5-0.31,1.03-0.29,1.61L107.05,15.04z"/>
	<path class="st1" d="M110.45,18.65l1.11-0.3v-5.78c0-0.26-0.02-0.44-0.06-0.52c-0.04-0.09-0.15-0.16-0.32-0.24l-0.79-0.44
		l0.09-1.23c0.77-0.12,1.5-0.21,2.18-0.27c0.69-0.05,1.43-0.08,2.21-0.08c1.09,0,1.97,0.12,2.63,0.35s1.15,0.6,1.46,1.09
		c0.31,0.5,0.46,1.15,0.46,1.97c0,1.06-0.38,1.9-1.15,2.5c-0.76,0.61-1.81,0.91-3.13,0.91l-0.83-0.03v1.15
		c0,0.24,0.02,0.4,0.05,0.47c0.04,0.07,0.12,0.14,0.26,0.21l0.93,0.55l-0.06,1.23h-4.98L110.45,18.65z M116.49,14.76
		c0.11-0.5,0.17-1.02,0.17-1.56c0-0.6-0.11-1.02-0.34-1.27s-0.59-0.38-1.1-0.38c-0.17,0-0.47,0.02-0.9,0.06v3.23
		c0.27,0.06,0.6,0.09,0.97,0.09C115.84,14.93,116.23,14.87,116.49,14.76z"/>
	<path class="st1" d="M120.34,18.75l0.93-0.27v-3.69c0-0.22-0.01-0.37-0.05-0.43c-0.03-0.07-0.11-0.14-0.24-0.22l-0.67-0.36
		l0.05-1.14c0.17-0.04,0.32-0.07,0.44-0.08c1.22-0.25,2.13-0.39,2.72-0.41c0.09,0.26,0.18,0.59,0.26,0.99
		c0.61-0.47,1.12-0.8,1.55-0.99h0.86c-0.01,0.38-0.04,0.8-0.08,1.25c-0.04,0.45-0.09,0.81-0.15,1.08c-0.36-0.02-0.63-0.03-0.8-0.03
		c-0.42,0-0.86,0.03-1.32,0.08v3.44c0,0.21,0.02,0.35,0.05,0.42s0.11,0.15,0.24,0.23l0.91,0.49l-0.06,1.08h-4.55L120.34,18.75z"/>
	<path class="st1" d="M127.58,19.3c-0.64-0.72-0.96-1.71-0.96-2.97c0-0.88,0.16-1.64,0.47-2.27s0.76-1.12,1.33-1.45
		c0.58-0.33,1.25-0.5,2.02-0.5c1.14,0,2.02,0.36,2.63,1.09c0.61,0.73,0.9,1.77,0.87,3.11l-4.61,0.85c0.14,0.42,0.34,0.74,0.6,0.93
		c0.26,0.2,0.6,0.3,1.02,0.3c0.29,0,0.64-0.04,1.05-0.13s0.81-0.2,1.23-0.36l0.35,1.5c-0.38,0.28-0.86,0.52-1.46,0.7
		s-1.2,0.27-1.8,0.27C129.14,20.37,128.23,20.02,127.58,19.3z M131.46,15.04c-0.02-0.38-0.13-0.67-0.33-0.84s-0.47-0.27-0.83-0.27
		c-0.29,0-0.57,0.04-0.83,0.12c-0.21,0.5-0.31,1.03-0.29,1.61L131.46,15.04z"/>
	<path class="st1" d="M134.84,20.03c0.06-0.99,0.13-1.72,0.2-2.2l0.86-0.17l0.96,1.02c0.33,0.1,0.71,0.15,1.12,0.15
		c0.23,0,0.41-0.02,0.55-0.05c0.03-0.08,0.05-0.19,0.05-0.33c0-0.12-0.03-0.22-0.08-0.3s-0.18-0.18-0.37-0.29s-0.53-0.28-1-0.52
		c-0.6-0.31-1.05-0.59-1.37-0.84c-0.31-0.25-0.54-0.5-0.67-0.77s-0.21-0.58-0.21-0.94c0-0.81,0.3-1.45,0.9-1.93s1.42-0.71,2.45-0.71
		c0.42,0,0.87,0.05,1.34,0.14c0.47,0.1,0.89,0.23,1.27,0.39c0,0.66-0.04,1.39-0.14,2.2L139.91,15l-1.02-1.09
		c-0.26-0.08-0.65-0.12-1.15-0.12c-0.08,0-0.24,0.01-0.49,0.03c-0.03,0.06-0.05,0.16-0.05,0.29c0,0.14,0.04,0.27,0.12,0.37
		c0.08,0.11,0.22,0.22,0.43,0.35c0.21,0.13,0.54,0.31,0.99,0.54c0.67,0.32,1.17,0.6,1.51,0.84c0.34,0.24,0.58,0.48,0.71,0.72
		s0.21,0.54,0.21,0.88c0,0.83-0.32,1.48-0.95,1.94c-0.63,0.47-1.5,0.7-2.62,0.7C136.82,20.45,135.9,20.31,134.84,20.03z"/>
	<path class="st1" d="M142.47,18.42l2.46-0.65l0.62,2.26l-2.44,0.65L142.47,18.42z"/>
	<path class="st1" d="M146.63,18.74l0.94-0.27V14.8c0-0.22-0.01-0.37-0.05-0.43c-0.03-0.07-0.11-0.14-0.24-0.22l-0.67-0.36
		l0.05-1.14l0.33-0.06c1.32-0.26,2.28-0.4,2.87-0.42c0.08,0.21,0.15,0.45,0.2,0.7c0.62-0.28,1.12-0.48,1.51-0.58
		c0.39-0.11,0.76-0.16,1.1-0.16c1.61,0,2.41,0.96,2.41,2.88v2.97c0,0.21,0.01,0.35,0.05,0.42c0.03,0.07,0.12,0.15,0.26,0.23
		l0.73,0.42l-0.06,1.14h-4.19l-0.08-1.44l0.74-0.21v-2.87c0-0.46-0.02-0.77-0.05-0.96c-0.03-0.18-0.11-0.32-0.25-0.42
		s-0.38-0.15-0.72-0.15c-0.36,0-0.82,0.06-1.38,0.17v3.67c0,0.21,0.02,0.35,0.05,0.42s0.11,0.15,0.24,0.23l0.74,0.42l-0.06,1.14
		h-4.4L146.63,18.74z"/>
	<path class="st1" d="M157.44,19.3c-0.64-0.72-0.96-1.71-0.96-2.97c0-0.88,0.16-1.64,0.47-2.27s0.76-1.12,1.33-1.45
		c0.58-0.33,1.25-0.5,2.02-0.5c1.14,0,2.02,0.36,2.63,1.09c0.61,0.73,0.9,1.77,0.87,3.11l-4.61,0.85c0.14,0.42,0.34,0.74,0.6,0.93
		c0.26,0.2,0.6,0.3,1.02,0.3c0.29,0,0.64-0.04,1.05-0.13s0.81-0.2,1.23-0.36l0.35,1.5c-0.38,0.28-0.86,0.52-1.46,0.7
		s-1.2,0.27-1.8,0.27C159,20.37,158.08,20.02,157.44,19.3z M161.32,15.04c-0.02-0.38-0.13-0.67-0.33-0.84s-0.47-0.27-0.83-0.27
		c-0.29,0-0.57,0.04-0.83,0.12c-0.21,0.5-0.31,1.03-0.29,1.61L161.32,15.04z"/>
	<path class="st1" d="M166,19.73c-0.42-0.44-0.64-1.11-0.64-2.01v-3.69h-1.06v-1.11l2.73-2.49l0.88,0.11v1.71h2.55v1.79h-2.55v3.13
		c0,0.49,0.07,0.81,0.2,0.97c0.14,0.16,0.4,0.24,0.8,0.24c0.33,0,0.8-0.04,1.4-0.14l0.18,1.55c-0.36,0.17-0.77,0.31-1.22,0.42
		s-0.88,0.17-1.3,0.17C167.09,20.39,166.43,20.17,166,19.73z"/>
</g>
<g>
	<path class="st1" d="M9.21,10.36h4.91c0.26,0,0.5,0.14,0.63,0.36l0.46,0.79l1.89,3.28l0.16,0.27c0,0.01,0.01,0.01,0.01,0.02
		c0.06,0.1,0.09,0.22,0.09,0.34c0,0.11-0.03,0.22-0.07,0.32l0,0c-0.01,0.01-0.01,0.03-0.02,0.04l-0.16,0.27l-2.35,4.07
		c-0.13,0.22-0.37,0.36-0.63,0.36H9.22c-0.02,0-0.05,0-0.07,0c-0.06-0.01-0.12-0.02-0.18-0.04c-0.28-0.1-0.47-0.37-0.47-0.68
		c0-0.13,0.04-0.25,0.1-0.36l0.54-0.94l0.36-0.62l0.03-0.06l0.57-0.99l0.05-0.09l0.32-0.55L10.56,16l0.03-0.06l0.27-0.47
		c0.02-0.03,0.02-0.06,0-0.09l-0.25-0.43l-0.05-0.09l-0.09-0.15l-0.32-0.55l-0.02-0.03l-0.03-0.06l-0.16-0.26V13.8l-0.43-0.74
		L9.48,13l-0.36-0.62l-0.54-0.94c-0.06-0.11-0.1-0.23-0.1-0.36c0-0.38,0.29-0.69,0.65-0.72C9.16,10.36,9.18,10.36,9.21,10.36z"/>
</g>
</svg>
