<!-- Generator: Adobe Illustrator 24.0.1, SVG Export Plug-In  -->
<svg version="1.1" xmlns="http://www.w3.org/2000/svg" xmlns:xlink="http://www.w3.org/1999/xlink" x="0px" y="0px" width="7.09px"
	 height="8.08px" viewBox="0 0 7.09 8.08" style="enable-background:new 0 0 7.09 8.08;" xml:space="preserve">
<style type="text/css">
	.st0{fill:#ED1C24;}
</style>
<defs>
</defs>
<path class="st0" d="M0.58,0H4.5C4.71,0,4.9,0.11,5,0.29l0.37,0.63l1.51,2.62l0.12,0.21c0,0.01,0.01,0.01,0.01,0.02
	c0.04,0.08,0.07,0.18,0.07,0.27c0,0.09-0.02,0.17-0.06,0.25c0,0,0,0,0,0C7.02,4.31,7.01,4.32,7.01,4.33L6.88,4.54L5,7.79
	c-0.1,0.18-0.3,0.29-0.5,0.29H0.58c-0.02,0-0.04,0-0.06,0c-0.05,0-0.1-0.02-0.14-0.03C0.16,7.96,0,7.75,0,7.5
	c0-0.1,0.03-0.2,0.08-0.29l0.43-0.75l0.28-0.49l0.02-0.05l0.46-0.79l0.04-0.07l0.26-0.44L1.64,4.5l0.02-0.05l0.22-0.37
	C1.9,4.06,1.9,4.03,1.88,4l-0.2-0.34L1.64,3.59L1.57,3.47L1.32,3.03L1.3,3L1.28,2.95l-0.11-0.2l0-0.01L0.82,2.16L0.79,2.12
	L0.51,1.62L0.08,0.87C0.03,0.78,0,0.68,0,0.58C0,0.28,0.23,0.03,0.52,0C0.54,0,0.56,0,0.58,0z"/>
</svg>
