<!-- Generator: Adobe Illustrator 24.0.1, SVG Export Plug-In  -->
<svg version="1.1" xmlns="http://www.w3.org/2000/svg" xmlns:xlink="http://www.w3.org/1999/xlink" x="0px" y="0px"
	 width="175.01px" height="158.75px" viewBox="0 0 175.01 158.75" style="enable-background:new 0 0 175.01 158.75;"
	 xml:space="preserve">
<style type="text/css">
	.st0{fill:#150958;}
	.st1{fill:#ED1C24;}
</style>
<defs>
</defs>
<g>
	<path class="st0" d="M54.9,37.45c-0.12-0.08-0.24-0.08-0.32-0.08c-0.36,0-0.67,0.28-0.67,0.67v37.76c0,0.24,0.12,0.48,0.36,0.59
		l33.36,19.28c0.12,0.04,0.24,0.08,0.32,0.08c0.12,0,0.24-0.04,0.36-0.08l33.36-19.28c0.2-0.12,0.32-0.36,0.32-0.59V38.04
		c0-0.4-0.32-0.67-0.67-0.67c-0.12,0-0.24,0.04-0.32,0.08l-6.9,3.97c-0.42-0.71-0.86-1.41-1.33-2.08c-0.47-0.68-0.97-1.33-1.48-1.96
		l7.26-4.16c0.83-0.48,1.82-0.75,2.78-0.75c3.13-0.04,5.63,2.46,5.63,5.55v37.76c0,1.98-1.07,3.85-2.78,4.84L90.8,99.88
		c-0.83,0.48-1.82,0.75-2.78,0.75c-0.99,0-1.94-0.28-2.78-0.75L51.89,80.6c-1.71-0.99-2.78-2.86-2.78-4.84V38
		c0-3.09,2.5-5.59,5.59-5.59c0.99,0,1.94,0.28,2.78,0.75l12.4,7.11c3.14-3.5,7.29-6.08,11.99-7.31c1.27-0.32,2.18-1.51,2.18-2.82
		V18.72c0-0.83-0.68-1.47-1.47-1.47l-4.6,0.08V8.49l4.72-0.28c0.79-0.04,1.39-0.68,1.39-1.47V0.75L92.15,0v6.11
		c0,0.83,0.71,1.51,1.55,1.47l5.43-0.32v9.76l-5.51,0.08c-0.79,0-1.43,0.67-1.43,1.47v11.62c0,1.31,0.87,2.5,2.14,2.82
		c6.23,1.67,11.5,5.83,14.72,11.34l-2.94,1.71c-2.66,1.55-5.95,1.15-8.25-0.87c-2.66-2.3-6.07-3.69-9.88-3.69
		c-3.71,0-7.12,1.35-9.76,3.59l0.04,0.02l5.47,3.17c1.31-0.71,2.78-1.11,4.36-1.11c3.45,0,6.43,1.86,8.05,4.64l-7.26,4.16
		c-0.48,0.28-1.11,0.28-1.59,0L54.9,37.45z"/>
	<path class="st1" d="M109.68,70.29l-3.13-1.79c-0.52-0.28-1.11-0.28-1.63,0l-3.13,1.79V57.76c0-2.66,1.43-5.16,3.73-6.47l4.13-2.38
		v21.38H109.68z"/>
	<path class="st0" d="M2.46,126.14c-1.64-1.86-2.46-4.49-2.46-7.9c0-2.16,0.4-4.03,1.19-5.6c0.79-1.57,1.94-2.77,3.44-3.6
		c1.5-0.83,3.28-1.25,5.35-1.25c2.34,0,4.76,0.53,7.24,1.59c-0.18,1.8-0.47,3.79-0.87,5.98l-2.28,0.15l-2.07-3.03
		c-0.88-0.26-1.85-0.39-2.91-0.39c-0.8,0-1.56,0.07-2.28,0.21c-0.32,0.62-0.58,1.44-0.78,2.46c-0.2,1.02-0.3,2.05-0.3,3.09
		c0,2.22,0.41,3.87,1.22,4.94c0.81,1.07,2.1,1.63,3.86,1.67c0.7,0,1.59-0.11,2.66-0.32c1.07-0.21,2.12-0.49,3.14-0.83l0.93,3.3
		c-1.04,0.68-2.3,1.24-3.77,1.67c-1.47,0.43-2.89,0.65-4.25,0.65C6.45,128.93,4.1,128,2.46,126.14z"/>
	<path class="st0" d="M20.89,126.92c-1.25-1.3-1.88-3.29-1.88-5.98c0-1.72,0.32-3.22,0.95-4.51c0.63-1.28,1.54-2.26,2.72-2.94
		c1.18-0.68,2.57-1.02,4.17-1.02c5.19,0,7.78,2.68,7.78,8.05c0,2.62-0.71,4.67-2.12,6.14c-1.41,1.47-3.39,2.21-5.93,2.21
		C24.04,128.87,22.14,128.22,20.89,126.92z M28.11,125.25c0.3-0.07,0.62-0.18,0.96-0.35c0.12-0.46,0.22-1.05,0.3-1.77
		c0.08-0.72,0.12-1.41,0.12-2.07c0-1.62-0.26-2.85-0.77-3.69c-0.51-0.84-1.27-1.26-2.27-1.26c-0.66,0-1.33,0.09-2.01,0.27
		c-0.14,0.3-0.25,0.79-0.33,1.46c-0.08,0.67-0.12,1.44-0.12,2.3c0,1.68,0.27,2.97,0.8,3.87c0.53,0.9,1.29,1.35,2.27,1.35
		C27.46,125.35,27.81,125.32,28.11,125.25z"/>
	<path class="st0" d="M35.98,125.63l1.83-0.54v-7.3c0-0.44-0.03-0.73-0.09-0.86c-0.06-0.13-0.22-0.27-0.48-0.44l-1.32-0.72
		l0.09-2.25c0.34-0.08,0.63-0.13,0.87-0.15c2.42-0.5,4.21-0.77,5.38-0.81c0.18,0.52,0.35,1.17,0.51,1.95
		c1.2-0.94,2.22-1.59,3.06-1.95h1.71c-0.02,0.76-0.07,1.59-0.15,2.48c-0.08,0.89-0.18,1.61-0.3,2.15c-0.72-0.04-1.25-0.06-1.59-0.06
		c-0.84,0-1.71,0.05-2.61,0.15v6.82c0,0.42,0.03,0.7,0.09,0.84c0.06,0.14,0.22,0.29,0.48,0.45l1.8,0.96l-0.12,2.13h-9.01
		L35.98,125.63z"/>
	<path class="st0" d="M49.05,125.6l1.86-0.54v-7.27c0-0.44-0.03-0.73-0.09-0.86c-0.06-0.13-0.22-0.27-0.48-0.44l-1.32-0.72
		l0.09-2.25l0.66-0.12c2.62-0.52,4.52-0.8,5.68-0.84c0.16,0.42,0.29,0.88,0.39,1.38c1.22-0.56,2.22-0.95,2.99-1.16
		c0.77-0.21,1.5-0.32,2.18-0.32c3.18,0,4.78,1.9,4.78,5.71v5.89c0,0.42,0.03,0.7,0.09,0.84c0.06,0.14,0.23,0.29,0.51,0.45l1.44,0.84
		l-0.12,2.25h-8.29l-0.15-2.85l1.47-0.42v-5.68c0-0.9-0.03-1.53-0.09-1.89c-0.06-0.36-0.23-0.64-0.5-0.84
		c-0.27-0.2-0.75-0.3-1.43-0.3c-0.72,0-1.63,0.11-2.73,0.33v7.27c0,0.42,0.03,0.7,0.09,0.84c0.06,0.14,0.22,0.29,0.48,0.45
		l1.47,0.84l-0.12,2.25H49.2L49.05,125.6z"/>
	<path class="st0" d="M70.45,126.71c-1.27-1.42-1.91-3.38-1.91-5.89c0-1.74,0.31-3.24,0.93-4.49c0.62-1.25,1.5-2.21,2.64-2.87
		c1.14-0.66,2.47-0.99,3.99-0.99c2.26,0,4,0.72,5.21,2.16c1.21,1.44,1.79,3.49,1.73,6.16l-9.13,1.68c0.28,0.84,0.68,1.46,1.19,1.85
		c0.51,0.39,1.19,0.59,2.03,0.59c0.58,0,1.27-0.08,2.07-0.26c0.8-0.17,1.61-0.41,2.43-0.71l0.69,2.97c-0.74,0.56-1.7,1.02-2.88,1.38
		c-1.18,0.36-2.37,0.54-3.57,0.54C73.52,128.84,71.72,128.13,70.45,126.71z M78.12,118.27c-0.04-0.76-0.26-1.32-0.65-1.67
		c-0.39-0.35-0.94-0.53-1.64-0.53c-0.58,0-1.13,0.08-1.65,0.24c-0.42,0.98-0.61,2.04-0.57,3.18L78.12,118.27z"/>
	<path class="st0" d="M84.4,125.63l1.83-0.54v-7.3c0-0.44-0.03-0.73-0.09-0.86c-0.06-0.13-0.22-0.27-0.48-0.44l-1.32-0.72l0.09-2.25
		c0.34-0.08,0.63-0.13,0.87-0.15c2.42-0.5,4.21-0.77,5.38-0.81c0.18,0.52,0.35,1.17,0.51,1.95c1.2-0.94,2.22-1.59,3.06-1.95h1.71
		c-0.02,0.76-0.07,1.59-0.15,2.48c-0.08,0.89-0.18,1.61-0.3,2.15c-0.72-0.04-1.25-0.06-1.59-0.06c-0.84,0-1.71,0.05-2.61,0.15v6.82
		c0,0.42,0.03,0.7,0.09,0.84c0.06,0.14,0.22,0.29,0.48,0.45l1.8,0.96l-0.12,2.13h-9.01L84.4,125.63z"/>
	<path class="st0" d="M97.07,128.15c0.12-1.96,0.25-3.41,0.39-4.35l1.71-0.33l1.89,2.01c0.66,0.2,1.4,0.3,2.22,0.3
		c0.46,0,0.82-0.03,1.08-0.09c0.06-0.16,0.09-0.38,0.09-0.66c0-0.24-0.06-0.44-0.17-0.6c-0.11-0.16-0.36-0.35-0.74-0.57
		c-0.38-0.22-1.04-0.56-1.98-1.02c-1.18-0.62-2.08-1.18-2.7-1.67c-0.62-0.49-1.07-1-1.34-1.52c-0.27-0.52-0.41-1.14-0.41-1.86
		c0-1.6,0.6-2.87,1.79-3.81c1.19-0.94,2.81-1.41,4.85-1.41c0.84,0,1.73,0.1,2.66,0.29c0.93,0.19,1.77,0.45,2.51,0.77
		c0,1.3-0.09,2.75-0.27,4.36l-1.56,0.24l-2.01-2.16c-0.52-0.16-1.28-0.24-2.28-0.24c-0.16,0-0.48,0.02-0.96,0.06
		c-0.06,0.12-0.09,0.31-0.09,0.57c0,0.28,0.08,0.53,0.24,0.74c0.16,0.21,0.45,0.44,0.86,0.69c0.41,0.25,1.07,0.61,1.97,1.07
		c1.32,0.64,2.32,1.2,2.99,1.67c0.67,0.47,1.14,0.95,1.41,1.43c0.27,0.48,0.41,1.06,0.41,1.74c0,1.64-0.63,2.92-1.88,3.84
		c-1.25,0.92-2.98,1.38-5.18,1.38C100.99,128.99,99.15,128.71,97.07,128.15z"/>
	<path class="st0" d="M113.74,127.56c-0.84-0.87-1.26-2.2-1.26-3.98v-7.3h-2.1v-2.19l5.41-4.93l1.74,0.21v3.39h5.05v3.54h-5.05v6.19
		c0,0.96,0.14,1.6,0.41,1.92c0.27,0.32,0.8,0.48,1.58,0.48c0.66,0,1.58-0.09,2.76-0.27l0.36,3.06c-0.72,0.34-1.53,0.62-2.42,0.84
		c-0.89,0.22-1.75,0.33-2.57,0.33C115.88,128.87,114.58,128.43,113.74,127.56z"/>
	<path class="st0" d="M125.8,126.92c-1.25-1.3-1.88-3.29-1.88-5.98c0-1.72,0.32-3.22,0.95-4.51c0.63-1.28,1.54-2.26,2.72-2.94
		c1.18-0.68,2.57-1.02,4.17-1.02c5.19,0,7.78,2.68,7.78,8.05c0,2.62-0.71,4.67-2.12,6.14c-1.41,1.47-3.39,2.21-5.93,2.21
		C128.95,128.87,127.05,128.22,125.8,126.92z M133.02,125.25c0.3-0.07,0.62-0.18,0.96-0.35c0.12-0.46,0.22-1.05,0.3-1.77
		c0.08-0.72,0.12-1.41,0.12-2.07c0-1.62-0.26-2.85-0.77-3.69c-0.51-0.84-1.27-1.26-2.27-1.26c-0.66,0-1.33,0.09-2.01,0.27
		c-0.14,0.3-0.25,0.79-0.33,1.46c-0.08,0.67-0.12,1.44-0.12,2.3c0,1.68,0.27,2.97,0.8,3.87c0.53,0.9,1.29,1.35,2.27,1.35
		C132.37,125.35,132.72,125.32,133.02,125.25z"/>
	<path class="st0" d="M141.01,125.6l1.86-0.54v-7.27c0-0.44-0.03-0.73-0.09-0.86c-0.06-0.13-0.22-0.27-0.48-0.44l-1.32-0.72
		l0.09-2.25l0.66-0.12c2.62-0.52,4.52-0.8,5.68-0.84c0.16,0.42,0.29,0.88,0.39,1.38c1.22-0.56,2.22-0.95,2.99-1.16
		c0.77-0.21,1.5-0.32,2.18-0.32c3.18,0,4.78,1.9,4.78,5.71v5.89c0,0.42,0.03,0.7,0.09,0.84c0.06,0.14,0.23,0.29,0.51,0.45l1.44,0.84
		l-0.12,2.25h-8.29l-0.15-2.85l1.47-0.42v-5.68c0-0.9-0.03-1.53-0.09-1.89s-0.23-0.64-0.5-0.84c-0.27-0.2-0.75-0.3-1.43-0.3
		c-0.72,0-1.63,0.11-2.73,0.33v7.27c0,0.42,0.03,0.7,0.09,0.84c0.06,0.14,0.22,0.29,0.48,0.45l1.47,0.84l-0.12,2.25h-8.71
		L141.01,125.6z"/>
	<path class="st0" d="M162.41,126.71c-1.27-1.42-1.91-3.38-1.91-5.89c0-1.74,0.31-3.24,0.93-4.49c0.62-1.25,1.5-2.21,2.64-2.87
		c1.14-0.66,2.47-0.99,3.99-0.99c2.26,0,4,0.72,5.21,2.16c1.21,1.44,1.79,3.49,1.73,6.16l-9.13,1.68c0.28,0.84,0.68,1.46,1.19,1.85
		c0.51,0.39,1.19,0.59,2.03,0.59c0.58,0,1.27-0.08,2.07-0.26c0.8-0.17,1.61-0.41,2.43-0.71l0.69,2.97c-0.74,0.56-1.7,1.02-2.88,1.38
		c-1.18,0.36-2.37,0.54-3.57,0.54C165.49,128.84,163.68,128.13,162.41,126.71z M170.08,118.27c-0.04-0.76-0.26-1.32-0.65-1.67
		c-0.39-0.35-0.94-0.53-1.64-0.53c-0.58,0-1.13,0.08-1.65,0.24c-0.42,0.98-0.61,2.04-0.57,3.18L170.08,118.27z"/>
	<path class="st0" d="M31.74,145.94l0.87-0.24v-4.6c0-0.2,0-0.36-0.04-0.4c-0.04-0.08-0.12-0.12-0.24-0.2l-0.63-0.36l0.08-0.99
		c0.6-0.08,1.19-0.16,1.75-0.2c0.56-0.04,1.15-0.08,1.75-0.08c0.87,0,1.55,0.08,2.1,0.28c0.52,0.2,0.91,0.48,1.15,0.87
		c0.24,0.4,0.36,0.91,0.36,1.59c0,0.83-0.32,1.51-0.91,1.98c-0.6,0.48-1.43,0.71-2.5,0.71l-0.67-0.04v0.91c0,0.2,0,0.32,0.04,0.36
		c0.04,0.04,0.08,0.12,0.2,0.16l0.75,0.44l-0.04,0.99h-3.97L31.74,145.94z M36.54,142.84c0.08-0.4,0.12-0.79,0.12-1.23
		c0-0.48-0.08-0.79-0.28-1.03c-0.2-0.2-0.48-0.32-0.87-0.32c-0.12,0-0.36,0-0.71,0.04v2.58c0.2,0.04,0.48,0.08,0.75,0.08
		C36.02,142.96,36.34,142.92,36.54,142.84z"/>
	<path class="st0" d="M41.34,145.94l0.87-0.24v-4.6c0-0.2,0-0.36-0.04-0.4c-0.04-0.08-0.12-0.12-0.24-0.2l-0.63-0.36l0.08-0.99
		c1.19-0.16,2.38-0.28,3.49-0.28c0.87,0,1.59,0.08,2.1,0.28c0.52,0.16,0.91,0.44,1.15,0.79c0.24,0.36,0.36,0.83,0.36,1.47
		c0,0.52-0.12,0.95-0.4,1.31c-0.24,0.36-0.63,0.67-1.11,0.87l1.94,3.09v0.48h-2.18l-1.79-3.21h-0.52v1.35c0,0.2,0,0.32,0.04,0.36
		c0.04,0.04,0.08,0.12,0.2,0.16l0.52,0.32l-0.04,1.03h-3.73L41.34,145.94z M46.14,142.45c0.08-0.28,0.12-0.63,0.12-1.03
		c0-0.4-0.08-0.67-0.28-0.87c-0.16-0.16-0.48-0.24-0.87-0.24c-0.24,0-0.44,0-0.67,0.04v2.14c0.2,0.04,0.48,0.08,0.75,0.08
		C45.62,142.57,45.94,142.53,46.14,142.45z"/>
	<path class="st0" d="M51.29,145.94l0.87-0.24v-4.64c0-0.2,0-0.36-0.04-0.4c-0.04-0.08-0.12-0.12-0.24-0.2l-0.6-0.36l0.04-1.07h6.55
		c0.04,0.83,0.08,1.67,0.08,2.46l-0.91,0.08l-0.87-1.07l-1.82-0.04v1.98l2.58-0.2v1.86l-2.58-0.28v1.94l1.98-0.04l0.91-1.07
		l0.91,0.08c-0.04,0.83-0.08,1.67-0.2,2.46h-6.66V145.94z"/>
	<path class="st0" d="M60.61,146.89c0.04-0.79,0.12-1.55,0.2-2.22l0.91-0.2l0.6,1.03c0.48,0.16,0.91,0.24,1.27,0.24
		c0.12,0,0.4-0.04,0.83-0.12c0-0.16,0.04-0.28,0.04-0.32c0-0.2-0.04-0.36-0.08-0.44c-0.08-0.12-0.2-0.2-0.44-0.36
		c-0.2-0.12-0.6-0.32-1.19-0.56c-0.67-0.36-1.19-0.71-1.51-1.11c-0.32-0.4-0.48-0.83-0.48-1.39c0-0.83,0.28-1.47,0.83-1.94
		c0.56-0.48,1.35-0.71,2.3-0.71c0.48,0,0.95,0.04,1.43,0.12c0.48,0.08,0.87,0.24,1.23,0.4c0,0.44-0.04,0.99-0.12,1.67l-0.04,0.52
		l-0.87,0.12l-0.91-1.19c-0.28-0.08-0.63-0.12-1.07-0.12c-0.28,0-0.48,0.04-0.63,0.08c-0.04,0.16-0.08,0.28-0.08,0.36
		c0,0.16,0.04,0.32,0.12,0.48c0.08,0.12,0.24,0.28,0.48,0.4c0.24,0.16,0.56,0.32,0.99,0.52c0.63,0.32,1.11,0.6,1.47,0.79
		c0.32,0.24,0.56,0.48,0.67,0.71c0.12,0.24,0.2,0.56,0.2,0.91c0,0.79-0.32,1.43-0.95,1.86c-0.63,0.48-1.51,0.67-2.62,0.67
		C62.44,147.29,61.53,147.17,60.61,146.89z"/>
	<path class="st0" d="M69.42,147.13l-0.08-1.19l0.87-0.24v-4.6c0-0.2,0-0.36-0.04-0.4c-0.04-0.08-0.12-0.12-0.24-0.2l-0.63-0.36
		l0.08-0.99c1.31-0.16,2.42-0.24,3.37-0.24c1.15,0,1.98,0.16,2.5,0.52c0.52,0.36,0.79,0.87,0.79,1.59c0,0.36-0.04,0.67-0.16,0.95
		c-0.12,0.28-0.28,0.52-0.52,0.75c0.79,0.36,1.19,0.95,1.19,1.75c0,0.71-0.2,1.31-0.6,1.75c-0.4,0.44-0.99,0.71-1.79,0.87
		c-0.28,0.08-0.99,0.12-2.14,0.12C71.17,147.21,70.29,147.17,69.42,147.13z M73.94,141.26c0-0.36-0.08-0.6-0.24-0.75
		s-0.4-0.24-0.71-0.28c-0.2,0-0.44,0-0.63,0.04v2.02c0.12,0,0.32,0,0.52,0c0.32,0,0.63,0,0.91,0.04
		C73.9,142.13,73.94,141.77,73.94,141.26z M74.3,145.58c0.08-0.32,0.12-0.6,0.12-0.87c0-0.4-0.12-0.67-0.32-0.87
		c-0.2-0.16-0.56-0.24-1.07-0.24c-0.12,0-0.24,0-0.4,0.04h-0.28v1.98c0.28,0.04,0.6,0.08,0.95,0.08
		C73.78,145.7,74.1,145.66,74.3,145.58z"/>
	<path class="st0" d="M79.93,145.98l1.03-0.28v-1.59l-2.22-3.53l-0.56-0.67l0.04-0.83h3.53l0.12,1.15l-0.79,0.2l1.27,2.14l1.03-1.79
		c0.04-0.04,0.04-0.12,0.04-0.16c0-0.08-0.04-0.16-0.16-0.2l-0.71-0.32l0.08-1.07h3.05l0.08,1.15l-0.48,0.28l-2.22,3.25v1.51
		c0,0.2,0,0.32,0.04,0.36c0.04,0.04,0.08,0.12,0.2,0.16l0.75,0.44l-0.04,0.95h-4.13L79.93,145.98z"/>
	<path class="st0" d="M89.77,145.98l1.03-0.28v-5.24l-1.03,0.08l-0.91,1.07l-0.87-0.08c0-0.67,0.04-1.51,0.08-2.54h7.54
		c0.08,1.03,0.08,1.86,0.08,2.54l-0.87,0.08l-0.91-1.07l-0.99-0.08v4.76c0,0.2,0,0.32,0.04,0.36s0.08,0.12,0.2,0.16l0.75,0.44
		l-0.04,0.95h-4.13L89.77,145.98z"/>
	<path class="st0" d="M98.26,145.94l0.87-0.24v-4.64c0-0.2,0-0.36-0.04-0.4c-0.04-0.08-0.12-0.12-0.24-0.2l-0.6-0.36l0.04-1.07h6.55
		c0.04,0.83,0.08,1.67,0.08,2.46l-0.91,0.08l-0.87-1.07l-1.82-0.04v1.98l2.58-0.2v1.86l-2.58-0.28v1.94l1.98-0.04l0.91-1.07
		l0.91,0.08c-0.04,0.83-0.08,1.67-0.2,2.46h-6.66L98.26,145.94z"/>
	<path class="st0" d="M107.74,145.94l0.87-0.24v-4.6c0-0.2,0-0.36-0.04-0.4c-0.04-0.08-0.12-0.12-0.24-0.2l-0.63-0.36l0.08-0.99
		c1.19-0.16,2.38-0.28,3.49-0.28c0.87,0,1.59,0.08,2.1,0.28c0.52,0.16,0.91,0.44,1.15,0.79c0.24,0.36,0.36,0.83,0.36,1.47
		c0,0.52-0.12,0.95-0.4,1.31c-0.24,0.36-0.63,0.67-1.11,0.87l1.94,3.09v0.48h-2.22l-1.79-3.21h-0.52v1.35c0,0.2,0,0.32,0.04,0.36
		c0.04,0.04,0.08,0.12,0.2,0.16l0.52,0.32l-0.04,1.03h-3.73L107.74,145.94z M112.5,142.45c0.08-0.28,0.12-0.63,0.12-1.03
		c0-0.4-0.08-0.67-0.28-0.87c-0.16-0.16-0.48-0.24-0.87-0.24c-0.24,0-0.44,0-0.67,0.04v2.14c0.2,0.04,0.48,0.08,0.75,0.08
		C111.98,142.57,112.3,142.53,112.5,142.45z"/>
	<path class="st0" d="M117.62,145.94l0.87-0.24v-4.64c0-0.2,0-0.36-0.04-0.4c-0.04-0.08-0.12-0.12-0.24-0.2l-0.63-0.36l0.08-1.07
		h3.89l0.04,1.23l-0.87,0.24v4.72c0,0.2,0,0.32,0.04,0.36s0.12,0.12,0.24,0.16l0.63,0.36l-0.04,1.03h-3.85L117.62,145.94z"/>
	<path class="st0" d="M123.92,146.1l0.36-0.24l2.82-6.82l2.06-0.2l2.42,6.51c0.08,0.2,0.12,0.36,0.16,0.4
		c0.04,0.08,0.08,0.16,0.2,0.28l0.2,0.28l-0.08,0.87h-3.37l-0.12-1.15l0.87-0.2l-0.4-1.23l-2.46,0.04l-0.28,0.75
		c-0.04,0.08-0.04,0.12-0.04,0.2c0,0.04,0,0.08,0.04,0.12s0.04,0.04,0.12,0.08l0.83,0.36l-0.12,1.07h-3.17L123.92,146.1z
		 M127.85,140.9l-0.79,2.3l1.55,0.08L127.85,140.9z"/>
	<path class="st0" d="M136.58,142.01l0.2,3.17c0,0.2,0.04,0.32,0.08,0.36c0.04,0.04,0.12,0.12,0.2,0.2l0.63,0.44l-0.04,1.03h-3.13
		l-0.08-1.31l0.63-0.16l0.04-4.76c0-0.16,0-0.24-0.04-0.32c-0.04-0.04-0.08-0.12-0.16-0.2l-0.44-0.36l0.08-1.07h2.5l3.65,4.68
		l-0.16-2.7c0-0.2-0.04-0.32-0.08-0.36c-0.04-0.04-0.12-0.12-0.2-0.2l-0.63-0.4l0.04-1.03h3.09l0.04,1.23l-0.63,0.28l-0.04,6.55
		l-1.39,0.48L136.58,142.01z"/>
	<path class="st0" d="M57.6,157.64c-0.67-0.75-0.99-1.82-0.99-3.17c0-0.87,0.16-1.63,0.48-2.26c0.32-0.63,0.79-1.11,1.39-1.47
		c0.6-0.32,1.31-0.52,2.14-0.52c0.95,0,1.9,0.2,2.9,0.63c-0.08,0.71-0.2,1.51-0.36,2.42l-0.91,0.08l-0.83-1.23
		c-0.36-0.12-0.75-0.16-1.19-0.16c-0.32,0-0.63,0.04-0.91,0.08c-0.12,0.24-0.24,0.6-0.32,0.99c-0.08,0.4-0.12,0.83-0.12,1.23
		c0,0.91,0.16,1.55,0.48,1.98c0.32,0.44,0.83,0.63,1.55,0.67c0.28,0,0.63-0.04,1.07-0.12c0.44-0.08,0.83-0.2,1.27-0.32l0.36,1.31
		c-0.44,0.28-0.91,0.52-1.51,0.67c-0.6,0.16-1.15,0.28-1.71,0.28C59.23,158.75,58.27,158.39,57.6,157.64z"/>
	<path class="st0" d="M66.68,157.28l0.75-0.2v-4.64c0-0.2,0-0.36-0.04-0.4c-0.04-0.08-0.12-0.12-0.24-0.2l-0.52-0.28l0.04-1.15h3.77
		l0.08,1.23l-0.91,0.24v1.75l2.74-0.08v-1.11c0-0.2,0-0.36-0.04-0.4c-0.04-0.08-0.12-0.12-0.24-0.2l-0.6-0.36l0.08-1.11h3.69
		l0.04,1.27l-0.75,0.2v4.72c0,0.2,0,0.32,0.04,0.36c0.04,0.04,0.08,0.12,0.2,0.16l0.48,0.28l-0.04,1.11h-3.65l-0.08-1.23l0.83-0.24
		v-1.71l-2.74-0.12v1.43c0,0.2,0,0.32,0.04,0.36c0.04,0.04,0.12,0.12,0.24,0.16l0.63,0.36l-0.04,1.03h-3.73L66.68,157.28z"/>
	<path class="st0" d="M79.42,157.8c-0.56-0.63-0.83-1.59-0.83-2.94v-2.38c0-0.2,0-0.36-0.04-0.4c-0.04-0.08-0.12-0.12-0.24-0.2
		l-0.4-0.24l0.04-1.19h3.77l0.08,1.19l-0.99,0.28v2.46c0,0.83,0.12,1.51,0.36,1.98c0.24,0.48,0.67,0.71,1.23,0.71
		c0.2,0,0.4-0.04,0.56-0.08c0.2-0.04,0.32-0.12,0.48-0.24c0.08-0.2,0.12-0.44,0.16-0.75c0.04-0.32,0.04-0.71,0.04-1.23v-2.3
		c0-0.2,0-0.36-0.04-0.4c-0.04-0.08-0.12-0.12-0.24-0.2l-0.6-0.36l0.08-1.11h3.57l0.08,1.31l-0.63,0.16v2.74
		c0,1.31-0.32,2.3-0.99,3.01c-0.67,0.71-1.59,1.07-2.82,1.07C80.84,158.71,79.97,158.39,79.42,157.8z"/>
	<path class="st0" d="M89.17,157.32l0.87-0.24v-4.6c0-0.2,0-0.36-0.04-0.4c-0.04-0.08-0.12-0.12-0.24-0.2l-0.63-0.36l0.08-0.99
		c1.19-0.16,2.38-0.28,3.49-0.28c0.87,0,1.59,0.08,2.1,0.28c0.52,0.16,0.91,0.44,1.15,0.79c0.24,0.36,0.36,0.83,0.36,1.47
		c0,0.52-0.12,0.95-0.4,1.31c-0.24,0.36-0.63,0.67-1.11,0.87l1.94,3.09v0.48h-2.18l-1.79-3.21h-0.52v1.35c0,0.2,0,0.32,0.04,0.36
		c0.04,0.04,0.08,0.12,0.2,0.16l0.52,0.32l-0.04,1.03h-3.73L89.17,157.32z M93.97,153.87c0.08-0.28,0.12-0.63,0.12-1.03
		c0-0.4-0.08-0.67-0.28-0.87c-0.16-0.16-0.48-0.24-0.87-0.24c-0.24,0-0.44,0-0.67,0.04v2.14c0.2,0.04,0.48,0.08,0.75,0.08
		C93.46,153.99,93.78,153.95,93.97,153.87z"/>
	<path class="st0" d="M100.2,157.64c-0.67-0.75-0.99-1.82-0.99-3.17c0-0.87,0.16-1.63,0.48-2.26c0.32-0.63,0.79-1.11,1.39-1.47
		c0.6-0.32,1.31-0.52,2.14-0.52c0.95,0,1.9,0.2,2.9,0.63c-0.08,0.71-0.2,1.51-0.36,2.42l-0.91,0.08l-0.83-1.23
		c-0.36-0.12-0.75-0.16-1.19-0.16c-0.32,0-0.63,0.04-0.91,0.08c-0.12,0.24-0.24,0.6-0.32,0.99c-0.08,0.4-0.12,0.83-0.12,1.23
		c0,0.91,0.16,1.55,0.48,1.98c0.32,0.44,0.83,0.63,1.55,0.67c0.28,0,0.63-0.04,1.07-0.12c0.44-0.08,0.83-0.2,1.27-0.32l0.36,1.31
		c-0.44,0.28-0.91,0.52-1.51,0.67c-0.6,0.16-1.15,0.28-1.71,0.28C101.79,158.75,100.88,158.39,100.2,157.64z"/>
	<path class="st0" d="M109.29,157.28l0.75-0.2v-4.64c0-0.2,0-0.36-0.04-0.4c-0.04-0.08-0.12-0.12-0.24-0.2l-0.52-0.28l0.04-1.15
		h3.77l0.08,1.23l-0.91,0.24v1.75l2.74-0.08v-1.11c0-0.2,0-0.36-0.04-0.4c-0.04-0.08-0.12-0.12-0.24-0.2l-0.6-0.36l0.08-1.11h3.69
		l0.04,1.27l-0.75,0.2v4.72c0,0.2,0,0.32,0.04,0.36c0.04,0.04,0.08,0.12,0.2,0.16l0.48,0.28l-0.04,1.11h-3.65l-0.08-1.23l0.83-0.24
		v-1.71l-2.74-0.12v1.43c0,0.2,0,0.32,0.04,0.36c0.04,0.04,0.12,0.12,0.24,0.16l0.63,0.36l-0.04,1.03h-3.73L109.29,157.28z"/>
</g>
</svg>
