<!-- Generator: Adobe Illustrator 24.0.1, SVG Export Plug-In  -->
<svg version="1.1" xmlns="http://www.w3.org/2000/svg" xmlns:xlink="http://www.w3.org/1999/xlink" x="0px" y="0px"
	 width="259.21px" height="71.14px" viewBox="0 0 259.21 71.14" style="enable-background:new 0 0 259.21 71.14;"
	 xml:space="preserve">
<style type="text/css">
	.st0{fill:#ED1C24;}
	.st1{fill:#FFFFFF;}
</style>
<defs>
</defs>
<path class="st0" d="M259.21,0L151.08,62.51l-9.16,5.29c-0.23,0.13-0.46,0.26-0.7,0.36c-3.51,1.88-7.49,2.97-11.62,2.97
	c-3.79,0-7.46-0.93-10.77-2.53c-0.05-0.03-0.08-0.05-0.1-0.05c-0.49-0.23-0.96-0.49-1.42-0.75l-9.14-5.29L0,0H259.21z"/>
<path class="st1" d="M145.92,56.75l-2.27,1.32c-2.06,1.2-4.61,0.89-6.39-0.68c-2.06-1.78-4.7-2.86-7.65-2.86
	c-2.92,0-5.59,1.08-7.65,2.86c-1.78,1.57-4.33,1.87-6.39,0.68l-2.27-1.32c2.49-4.3,6.64-7.53,11.59-8.82
	c0.98-0.25,1.69-1.17,1.69-2.18V36.9c0-0.65-0.52-1.14-1.14-1.14l-3.56,0.06v-6.85l3.66-0.22c0.61-0.03,1.08-0.52,1.08-1.14v-4.64
	l6.24-0.58v4.73c0,0.65,0.55,1.17,1.2,1.14l4.21-0.25v7.56l-4.27,0.06c-0.61,0-1.11,0.52-1.11,1.14v9c0,1.01,0.68,1.94,1.66,2.18
	C139.35,49.25,143.43,52.48,145.92,56.75z"/>
</svg>
