<!-- Generator: Adobe Illustrator 24.0.1, SVG Export Plug-In  -->
<svg version="1.1" xmlns="http://www.w3.org/2000/svg" xmlns:xlink="http://www.w3.org/1999/xlink" x="0px" y="0px" width="58.07px"
	 height="64.79px" viewBox="0 0 58.07 64.79" style="enable-background:new 0 0 58.07 64.79;" xml:space="preserve">
<style type="text/css">
	.st0{fill:#373D72;}
</style>
<defs>
</defs>
<path class="st0" d="M58.07,61.13l-4.05,2.35c-3.66,2.13-8.2,1.59-11.37-1.2c-3.66-3.17-8.37-5.09-13.62-5.09
	c-5.19,0-9.95,1.91-13.62,5.09c-3.17,2.79-7.71,3.34-11.37,1.2L0,61.13c4.43-7.66,11.81-13.4,20.61-15.69
	c1.75-0.44,3.01-2.08,3.01-3.88V25.81c0-1.15-0.93-2.02-2.02-2.02l-6.34,0.11V11.7l6.51-0.38c1.09-0.05,1.91-0.93,1.91-2.02V1.04
	L34.78,0v8.42c0,1.15,0.98,2.08,2.13,2.02l7.49-0.44v13.45l-7.6,0.11c-1.09,0-1.97,0.93-1.97,2.02v16.02c0,1.8,1.2,3.44,2.95,3.88
	C46.37,47.79,53.64,53.53,58.07,61.13z"/>
</svg>
