<!-- Generator: Adobe Illustrator 24.0.1, SVG Export Plug-In  -->
<svg version="1.1" xmlns="http://www.w3.org/2000/svg" xmlns:xlink="http://www.w3.org/1999/xlink" x="0px" y="0px"
	 width="128.964px" height="143.877px" viewBox="0 0 128.964 143.877" enable-background="new 0 0 128.964 143.877"
	 xml:space="preserve">
<defs>
</defs>
<path fill="#373D72" d="M128.964,135.764l-8.986,5.222c-8.136,4.736-18.215,3.522-25.258-2.672
	c-8.136-7.043-18.579-11.293-30.237-11.293c-11.536,0-22.101,4.25-30.237,11.293c-7.043,6.193-17.122,7.408-25.258,2.672L0,135.764
	c9.836-17.001,26.23-29.752,45.781-34.852c3.886-0.971,6.679-4.615,6.679-8.622V57.317c0-2.55-2.064-4.493-4.493-4.493L33.88,53.067
	v-27.08l14.451-0.85c2.429-0.121,4.25-2.064,4.25-4.493V2.307L77.232,0v18.701c0,2.55,2.186,4.615,4.736,4.493l16.637-0.971v29.873
	l-16.879,0.243c-2.429,0-4.372,2.064-4.372,4.493v35.58c0,4.007,2.672,7.65,6.558,8.622
	C102.977,106.134,119.128,118.885,128.964,135.764z"/>
</svg>
