<!-- Generator: Adobe Illustrator 24.0.1, SVG Export Plug-In  -->
<svg version="1.1" xmlns="http://www.w3.org/2000/svg" xmlns:xlink="http://www.w3.org/1999/xlink" x="0px" y="0px" width="11.59px"
	 height="11.59px" viewBox="0 0 11.59 11.59" style="enable-background:new 0 0 11.59 11.59;" xml:space="preserve">
<style type="text/css">
	.st0{fill:#000080;}
</style>
<defs>
</defs>
<path class="st0" d="M3.58,11.15c-0.7-0.29-1.33-0.71-1.88-1.26S0.73,8.71,0.44,8.01S0,6.57,0,5.79s0.15-1.51,0.44-2.21
	S1.15,2.25,1.7,1.7s1.18-0.97,1.88-1.26S5.02,0,5.79,0s1.51,0.15,2.21,0.44S9.34,1.15,9.89,1.7s0.97,1.18,1.26,1.88
	s0.44,1.44,0.44,2.21s-0.15,1.51-0.44,2.21s-0.71,1.33-1.26,1.88s-1.18,0.97-1.88,1.26s-1.44,0.44-2.21,0.44S4.28,11.44,3.58,11.15z
	 M6.26,8.85V6.06H7.2l0.14-1.08H6.26V4.37c0-0.17,0.01-0.28,0.03-0.32c0-0.01,0.02-0.05,0.05-0.11c0.07-0.13,0.25-0.19,0.54-0.19
	h0.5V2.78C7.12,2.75,6.84,2.73,6.55,2.73c-0.57,0-0.97,0.21-1.21,0.62c-0.14,0.23-0.21,0.5-0.21,0.8v0.83H4.21v1.08h0.93v2.79H6.26z
	"/>
</svg>
