<!-- Generator: Adobe Illustrator 24.0.1, SVG Export Plug-In  -->
<svg version="1.1" xmlns="http://www.w3.org/2000/svg" xmlns:xlink="http://www.w3.org/1999/xlink" x="0px" y="0px" width="79.34px"
	 height="102.58px" viewBox="0 0 79.34 102.58" style="enable-background:new 0 0 79.34 102.58;" xml:space="preserve">
<style type="text/css">
	.st0{fill:#373D72;}
	.st1{fill:#F04C4D;}
</style>
<defs>
</defs>
<g>
	<path class="st0" d="M5.92,38.18C5.8,38.1,5.67,38.1,5.58,38.1c-0.35,0-0.69,0.28-0.69,0.7v38.49c0,0.23,0.13,0.49,0.37,0.6
		l34,19.66c0.13,0.03,0.25,0.07,0.34,0.07c0.12,0,0.23-0.03,0.35-0.07L73.97,77.9c0.2-0.12,0.32-0.37,0.32-0.6V38.78
		c0-0.4-0.32-0.69-0.69-0.69c-0.12,0-0.23,0.05-0.32,0.08l-7.04,4.06c-0.85-1.46-1.83-2.83-2.87-4.14l7.39-4.24
		c0.85-0.49,1.86-0.77,2.83-0.77c3.2-0.03,5.75,2.51,5.75,5.66v38.49c0,2.03-1.09,3.92-2.83,4.94l-34,19.64
		c-0.85,0.49-1.86,0.77-2.83,0.77c-1.02,0-1.99-0.28-2.83-0.77L2.83,82.17C1.1,81.15,0,79.25,0,77.23V38.75
		c0-3.15,2.55-5.7,5.71-5.7c1.01,0,1.98,0.28,2.83,0.77l12.64,7.24c3.2-3.57,7.42-6.2,12.23-7.44c1.29-0.34,2.21-1.54,2.21-2.88
		V19.09c0-0.84-0.69-1.49-1.49-1.49l-4.69,0.08V8.66l4.81-0.28c0.82-0.03,1.42-0.69,1.42-1.49V0.77L43.88,0v6.23
		c0,0.85,0.72,1.54,1.58,1.49l5.53-0.32v9.95l-5.61,0.07c-0.8,0-1.46,0.69-1.46,1.51v11.85c0,1.32,0.89,2.55,2.18,2.87
		c6.35,1.69,11.73,5.95,15,11.56l-2.98,1.74c-2.71,1.58-6.07,1.17-8.41-0.89c-2.72-2.33-6.19-3.76-10.07-3.76
		c-3.77,0-7.24,1.37-9.94,3.67l0.03,0.02l5.58,3.23c1.34-0.72,2.83-1.14,4.44-1.14c3.52,0,6.55,1.91,8.21,4.74l-7.39,4.24
		c-0.49,0.28-1.14,0.28-1.63,0L5.92,38.18z"/>
</g>
<g>
	<path class="st1" d="M61.76,71.67l-3.19-1.82c-0.53-0.28-1.13-0.28-1.66,0l-3.19,1.82V58.89c0-2.71,1.46-5.26,3.8-6.59l4.21-2.43
		v21.8C61.73,71.67,61.76,71.67,61.76,71.67z"/>
</g>
</svg>
