<!-- Generator: Adobe Illustrator 24.0.1, SVG Export Plug-In  -->
<svg version="1.1" xmlns="http://www.w3.org/2000/svg" xmlns:xlink="http://www.w3.org/1999/xlink" x="0px" y="0px" width="53.01px"
	 height="16.23px" viewBox="0 0 53.01 16.23" style="enable-background:new 0 0 53.01 16.23;" xml:space="preserve">
<style type="text/css">
	.st0{fill:#373D72;}
</style>
<defs>
</defs>
<g>
	<path class="st0" d="M2.73,0l5.23,13.06L13.19,0h2.74v16.01h-2.11V9.77l0.2-6.73L8.76,16.01H7.15L1.9,3.08l0.21,6.69V16H0V0H2.73z"
		/>
	<path class="st0" d="M24.27,16.23c-1.61,0-2.92-0.53-3.94-1.59c-1.01-1.06-1.52-2.47-1.52-4.25v-0.38c0-1.18,0.23-2.23,0.68-3.16
		c0.45-0.93,1.08-1.65,1.89-2.18c0.81-0.52,1.69-0.79,2.63-0.79c1.55,0,2.75,0.51,3.61,1.53s1.29,2.48,1.29,4.38v0.85h-8.06
		c0.03,1.17,0.37,2.12,1.03,2.84c0.66,0.72,1.49,1.08,2.5,1.08c0.72,0,1.33-0.15,1.82-0.44c0.5-0.29,0.93-0.68,1.31-1.16l1.24,0.97
		C27.76,15.46,26.27,16.23,24.27,16.23z M24.02,5.56c-0.82,0-1.51,0.3-2.07,0.9s-0.9,1.43-1.03,2.51h5.96V8.82
		c-0.06-1.03-0.34-1.83-0.83-2.4C25.54,5.85,24.87,5.56,24.02,5.56z"/>
	<path class="st0" d="M33.19,4.11l0.06,1.49c0.91-1.14,2.1-1.72,3.56-1.72c2.51,0,3.78,1.42,3.8,4.26v7.86h-2.03V8.14
		c-0.01-0.86-0.2-1.49-0.59-1.9s-0.98-0.62-1.8-0.62c-0.66,0-1.24,0.18-1.74,0.53c-0.5,0.35-0.89,0.81-1.17,1.39v8.48h-2.03V4.11
		H33.19z"/>
	<path class="st0" d="M51.03,14.83c-0.79,0.93-1.95,1.4-3.48,1.4c-1.27,0-2.23-0.37-2.9-1.1c-0.66-0.74-1-1.83-1.01-3.27V4.11h2.03
		v7.68c0,1.8,0.73,2.7,2.2,2.7c1.55,0,2.59-0.58,3.1-1.74V4.11h2.03v11.89h-1.94L51.03,14.83z"/>
</g>
</svg>
