<!-- Generator: Adobe Illustrator 24.0.1, SVG Export Plug-In  -->
<svg version="1.1" xmlns="http://www.w3.org/2000/svg" xmlns:xlink="http://www.w3.org/1999/xlink" x="0px" y="0px"
	 width="490.38px" height="150.4px" viewBox="0 0 490.38 150.4" style="enable-background:new 0 0 490.38 150.4;"
	 xml:space="preserve">
<defs>
</defs>
<g>
	<polygon points="97.73,37.72 104.55,37.72 110.95,10.31 104.12,10.31 	"/>
	<polygon points="115.57,37.72 122.38,37.72 128.78,10.31 121.96,10.31 	"/>
	<polygon points="75.94,54.65 82.77,54.65 93.11,10.31 86.29,10.31 	"/>
	<polygon points="139.79,10.31 129.45,54.65 136.27,54.65 146.61,10.31 	"/>
</g>
<g>
	<path d="M174.33,20h6.37l-0.58,2.47c0.91-0.85,2.16-1.75,3.2-2.27c1.4-0.71,2.68-0.91,4.11-0.91c1.56,0,3.19,0.26,4.7,1.3
		l-3.95,5.78c-1.22-0.91-2.37-0.98-3.02-0.98c-1.36,0-2.78,0.19-4.31,1.5c-2.19,1.88-2.8,4.48-3.22,6.3l-3.3,14.16h-6.37L174.33,20z
		"/>
	<path d="M214.54,20h6.37l-6.38,27.35h-6.37l0.67-2.86c-3.55,3.25-7.1,3.7-9.05,3.7c-8.44,0-11.61-7.02-9.86-14.55
		c2.07-8.9,9.45-14.35,16.66-14.35c2.02,0,5.4,0.52,7.21,3.9L214.54,20z M196.39,33.77c-1.1,4.74,0.96,8.7,5.57,8.7
		c4.03,0,8.41-2.92,9.74-8.64c1.4-5.98-1.64-8.83-5.67-8.83C201.42,25,197.53,28.9,196.39,33.77z"/>
	<path d="M235.33,20l-6.38,27.35h-6.37L228.96,20H235.33z M235.73,4.61c2.34,0,3.68,1.75,3.14,4.09s-2.71,4.09-5.05,4.09
		s-3.68-1.75-3.14-4.09C231.23,6.37,233.39,4.61,235.73,4.61z"/>
	<path d="M243.31,20h6.36l-0.59,2.54c3.44-3.06,6.6-3.25,8.16-3.25c5.07,0,6.62,2.54,7.19,3.7c0.69,1.5,0.9,3.38-0.08,7.6
		l-3.91,16.76h-6.37l3.55-15.2c1.62-6.95-0.93-7.15-3.34-7.15c-2.86,0-5.87,0.39-7.93,9.22l-3.06,13.12h-6.37L243.31,20z"/>
	<path d="M285.15,27.21c-0.41-1.04-1.34-2.34-3.35-2.34c-0.91,0-1.64,0.33-2.11,0.71c-0.4,0.33-0.78,0.85-0.92,1.43
		c-0.17,0.71,0.05,1.17,0.54,1.56c0.33,0.26,0.69,0.39,1.89,1.1l2.87,1.62c1.26,0.71,2.46,1.43,3.24,2.54
		c1.15,1.5,1.27,3.18,0.83,5.07c-0.58,2.47-1.99,4.61-3.86,6.23c-2.69,2.34-5.52,3.06-8.38,3.06c-1.75,0-3.9-0.26-5.5-1.75
		c-1.29-1.17-2.14-3.06-2.34-5l5.77-2.47c0.11,0.91,0.43,2.08,0.89,2.6c0.3,0.39,1.06,1.04,2.55,1.04c0.98,0,2.09-0.33,2.81-0.91
		c0.64-0.52,1.23-1.36,1.41-2.14c0.18-0.78,0.08-1.43-0.36-2.08c-0.6-0.78-1.4-1.23-2.34-1.69l-2.08-1.1
		c-1.1-0.58-2.42-1.3-3.22-2.34c-1.11-1.36-1.28-2.86-0.87-4.61c0.51-2.21,1.86-4.35,3.64-5.85c1.54-1.3,3.92-2.6,7.3-2.6
		c1.95,0,3.42,0.39,4.73,1.43c0.77,0.58,1.76,1.62,2.33,3.38L285.15,27.21z"/>
	<path d="M302.93,0h6.37l-5.21,22.35c3.38-2.79,6.43-3.06,8.05-3.06c5,0,6.67,2.6,7.19,3.7c1.12,2.47,0.44,5.65-0.02,7.6
		l-3.91,16.76h-6.37l3.77-16.17c0.38-1.62,0.79-3.38-0.13-4.74c-0.53-0.78-1.61-1.43-3.24-1.43c-2.14,0-4.07,1.04-5.21,2.27
		c-1.22,1.3-2.09,3.38-2.9,6.88l-3.07,13.19h-6.37L302.93,0z"/>
	<path d="M349.83,20h6.36l-6.38,27.35h-6.37l0.67-2.86c-3.55,3.25-7.1,3.7-9.05,3.7c-8.44,0-11.61-7.02-9.86-14.55
		c2.07-8.9,9.45-14.35,16.66-14.35c2.02,0,5.4,0.52,7.21,3.9L349.83,20z M331.68,33.77c-1.1,4.74,0.96,8.7,5.57,8.7
		c4.03,0,8.41-2.92,9.74-8.64c1.4-5.98-1.64-8.83-5.67-8.83C336.71,25,332.82,28.9,331.68,33.77z"/>
	<path d="M388.92,0h6.37l-11.05,47.35h-6.37l0.67-2.86c-3.55,3.25-7.1,3.7-9.05,3.7c-8.44,0-11.61-7.02-9.86-14.55
		c2.07-8.9,9.45-14.35,16.66-14.35c2.02,0,5.4,0.52,7.21,3.9L388.92,0z M366.11,33.77c-1.1,4.74,0.96,8.7,5.57,8.7
		c4.03,0,8.41-2.92,9.74-8.64c1.4-5.98-1.64-8.83-5.67-8.83C371.14,25,367.24,28.9,366.11,33.77z"/>
	<path d="M418.24,41.12c-1.65,2.08-3.77,3.9-5.78,5c-2.54,1.43-5.61,2.08-8.54,2.08c-3.64,0-6.41-0.91-8.41-3.51
		c-1.99-2.6-2.54-6.37-1.59-10.46c0.99-4.22,3.44-8.31,6.98-11.23c2.8-2.27,6.12-3.7,10.02-3.7c4.35,0,6.71,1.88,7.93,3.57
		c2.66,3.64,1.8,8.7,1.13,11.56l-0.18,0.78h-19.62c-0.33,1.95,0.01,4.16,1.05,5.52c1.15,1.5,2.9,1.75,4.46,1.75
		c1.75,0,3.14-0.39,4.67-1.36c1.3-0.85,2.4-1.95,3.23-2.99L418.24,41.12z M414.53,30.01c0.09-1.5-0.32-2.79-1.09-3.7
		c-0.66-0.78-1.85-1.56-3.93-1.56c-2.21,0-3.85,0.91-4.89,1.75c-1.1,0.85-2.13,2.14-2.77,3.51L414.53,30.01L414.53,30.01z"/>
</g>
<g>
	<path d="M28.92,90.28c6.21,0,10.35,0.71,13.58,4.5c3.54,4.24,3.44,9.98,2.52,14.21c-0.5,2.3-2.22,8.65-7.43,13.15
		c-3.78,3.27-8.75,5.21-15.12,5.21h-6.95l-4.77,21.8H0l12.87-58.88H28.92z M17.68,117.47h4.38c2.07,0,4.72,0,7.44-1.85
		c2.35-1.68,3.92-4.33,4.48-6.89c0.71-3.27-0.29-5.47-1.59-6.71c-1.87-1.68-4.64-1.85-7.21-1.85h-3.72L17.68,117.47z"/>
	<path d="M84.15,115.09c2.8,3.44,4.13,8.74,2.76,15.01c-1.35,6.18-4.99,11.48-9.3,14.92c-3.72,3-8.87,5.38-15.66,5.38
		s-10.9-2.38-13.3-5.38c-2.8-3.44-4.13-8.74-2.78-14.92c1.37-6.27,5.01-11.56,9.32-15.01c3.72-3,8.87-5.38,15.66-5.38
		S81.74,112.09,84.15,115.09z M76.48,130.1c1.31-6-1.93-10.86-7.72-10.86s-11.16,4.86-12.47,10.86c-1.27,5.83,1.87,10.77,7.74,10.77
		S75.21,135.92,76.48,130.1z"/>
	<path d="M116.33,120.03c-1.88-2.38-4.24-2.56-5.31-2.56c-2.4,0-4.16,1.24-4.56,3.09c-0.21,0.97-0.13,2.47,2.48,3.44l2.22,0.79
		c2.6,0.97,6.49,2.47,7.9,5.47c0.73,1.59,0.97,3.88,0.43,6.36c-0.75,3.44-2.58,6.89-6.09,9.71c-3.51,2.83-7.26,4.06-11.64,4.06
		c-7.45,0-10.84-3.79-12.51-6.36l6.72-6.53c1.44,2.47,4,4.41,6.98,4.41c2.81,0,5.29-1.5,5.87-4.15c0.52-2.38-1.09-3.35-2.3-3.88
		l-2.12-0.88c-2.35-0.97-5.06-2.21-6.69-4.59c-1.25-1.85-1.8-4.24-1.13-7.33c0.81-3.71,3.14-6.8,5.61-8.65
		c3.33-2.38,7.05-2.74,9.95-2.74c2.65,0,6.79,0.35,10.53,4.06L116.33,120.03z"/>
	<path d="M141.96,120.12l-6.35,29.04h-10.09l6.35-29.04h-3.97l2.01-9.18h3.97l2.86-13.07h10.09l-2.86,13.07h6.95l-2.01,9.18H141.96z
		"/>
	<path d="M187.01,138.48c-1.69,2.83-7.73,11.92-20.23,11.92c-5.79,0-9.79-1.77-12.56-5.38c-3.1-3.97-3.68-8.92-2.36-14.92
		c1.66-7.59,5.58-12.27,8.74-15.01c5.18-4.41,10.36-5.38,14.66-5.38c7.28,0,10.82,3.09,12.61,6.27c2.74,4.85,1.93,10.86,1.02,15.01
		l-0.19,0.88H161.9c-0.5,2.3-0.46,4.77,0.33,6.44c0.73,1.59,2.52,3.62,6.41,3.62c3.81,0,7.13-1.94,9.46-5.03L187.01,138.48z
		 M180.69,124.98c0.31-5.21-3.12-7.68-6.84-7.68c-3.72,0-8.17,2.56-10.12,7.68H180.69z"/>
	<path d="M202.71,110.94h10.09l-1.25,5.74c2.29-3.27,4.79-4.85,5.63-5.3c1.8-1.06,3.92-1.68,6.32-1.68c1.74,0,3.05,0.44,4.11,0.88
		l-3.52,10.06c-1.11-0.97-2.34-1.41-4.41-1.41c-1.9,0-4.81,0.44-7.38,3.09c-2.46,2.56-3.26,5.83-3.84,8.48l-4.01,18.36h-10.09
		L202.71,110.94z"/>
	<path d="M268.53,90.28h7.78l6.46,37.43l23.49-37.43h7.78l-3.61,58.88h-10.92l2.97-36.28l-22.74,36.28h-3.64l-6.21-36.28
		l-13.56,36.28H245.4L268.53,90.28z"/>
	<path d="M356.19,110.94h10.09l-8.36,38.22h-10.09l1.08-4.94c-4.86,5.56-9.79,6.18-12.35,6.18c-11,0-16.28-9.18-13.83-20.39
		c2.47-11.3,11.64-20.3,22.23-20.3c2.73,0,7.99,0.53,10.15,6.18L356.19,110.94z M333.15,130.01c-1.33,6.09,1.76,10.86,7.55,10.86
		c5.79,0,10.97-4.77,12.3-10.86c1.33-6.09-1.78-10.77-7.57-10.77C339.65,119.24,334.49,123.92,333.15,130.01z"/>
	<path d="M393.34,84.81l-8.76,40.08l16.45-13.95h13.07l-20.46,16.77l13.43,21.45h-13.4l-9.75-16.33l-1.31,1.06l-3.34,15.27h-10.09
		l14.07-64.35H393.34z"/>
	<path d="M449.78,138.48c-1.69,2.83-7.73,11.92-20.23,11.92c-5.79,0-9.79-1.77-12.56-5.38c-3.1-3.97-3.68-8.92-2.36-14.92
		c1.66-7.59,5.58-12.27,8.74-15.01c5.18-4.41,10.36-5.38,14.66-5.38c7.28,0,10.83,3.09,12.61,6.27c2.74,4.85,1.93,10.86,1.02,15.01
		l-0.19,0.88h-26.81c-0.5,2.3-0.46,4.77,0.33,6.44c0.73,1.59,2.52,3.62,6.41,3.62c3.81,0,7.13-1.94,9.46-5.03L449.78,138.48z
		 M443.47,124.98c0.31-5.21-3.12-7.68-6.84-7.68c-3.72,0-8.17,2.56-10.12,7.68H443.47z"/>
	<path d="M465.49,110.94h10.09l-1.25,5.74c2.29-3.27,4.79-4.85,5.63-5.3c1.8-1.06,3.92-1.68,6.32-1.68c1.74,0,3.05,0.44,4.11,0.88
		l-3.52,10.06c-1.11-0.97-2.34-1.41-4.41-1.41c-1.9,0-4.81,0.44-7.38,3.09c-2.46,2.56-3.26,5.83-3.84,8.48l-4.01,18.36h-10.09
		L465.49,110.94z"/>
</g>
</svg>
