<!-- Generator: Adobe Illustrator 24.0.1, SVG Export Plug-In  -->
<svg version="1.1" xmlns="http://www.w3.org/2000/svg" xmlns:xlink="http://www.w3.org/1999/xlink" x="0px" y="0px"
	 width="300.44px" height="87.49px" viewBox="0 0 300.44 87.49" style="enable-background:new 0 0 300.44 87.49;"
	 xml:space="preserve">
<style type="text/css">
	.st0{fill:#FFFFFF;}
</style>
<defs>
</defs>
<g>
	<path class="st0" d="M4.23,31.5C1.41,28.31,0,23.79,0,17.94c0-3.71,0.68-6.92,2.04-9.62c1.36-2.7,3.33-4.76,5.9-6.19
		C10.52,0.71,13.58,0,17.12,0c4.02,0,8.16,0.91,12.43,2.73c-0.31,3.09-0.81,6.51-1.5,10.26l-3.92,0.26l-3.56-5.21
		c-1.51-0.45-3.18-0.67-5-0.67c-1.38,0-2.68,0.12-3.92,0.36c-0.55,1.07-1,2.47-1.34,4.23c-0.34,1.75-0.52,3.52-0.52,5.31
		c0,3.82,0.7,6.64,2.09,8.48c1.39,1.84,3.6,2.79,6.63,2.86c1.2,0,2.72-0.18,4.56-0.54c1.84-0.36,3.63-0.83,5.39-1.42l1.6,5.67
		c-1.79,1.17-3.94,2.12-6.47,2.86c-2.53,0.74-4.96,1.11-7.3,1.11C11.07,36.3,7.05,34.7,4.23,31.5z"/>
	<path class="st0" d="M35.86,32.84c-2.15-2.23-3.22-5.65-3.22-10.26c0-2.96,0.54-5.53,1.62-7.73c1.08-2.2,2.64-3.88,4.67-5.05
		c2.03-1.17,4.42-1.75,7.17-1.75c8.9,0,13.35,4.61,13.35,13.82c0,4.5-1.21,8.02-3.63,10.54s-5.82,3.79-10.18,3.79
		C41.26,36.19,38.01,35.08,35.86,32.84z M48.26,29.98c0.52-0.12,1.07-0.32,1.65-0.59c0.21-0.79,0.38-1.8,0.52-3.04
		c0.14-1.24,0.21-2.42,0.21-3.56c0-2.78-0.44-4.9-1.31-6.34c-0.88-1.44-2.17-2.17-3.89-2.17c-1.13,0-2.29,0.15-3.45,0.46
		c-0.24,0.52-0.43,1.35-0.57,2.5c-0.14,1.15-0.21,2.47-0.21,3.94c0,2.89,0.46,5.1,1.37,6.65c0.91,1.55,2.21,2.32,3.89,2.32
		C47.14,30.16,47.74,30.1,48.26,29.98z"/>
	<path class="st0" d="M61.77,30.63l3.15-0.93V17.17c0-0.76-0.05-1.25-0.15-1.47c-0.1-0.22-0.38-0.47-0.82-0.75l-2.27-1.24l0.15-3.87
		c0.58-0.14,1.08-0.22,1.5-0.26c4.16-0.86,7.23-1.32,9.23-1.39c0.31,0.89,0.6,2.01,0.88,3.35c2.06-1.62,3.82-2.73,5.26-3.35h2.94
		c-0.03,1.31-0.12,2.72-0.26,4.25c-0.14,1.53-0.31,2.76-0.52,3.69c-1.24-0.07-2.15-0.1-2.73-0.1c-1.44,0-2.94,0.09-4.49,0.26V28
		c0,0.72,0.05,1.2,0.15,1.44c0.1,0.24,0.38,0.5,0.83,0.77l3.09,1.65l-0.21,3.66H62.02L61.77,30.63z"/>
	<path class="st0" d="M84.19,30.57l3.2-0.93V17.17c0-0.76-0.05-1.25-0.15-1.47c-0.1-0.22-0.38-0.47-0.82-0.75l-2.27-1.24l0.15-3.87
		l1.13-0.21c4.5-0.89,7.75-1.37,9.74-1.44c0.27,0.72,0.5,1.51,0.67,2.37c2.1-0.96,3.81-1.62,5.13-1.98
		c1.32-0.36,2.57-0.54,3.74-0.54c5.47,0,8.2,3.27,8.2,9.8v10.11c0,0.72,0.05,1.2,0.15,1.44c0.1,0.24,0.4,0.5,0.88,0.77l2.48,1.44
		l-0.21,3.87h-14.23l-0.26-4.9l2.53-0.72v-9.74c0-1.55-0.05-2.63-0.15-3.25c-0.1-0.62-0.39-1.1-0.85-1.44
		c-0.46-0.34-1.28-0.52-2.45-0.52c-1.24,0-2.8,0.19-4.69,0.57v12.48c0,0.72,0.05,1.2,0.15,1.44c0.1,0.24,0.38,0.5,0.83,0.77
		l2.53,1.44l-0.21,3.87H84.45L84.19,30.57z"/>
	<path class="st0" d="M120.93,32.48c-2.18-2.44-3.27-5.81-3.27-10.11c0-2.99,0.53-5.56,1.6-7.71c1.06-2.15,2.58-3.79,4.54-4.92
		c1.96-1.13,4.25-1.7,6.86-1.7c3.88,0,6.87,1.24,8.95,3.71c2.08,2.47,3.07,6,2.96,10.57l-15.67,2.89c0.48,1.44,1.16,2.5,2.04,3.17
		c0.88,0.67,2.04,1.01,3.48,1.01c1,0,2.18-0.15,3.56-0.44c1.37-0.29,2.77-0.7,4.18-1.21l1.19,5.1c-1.27,0.96-2.92,1.75-4.95,2.37
		c-2.03,0.62-4.07,0.93-6.14,0.93C126.21,36.14,123.11,34.92,120.93,32.48z M134.1,17.99c-0.07-1.31-0.44-2.26-1.11-2.86
		c-0.67-0.6-1.61-0.9-2.81-0.9c-1,0-1.94,0.14-2.84,0.41c-0.72,1.68-1.05,3.51-0.98,5.47L134.1,17.99z"/>
	<path class="st0" d="M144.88,30.63l3.15-0.93V17.17c0-0.76-0.05-1.25-0.15-1.47c-0.1-0.22-0.38-0.47-0.82-0.75l-2.27-1.24
		l0.15-3.87c0.58-0.14,1.08-0.22,1.5-0.26c4.16-0.86,7.23-1.32,9.23-1.39c0.31,0.89,0.6,2.01,0.88,3.35
		c2.06-1.62,3.82-2.73,5.26-3.35h2.94c-0.03,1.31-0.12,2.72-0.26,4.25c-0.14,1.53-0.31,2.76-0.52,3.69c-1.24-0.07-2.15-0.1-2.73-0.1
		c-1.44,0-2.94,0.09-4.49,0.26V28c0,0.72,0.05,1.2,0.15,1.44c0.1,0.24,0.38,0.5,0.83,0.77l3.09,1.65l-0.21,3.66h-15.47L144.88,30.63
		z"/>
	<path class="st0" d="M166.64,34.96c0.21-3.37,0.43-5.86,0.67-7.48l2.94-0.57l3.25,3.45c1.13,0.34,2.41,0.52,3.82,0.52
		c0.79,0,1.41-0.05,1.86-0.15c0.1-0.27,0.15-0.65,0.15-1.13c0-0.41-0.09-0.76-0.28-1.03c-0.19-0.27-0.61-0.6-1.26-0.98
		c-0.65-0.38-1.79-0.96-3.4-1.75c-2.03-1.07-3.58-2.02-4.64-2.86c-1.07-0.84-1.83-1.71-2.29-2.6c-0.46-0.89-0.7-1.96-0.7-3.2
		c0-2.75,1.02-4.93,3.07-6.55c2.04-1.62,4.82-2.42,8.33-2.42c1.44,0,2.96,0.16,4.56,0.49c1.6,0.33,3.03,0.77,4.31,1.31
		c0,2.23-0.16,4.73-0.46,7.48l-2.68,0.41l-3.45-3.71c-0.89-0.27-2.2-0.41-3.92-0.41c-0.28,0-0.83,0.03-1.65,0.1
		c-0.1,0.21-0.16,0.53-0.16,0.98c0,0.48,0.14,0.9,0.41,1.26c0.27,0.36,0.76,0.76,1.47,1.19c0.7,0.43,1.83,1.04,3.38,1.83
		c2.27,1.1,3.98,2.05,5.13,2.86c1.15,0.81,1.96,1.62,2.42,2.45c0.46,0.82,0.7,1.82,0.7,2.99c0,2.82-1.08,5.02-3.22,6.6
		c-2.15,1.58-5.11,2.37-8.89,2.37C173.36,36.4,170.21,35.92,166.64,34.96z"/>
	<path class="st0" d="M195.25,33.95c-1.44-1.5-2.17-3.77-2.17-6.83V14.59h-3.61v-3.76l9.28-8.46l2.99,0.36v5.83h8.66v6.08h-8.66
		v10.62c0,1.65,0.23,2.75,0.7,3.3c0.46,0.55,1.37,0.82,2.71,0.82c1.13,0,2.71-0.15,4.74-0.46l0.62,5.26
		c-1.24,0.58-2.62,1.07-4.15,1.44c-1.53,0.38-3,0.57-4.41,0.57C198.93,36.19,196.7,35.45,195.25,33.95z"/>
	<path class="st0" d="M215.95,32.84c-2.15-2.23-3.22-5.65-3.22-10.26c0-2.96,0.54-5.53,1.62-7.73c1.08-2.2,2.64-3.88,4.67-5.05
		c2.03-1.17,4.42-1.75,7.17-1.75c8.9,0,13.35,4.61,13.35,13.82c0,4.5-1.21,8.02-3.63,10.54c-2.42,2.53-5.82,3.79-10.18,3.79
		C221.36,36.19,218.1,35.08,215.95,32.84z M228.35,29.98c0.52-0.12,1.07-0.32,1.65-0.59c0.21-0.79,0.38-1.8,0.52-3.04
		c0.14-1.24,0.21-2.42,0.21-3.56c0-2.78-0.44-4.9-1.31-6.34c-0.88-1.44-2.17-2.17-3.89-2.17c-1.13,0-2.29,0.15-3.46,0.46
		c-0.24,0.52-0.43,1.35-0.57,2.5c-0.14,1.15-0.21,2.47-0.21,3.94c0,2.89,0.46,5.1,1.37,6.65c0.91,1.55,2.21,2.32,3.89,2.32
		C227.23,30.16,227.84,30.1,228.35,29.98z"/>
	<path class="st0" d="M242.07,30.57l3.2-0.93V17.17c0-0.76-0.05-1.25-0.16-1.47c-0.1-0.22-0.38-0.47-0.82-0.75l-2.27-1.24l0.15-3.87
		l1.13-0.21c4.5-0.89,7.75-1.37,9.74-1.44c0.27,0.72,0.5,1.51,0.67,2.37c2.1-0.96,3.81-1.62,5.13-1.98
		c1.32-0.36,2.57-0.54,3.74-0.54c5.46,0,8.2,3.27,8.2,9.8v10.11c0,0.72,0.05,1.2,0.16,1.44c0.1,0.24,0.39,0.5,0.88,0.77l2.47,1.44
		l-0.21,3.87h-14.23l-0.26-4.9l2.53-0.72v-9.74c0-1.55-0.05-2.63-0.15-3.25c-0.1-0.62-0.39-1.1-0.85-1.44
		c-0.46-0.34-1.28-0.52-2.45-0.52c-1.24,0-2.8,0.19-4.69,0.57v12.48c0,0.72,0.05,1.2,0.16,1.44c0.1,0.24,0.38,0.5,0.83,0.77
		l2.53,1.44l-0.21,3.87h-14.95L242.07,30.57z"/>
	<path class="st0" d="M278.8,32.48c-2.18-2.44-3.27-5.81-3.27-10.11c0-2.99,0.53-5.56,1.6-7.71c1.06-2.15,2.58-3.79,4.54-4.92
		c1.96-1.13,4.24-1.7,6.86-1.7c3.88,0,6.87,1.24,8.95,3.71c2.08,2.47,3.07,6,2.96,10.57l-15.67,2.89c0.48,1.44,1.16,2.5,2.04,3.17
		c0.88,0.67,2.04,1.01,3.48,1.01c1,0,2.18-0.15,3.56-0.44c1.37-0.29,2.77-0.7,4.18-1.21l1.19,5.1c-1.27,0.96-2.92,1.75-4.95,2.37
		c-2.03,0.62-4.07,0.93-6.14,0.93C284.09,36.14,280.98,34.92,278.8,32.48z M291.97,17.99c-0.07-1.31-0.44-2.26-1.11-2.86
		c-0.67-0.6-1.61-0.9-2.81-0.9c-1,0-1.94,0.14-2.83,0.41c-0.72,1.68-1.05,3.51-0.98,5.47L291.97,17.99z"/>
</g>
<path class="st0" d="M54.48,65.49l1.5-0.41v-7.9c0-0.34,0-0.61-0.07-0.68c-0.07-0.14-0.2-0.2-0.41-0.34l-1.09-0.61l0.14-1.7
	c1.02-0.14,2.04-0.27,3-0.34c0.95-0.07,1.97-0.14,3-0.14c1.5,0,2.66,0.14,3.61,0.48c0.89,0.34,1.57,0.82,1.97,1.5
	c0.41,0.68,0.61,1.57,0.61,2.72c0,1.43-0.54,2.59-1.57,3.4c-1.02,0.82-2.45,1.23-4.29,1.23l-1.16-0.07v1.57c0,0.34,0,0.54,0.07,0.61
	c0.07,0.07,0.14,0.2,0.34,0.27l1.29,0.75l-0.07,1.7h-6.81L54.48,65.49z M62.72,60.18c0.14-0.68,0.2-1.36,0.2-2.11
	c0-0.82-0.14-1.36-0.48-1.77c-0.34-0.34-0.82-0.54-1.5-0.54c-0.2,0-0.61,0-1.23,0.07v4.43c0.34,0.07,0.82,0.14,1.29,0.14
	C61.83,60.39,62.38,60.32,62.72,60.18z"/>
<path class="st0" d="M70.96,65.49l1.5-0.41v-7.9c0-0.34,0-0.61-0.07-0.68c-0.07-0.14-0.2-0.2-0.41-0.34l-1.09-0.61l0.14-1.7
	c2.04-0.27,4.09-0.48,5.99-0.48c1.5,0,2.72,0.14,3.61,0.48c0.89,0.27,1.57,0.75,1.97,1.36c0.41,0.61,0.61,1.43,0.61,2.52
	c0,0.89-0.2,1.63-0.68,2.25c-0.41,0.61-1.09,1.16-1.91,1.5l3.34,5.31v0.82h-3.75l-3.06-5.52h-0.89v2.32c0,0.34,0,0.54,0.07,0.61
	c0.07,0.07,0.14,0.2,0.34,0.27l0.89,0.54L77.5,67.6h-6.4L70.96,65.49z M79.2,59.5c0.14-0.48,0.2-1.09,0.2-1.77s-0.14-1.16-0.48-1.5
	c-0.27-0.27-0.82-0.41-1.5-0.41c-0.41,0-0.75,0-1.16,0.07v3.68c0.34,0.07,0.82,0.14,1.29,0.14C78.31,59.7,78.86,59.64,79.2,59.5z"/>
<path class="st0" d="M88.05,65.49l1.5-0.41v-7.97c0-0.34,0-0.61-0.07-0.68c-0.07-0.14-0.2-0.2-0.41-0.34l-1.02-0.61l0.07-1.84h11.24
	c0.07,1.43,0.14,2.86,0.14,4.22L97.93,58l-1.5-1.84l-3.13-0.07v3.4l4.43-0.34v3.2l-4.43-0.48v3.34l3.4-0.07l1.57-1.84l1.57,0.14
	c-0.07,1.43-0.14,2.86-0.34,4.22H88.05V65.49z"/>
<path class="st0" d="M104.05,67.13c0.07-1.36,0.2-2.66,0.34-3.81l1.57-0.34l1.02,1.77c0.82,0.27,1.57,0.41,2.18,0.41
	c0.2,0,0.68-0.07,1.43-0.2c0-0.27,0.07-0.48,0.07-0.54c0-0.34-0.07-0.61-0.14-0.75c-0.14-0.2-0.34-0.34-0.75-0.61
	c-0.34-0.2-1.02-0.54-2.04-0.95c-1.16-0.61-2.04-1.23-2.59-1.91c-0.54-0.68-0.82-1.43-0.82-2.38c0-1.43,0.48-2.52,1.43-3.34
	s2.32-1.23,3.95-1.23c0.82,0,1.63,0.07,2.45,0.2c0.82,0.14,1.5,0.41,2.11,0.68c0,0.75-0.07,1.7-0.2,2.86L114,57.87l-1.5,0.2
	l-1.57-2.04c-0.48-0.14-1.09-0.2-1.84-0.2c-0.48,0-0.82,0.07-1.09,0.14c-0.07,0.27-0.14,0.48-0.14,0.61c0,0.27,0.07,0.54,0.2,0.82
	c0.14,0.2,0.41,0.48,0.82,0.68c0.41,0.27,0.95,0.54,1.7,0.89c1.09,0.54,1.91,1.02,2.52,1.36c0.54,0.41,0.95,0.82,1.16,1.23
	c0.2,0.41,0.34,0.95,0.34,1.57c0,1.36-0.54,2.45-1.63,3.2c-1.09,0.82-2.59,1.16-4.49,1.16C107.19,67.81,105.62,67.6,104.05,67.13z"
	/>
<path class="st0" d="M119.17,67.54l-0.14-2.04l1.5-0.41v-7.9c0-0.34,0-0.61-0.07-0.68c-0.07-0.14-0.2-0.2-0.41-0.34l-1.09-0.61
	l0.14-1.7c2.25-0.27,4.15-0.41,5.79-0.41c1.97,0,3.4,0.27,4.29,0.89c0.89,0.61,1.36,1.5,1.36,2.72c0,0.61-0.07,1.16-0.27,1.63
	c-0.2,0.48-0.48,0.89-0.89,1.29c1.36,0.61,2.04,1.63,2.04,3c0,1.23-0.34,2.25-1.02,3c-0.68,0.75-1.7,1.23-3.06,1.5
	c-0.48,0.14-1.7,0.2-3.68,0.2C122.17,67.67,120.67,67.6,119.17,67.54z M126.93,57.46c0-0.61-0.14-1.02-0.41-1.29
	c-0.27-0.27-0.68-0.41-1.23-0.48c-0.34,0-0.75,0-1.09,0.07v3.47c0.2,0,0.54,0,0.89,0c0.54,0,1.09,0,1.57,0.07
	C126.87,58.96,126.93,58.34,126.93,57.46z M127.55,64.88c0.14-0.54,0.2-1.02,0.2-1.5c0-0.68-0.2-1.16-0.54-1.5
	c-0.34-0.27-0.95-0.41-1.84-0.41c-0.2,0-0.41,0-0.68,0.07h-0.48v3.4c0.48,0.07,1.02,0.14,1.63,0.14
	C126.66,65.08,127.21,65.02,127.55,64.88z"/>
<path class="st0" d="M137.22,65.56l1.77-0.48v-2.72l-3.81-6.06l-0.95-1.16l0.07-1.43h6.06l0.2,1.97l-1.36,0.34l2.18,3.68l1.77-3.06
	c0.07-0.07,0.07-0.2,0.07-0.27c0-0.14-0.07-0.27-0.27-0.34l-1.23-0.54l0.14-1.84h5.24l0.14,1.97l-0.82,0.48l-3.81,5.58v2.59
	c0,0.34,0,0.54,0.07,0.61c0.07,0.07,0.14,0.2,0.34,0.27l1.29,0.75l-0.07,1.63h-7.08L137.22,65.56z"/>
<path class="st0" d="M154.1,65.56l1.77-0.48V56.1l-1.77,0.14l-1.57,1.84l-1.5-0.14c0-1.16,0.07-2.59,0.14-4.36h12.94
	c0.14,1.77,0.14,3.2,0.14,4.36l-1.5,0.14l-1.57-1.84l-1.7-0.14v8.17c0,0.34,0,0.54,0.07,0.61c0.07,0.07,0.14,0.2,0.34,0.27
	l1.29,0.75l-0.07,1.63h-7.08L154.1,65.56z"/>
<path class="st0" d="M168.68,65.49l1.5-0.41v-7.97c0-0.34,0-0.61-0.07-0.68c-0.07-0.14-0.2-0.2-0.41-0.34l-1.02-0.61l0.07-1.84
	h11.24c0.07,1.43,0.14,2.86,0.14,4.22L178.55,58l-1.5-1.84l-3.13-0.07v3.4l4.43-0.34v3.2l-4.43-0.48v3.34l3.4-0.07l1.57-1.84
	l1.57,0.14c-0.07,1.43-0.14,2.86-0.34,4.22h-11.44L168.68,65.49z"/>
<path class="st0" d="M184.95,65.49l1.5-0.41v-7.9c0-0.34,0-0.61-0.07-0.68c-0.07-0.14-0.2-0.2-0.41-0.34l-1.09-0.61l0.14-1.7
	c2.04-0.27,4.09-0.48,5.99-0.48c1.5,0,2.72,0.14,3.61,0.48c0.89,0.27,1.57,0.75,1.97,1.36c0.41,0.61,0.61,1.43,0.61,2.52
	c0,0.89-0.2,1.63-0.68,2.25c-0.41,0.61-1.09,1.16-1.91,1.5l3.34,5.31v0.82h-3.81l-3.06-5.52h-0.89v2.32c0,0.34,0,0.54,0.07,0.61
	c0.07,0.07,0.14,0.2,0.34,0.27l0.89,0.54l-0.07,1.77h-6.4L184.95,65.49z M193.12,59.5c0.14-0.48,0.2-1.09,0.2-1.77
	s-0.14-1.16-0.48-1.5c-0.27-0.27-0.82-0.41-1.5-0.41c-0.41,0-0.75,0-1.16,0.07v3.68c0.34,0.07,0.82,0.14,1.29,0.14
	C192.24,59.7,192.78,59.64,193.12,59.5z"/>
<path class="st0" d="M201.91,65.49l1.5-0.41v-7.97c0-0.34,0-0.61-0.07-0.68c-0.07-0.14-0.2-0.2-0.41-0.34l-1.09-0.61l0.14-1.84h6.67
	l0.07,2.11l-1.5,0.41v8.1c0,0.34,0,0.54,0.07,0.61c0.07,0.07,0.2,0.2,0.41,0.27l1.09,0.61l-0.07,1.77h-6.61L201.91,65.49z"/>
<path class="st0" d="M212.73,65.77l0.61-0.41l4.83-11.71l3.54-0.34l4.15,11.17c0.14,0.34,0.2,0.61,0.27,0.68
	c0.07,0.14,0.14,0.27,0.34,0.48l0.34,0.48l-0.14,1.5h-5.79l-0.2-1.97l1.5-0.34l-0.68-2.11l-4.22,0.07l-0.48,1.29
	c-0.07,0.14-0.07,0.2-0.07,0.34c0,0.07,0,0.14,0.07,0.2c0.07,0.07,0.07,0.07,0.2,0.14l1.43,0.61l-0.2,1.84h-5.45L212.73,65.77z
	 M219.48,56.84l-1.36,3.95l2.66,0.14L219.48,56.84z"/>
<path class="st0" d="M234.46,58.75l0.34,5.45c0,0.34,0.07,0.54,0.14,0.61c0.07,0.07,0.2,0.2,0.34,0.34l1.09,0.75l-0.07,1.77h-5.38
	l-0.14-2.25l1.09-0.27l0.07-8.17c0-0.27,0-0.41-0.07-0.54c-0.07-0.07-0.14-0.2-0.27-0.34l-0.75-0.61l0.14-1.84h4.29l6.26,8.04
	l-0.27-4.63c0-0.34-0.07-0.54-0.14-0.61c-0.07-0.07-0.2-0.2-0.34-0.34l-1.09-0.68l0.07-1.77h5.31l0.07,2.11l-1.09,0.48l-0.07,11.24
	l-2.38,0.82L234.46,58.75z"/>
<path class="st0" d="M98.88,85.58c-1.16-1.29-1.7-3.13-1.7-5.45c0-1.5,0.27-2.79,0.82-3.88c0.54-1.09,1.36-1.91,2.38-2.52
	c1.02-0.54,2.25-0.89,3.68-0.89c1.63,0,3.27,0.34,4.97,1.09c-0.14,1.23-0.34,2.59-0.61,4.15l-1.57,0.14l-1.43-2.11
	c-0.61-0.2-1.29-0.27-2.04-0.27c-0.54,0-1.09,0.07-1.57,0.14c-0.2,0.41-0.41,1.02-0.54,1.7c-0.14,0.68-0.2,1.43-0.2,2.11
	c0,1.57,0.27,2.66,0.82,3.4c0.54,0.75,1.43,1.09,2.66,1.16c0.48,0,1.09-0.07,1.84-0.2c0.75-0.14,1.43-0.34,2.18-0.54l0.61,2.25
	c-0.75,0.48-1.57,0.89-2.59,1.16c-1.02,0.27-1.97,0.48-2.93,0.48C101.67,87.49,100.04,86.87,98.88,85.58z"/>
<path class="st0" d="M114.47,84.97l1.29-0.34v-7.97c0-0.34,0-0.61-0.07-0.68c-0.07-0.14-0.2-0.2-0.41-0.34l-0.89-0.48l0.07-1.97
	h6.47l0.14,2.11l-1.57,0.41v3l4.7-0.14v-1.91c0-0.34,0-0.61-0.07-0.68c-0.07-0.14-0.2-0.2-0.41-0.34l-1.02-0.61l0.14-1.91h6.33
	l0.07,2.18l-1.29,0.34v8.1c0,0.34,0,0.54,0.07,0.61c0.07,0.07,0.14,0.2,0.34,0.27l0.82,0.48l-0.07,1.91h-6.26l-0.14-2.11l1.43-0.41
	v-2.93l-4.7-0.2v2.45c0,0.34,0,0.54,0.07,0.61c0.07,0.07,0.2,0.2,0.41,0.27l1.09,0.61l-0.07,1.77h-6.4L114.47,84.97z"/>
<path class="st0" d="M136.33,85.85c-0.95-1.09-1.43-2.72-1.43-5.04v-4.09c0-0.34,0-0.61-0.07-0.68c-0.07-0.14-0.2-0.2-0.41-0.34
	l-0.68-0.41l0.07-2.04h6.47l0.14,2.04l-1.7,0.48V80c0,1.43,0.2,2.59,0.61,3.4c0.41,0.82,1.16,1.23,2.11,1.23
	c0.34,0,0.68-0.07,0.95-0.14c0.34-0.07,0.54-0.2,0.82-0.41c0.14-0.34,0.2-0.75,0.27-1.29c0.07-0.54,0.07-1.23,0.07-2.11v-3.95
	c0-0.34,0-0.61-0.07-0.68c-0.07-0.14-0.2-0.2-0.41-0.34l-1.02-0.61l0.14-1.91h6.13l0.14,2.25l-1.09,0.27v4.7
	c0,2.25-0.54,3.95-1.7,5.18c-1.16,1.23-2.72,1.84-4.83,1.84C138.78,87.42,137.28,86.87,136.33,85.85z"/>
<path class="st0" d="M153.08,85.04l1.5-0.41v-7.9c0-0.34,0-0.61-0.07-0.68c-0.07-0.14-0.2-0.2-0.41-0.34l-1.09-0.61l0.14-1.7
	c2.04-0.27,4.09-0.48,5.99-0.48c1.5,0,2.72,0.14,3.61,0.48c0.89,0.27,1.57,0.75,1.97,1.36c0.41,0.61,0.61,1.43,0.61,2.52
	c0,0.89-0.2,1.63-0.68,2.25c-0.41,0.61-1.09,1.16-1.91,1.5l3.34,5.31v0.82h-3.75l-3.06-5.52h-0.89v2.32c0,0.34,0,0.54,0.07,0.61
	c0.07,0.07,0.14,0.2,0.34,0.27l0.89,0.54l-0.07,1.77h-6.4L153.08,85.04z M161.32,79.11c0.14-0.48,0.2-1.09,0.2-1.77
	c0-0.68-0.14-1.16-0.48-1.5c-0.27-0.27-0.82-0.41-1.5-0.41c-0.41,0-0.75,0-1.16,0.07v3.68c0.34,0.07,0.82,0.14,1.29,0.14
	C160.44,79.32,160.98,79.25,161.32,79.11z"/>
<path class="st0" d="M172.01,85.58c-1.16-1.29-1.7-3.13-1.7-5.45c0-1.5,0.27-2.79,0.82-3.88c0.54-1.09,1.36-1.91,2.38-2.52
	c1.02-0.54,2.25-0.89,3.68-0.89c1.63,0,3.27,0.34,4.97,1.09c-0.14,1.23-0.34,2.59-0.61,4.15l-1.57,0.14l-1.43-2.11
	c-0.61-0.2-1.29-0.27-2.04-0.27c-0.54,0-1.09,0.07-1.57,0.14c-0.2,0.41-0.41,1.02-0.54,1.7c-0.14,0.68-0.2,1.43-0.2,2.11
	c0,1.57,0.27,2.66,0.82,3.4s1.43,1.09,2.66,1.16c0.48,0,1.09-0.07,1.84-0.2c0.75-0.14,1.43-0.34,2.18-0.54l0.61,2.25
	c-0.75,0.48-1.57,0.89-2.59,1.16c-1.02,0.27-1.97,0.48-2.93,0.48C174.74,87.49,173.17,86.87,172.01,85.58z"/>
<path class="st0" d="M187.61,84.97l1.29-0.34v-7.97c0-0.34,0-0.61-0.07-0.68c-0.07-0.14-0.2-0.2-0.41-0.34l-0.89-0.48l0.07-1.97
	h6.47l0.14,2.11l-1.57,0.41v3l4.7-0.14v-1.91c0-0.34,0-0.61-0.07-0.68c-0.07-0.14-0.2-0.2-0.41-0.34l-1.02-0.61l0.14-1.91h6.33
	l0.07,2.18l-1.29,0.34v8.1c0,0.34,0,0.54,0.07,0.61c0.07,0.07,0.14,0.2,0.34,0.27l0.82,0.48l-0.07,1.91h-6.26l-0.14-2.11l1.43-0.41
	v-2.93l-4.7-0.2v2.45c0,0.34,0,0.54,0.07,0.61c0.07,0.07,0.2,0.2,0.41,0.27l1.09,0.61l-0.07,1.77h-6.4L187.61,84.97z"/>
</svg>
