<!-- Generator: Adobe Illustrator 24.0.1, SVG Export Plug-In  -->
<svg version="1.1" xmlns="http://www.w3.org/2000/svg" xmlns:xlink="http://www.w3.org/1999/xlink" x="0px" y="0px"
	 width="13.977px" height="15.943px" viewBox="0 0 13.977 15.943" enable-background="new 0 0 13.977 15.943" xml:space="preserve">
<defs>
</defs>
<path fill="#373D72" d="M1.146,0h7.735C9.288,0,9.67,0.22,9.873,0.568l0.721,1.248l2.985,5.162l0.245,0.424
	c0.006,0.011,0.012,0.021,0.017,0.032c0.087,0.162,0.137,0.346,0.137,0.537c0,0.175-0.043,0.345-0.117,0.498
	c-0.001,0.002-0.002,0.004-0.002,0.005c-0.011,0.023-0.023,0.044-0.035,0.066l-0.245,0.422l-3.705,6.412
	c-0.203,0.35-0.585,0.569-0.992,0.569H1.146c-0.039,0-0.079-0.002-0.118-0.006c-0.099-0.01-0.196-0.032-0.285-0.067
	C0.308,15.708,0,15.289,0,14.798c0-0.203,0.056-0.399,0.154-0.569l0.853-1.487l0.561-0.975l0.049-0.09l0.902-1.56L2.6,9.971
	l0.504-0.87l0.135-0.232l0.049-0.09l0.425-0.736c0.026-0.044,0.026-0.099,0-0.143L3.32,7.221L3.239,7.074L3.104,6.842L2.6,5.973
	L2.572,5.92L2.519,5.826L2.295,5.438L2.288,5.425L1.617,4.266l-0.049-0.09L1.007,3.202L0.154,1.714C0.056,1.543,0,1.349,0,1.146
	c0-0.594,0.45-1.081,1.027-1.14C1.067,0.001,1.106,0,1.146,0z"/>
</svg>
