<!-- Generator: Adobe Illustrator 24.0.0, SVG Export Plug-In  -->
<svg version="1.1" xmlns="http://www.w3.org/2000/svg" xmlns:xlink="http://www.w3.org/1999/xlink" x="0px" y="0px"
	 width="56.435px" height="72.973px" viewBox="0 0 56.435 72.973" enable-background="new 0 0 56.435 72.973" xml:space="preserve">
<defs>
</defs>
<g>
	<path fill="#383D73" d="M56.435,27.554V54.94c0,1.436-0.777,2.788-2.011,3.51L30.232,72.428c-0.604,0.346-1.322,0.545-2.015,0.545
		c-0.718,0-1.407-0.199-2.011-0.545L2.015,58.45C0.777,57.728,0,56.376,0,54.94V27.554c0-2.243,1.812-4.055,4.055-4.055
		c0.718,0,1.411,0.203,2.015,0.545l5.263,3.02l3.451,1.985l0.279,0.152c2.277-2.539,5.284-4.41,8.698-5.301
		c0.921-0.228,1.58-1.09,1.58-2.04v-8.284c0-0.604-0.49-1.064-1.065-1.064l-3.337,0.055V6.155l3.426-0.203
		c0.574-0.03,1.005-0.486,1.005-1.065V0.545L31.208,0v4.427c0,0.604,0.52,1.094,1.124,1.065l3.941-0.228v7.076l-4,0.059
		c-0.574,0-1.035,0.486-1.035,1.065v8.427c0,0.946,0.634,1.812,1.555,2.04c4.516,1.208,8.343,4.228,10.67,8.229l-2.129,1.238
		c-1.926,1.119-4.313,0.832-5.981-0.634c-1.926-1.669-4.402-2.678-7.164-2.678c-2.691,0-5.158,0.98-7.071,2.606l0.025,0.013
		l3.079,1.783l0.891,0.52c0.946-0.52,2.011-0.807,3.164-0.807c2.501,0,4.659,1.352,5.838,3.367l-5.263,3.02
		c-0.346,0.203-0.807,0.203-1.149,0l-8.947-5.065l-3.4-1.96c-0.004,0-0.008,0-0.013-0.004l-2.425-1.398L9.204,30.03l-5.006-2.877
		c-0.084-0.059-0.173-0.059-0.228-0.059c-0.262,0-0.49,0.203-0.49,0.49v27.385c0,0.173,0.084,0.342,0.258,0.431L27.93,69.378
		c0.089,0.03,0.173,0.059,0.232,0.059c0.084,0,0.169-0.03,0.258-0.059L52.612,55.4c0.144-0.089,0.228-0.258,0.228-0.431V27.584
		c0-0.287-0.228-0.49-0.49-0.49c-0.084,0-0.169,0.03-0.228,0.059l-5.006,2.877c-0.604-1.035-1.293-2.015-2.04-2.936l5.263-3.02
		c0.604-0.342,1.322-0.545,2.011-0.545C54.623,23.499,56.435,25.311,56.435,27.554z"/>
	<path fill="#383D73" d="M15.342,33.557c-0.101-0.051-0.199-0.101-0.3-0.161l-2.125-1.238L15.342,33.557z"/>
	<path fill="#EF4B4D" d="M43.924,50.97l-2.272-1.294c-0.374-0.201-0.805-0.201-1.179,0L38.2,50.97v-9.09
		c0-1.927,1.036-3.739,2.704-4.689l2.992-1.726V50.97H43.924z"/>
</g>
</svg>
