<!-- Generator: Adobe Illustrator 24.0.1, SVG Export Plug-In  -->
<svg version="1.1" xmlns="http://www.w3.org/2000/svg" xmlns:xlink="http://www.w3.org/1999/xlink" x="0px" y="0px" width="216px"
	 height="34.66px" viewBox="0 0 216 34.66" style="enable-background:new 0 0 216 34.66;" xml:space="preserve">
<style type="text/css">
	.st0{fill:#ED1C24;}
	.st1{fill:#FFFFFF;}
</style>
<defs>
</defs>
<path class="st0" d="M0,34.66L0,0h216l-49.3,28.46c-7.03,4.06-15,6.19-23.11,6.19H0z"/>
<g>
	<path class="st1" d="M31.73,23.51c-1.31-1.49-1.97-3.59-1.97-6.31c0-1.73,0.32-3.22,0.95-4.48c0.63-1.26,1.55-2.22,2.75-2.88
		c1.2-0.66,2.62-1,4.27-1c1.87,0,3.8,0.42,5.78,1.27c-0.14,1.44-0.38,3.03-0.7,4.78l-1.82,0.12l-1.66-2.42
		c-0.7-0.21-1.48-0.31-2.33-0.31c-0.64,0-1.25,0.06-1.82,0.17c-0.26,0.5-0.46,1.15-0.62,1.97c-0.16,0.82-0.24,1.64-0.24,2.47
		c0,1.78,0.32,3.09,0.97,3.95c0.65,0.86,1.68,1.3,3.08,1.33c0.56,0,1.27-0.08,2.12-0.25s1.69-0.39,2.51-0.66l0.74,2.64
		c-0.83,0.54-1.84,0.99-3.01,1.33c-1.18,0.34-2.31,0.52-3.4,0.52C34.91,25.74,33.04,25,31.73,23.51z"/>
	<path class="st1" d="M46.45,24.13c-1-1.04-1.5-2.63-1.5-4.78c0-1.38,0.25-2.58,0.76-3.6c0.5-1.02,1.23-1.81,2.17-2.35
		c0.94-0.54,2.06-0.82,3.34-0.82c4.14,0,6.22,2.14,6.22,6.43c0,2.1-0.56,3.73-1.69,4.91s-2.71,1.76-4.74,1.76
		C48.97,25.69,47.45,25.17,46.45,24.13z M52.22,22.8c0.24-0.06,0.5-0.15,0.77-0.28c0.1-0.37,0.18-0.84,0.24-1.42
		c0.06-0.58,0.1-1.13,0.1-1.66c0-1.3-0.2-2.28-0.61-2.95c-0.41-0.67-1.01-1.01-1.81-1.01c-0.53,0-1.06,0.07-1.61,0.22
		c-0.11,0.24-0.2,0.63-0.26,1.16s-0.1,1.15-0.1,1.84c0,1.34,0.21,2.38,0.64,3.1c0.42,0.72,1.03,1.08,1.81,1.08
		C51.7,22.88,51.98,22.86,52.22,22.8z"/>
	<path class="st1" d="M58.61,23.08l1.49-0.43v-5.81c0-0.35-0.02-0.58-0.07-0.68c-0.05-0.1-0.18-0.22-0.38-0.35l-1.06-0.58l0.07-1.8
		l0.53-0.1c2.1-0.42,3.61-0.64,4.54-0.67c0.13,0.34,0.23,0.7,0.31,1.1c0.98-0.45,1.77-0.76,2.39-0.92c0.62-0.17,1.2-0.25,1.74-0.25
		c2.54,0,3.82,1.52,3.82,4.56v4.7c0,0.34,0.02,0.56,0.07,0.67c0.05,0.11,0.18,0.23,0.41,0.36l1.15,0.67l-0.1,1.8h-6.62l-0.12-2.28
		l1.18-0.34V18.2c0-0.72-0.02-1.22-0.07-1.51c-0.05-0.29-0.18-0.51-0.4-0.67c-0.22-0.16-0.6-0.24-1.14-0.24
		c-0.58,0-1.3,0.09-2.18,0.26v5.81c0,0.34,0.02,0.56,0.07,0.67c0.05,0.11,0.18,0.23,0.38,0.36l1.18,0.67l-0.1,1.8h-6.96L58.61,23.08
		z"/>
	<path class="st1" d="M74.45,23.08l1.49-0.43v-5.81c0-0.35-0.02-0.58-0.07-0.68c-0.05-0.1-0.18-0.22-0.38-0.35l-1.06-0.58l0.07-1.8
		l0.53-0.1c2.1-0.42,3.61-0.64,4.54-0.67c0.13,0.34,0.23,0.7,0.31,1.1c0.98-0.45,1.77-0.76,2.39-0.92c0.62-0.17,1.2-0.25,1.74-0.25
		c2.54,0,3.82,1.52,3.82,4.56v4.7c0,0.34,0.02,0.56,0.07,0.67c0.05,0.11,0.18,0.23,0.41,0.36l1.15,0.67l-0.1,1.8h-6.62l-0.12-2.28
		l1.18-0.34V18.2c0-0.72-0.02-1.22-0.07-1.51c-0.05-0.29-0.18-0.51-0.4-0.67c-0.22-0.16-0.6-0.24-1.14-0.24
		c-0.58,0-1.3,0.09-2.18,0.26v5.81c0,0.34,0.02,0.56,0.07,0.67c0.05,0.11,0.18,0.23,0.38,0.36l1.18,0.67l-0.1,1.8h-6.96L74.45,23.08
		z"/>
	<path class="st1" d="M91.55,23.96c-1.02-1.14-1.52-2.7-1.52-4.7c0-1.39,0.25-2.59,0.74-3.59c0.5-1,1.2-1.76,2.11-2.29
		c0.91-0.53,1.98-0.79,3.19-0.79c1.81,0,3.2,0.58,4.16,1.73c0.97,1.15,1.43,2.79,1.38,4.92l-7.3,1.34c0.22,0.67,0.54,1.16,0.95,1.48
		c0.41,0.31,0.95,0.47,1.62,0.47c0.46,0,1.02-0.07,1.66-0.2c0.64-0.14,1.29-0.32,1.94-0.56l0.55,2.38c-0.59,0.45-1.36,0.82-2.3,1.1
		c-0.94,0.29-1.9,0.43-2.86,0.43C94.01,25.67,92.56,25.1,91.55,23.96z M97.68,17.22c-0.03-0.61-0.2-1.05-0.52-1.33
		c-0.31-0.28-0.75-0.42-1.31-0.42c-0.46,0-0.9,0.06-1.32,0.19c-0.34,0.78-0.49,1.63-0.46,2.54L97.68,17.22z"/>
	<path class="st1" d="M104.73,23.98c-1.02-1.14-1.54-2.72-1.54-4.74c0-2.1,0.55-3.73,1.64-4.9c1.1-1.17,2.6-1.75,4.5-1.75
		c1.44,0,2.98,0.33,4.63,0.98c-0.03,0.46-0.1,1.08-0.22,1.84c-0.11,0.76-0.23,1.46-0.36,2.1l-1.61,0.14l-1.49-1.9
		c-0.4-0.08-0.85-0.12-1.34-0.12c-0.4,0-0.77,0.02-1.1,0.07c-0.37,0.7-0.55,1.7-0.55,2.98c0,1.31,0.23,2.28,0.7,2.92
		c0.46,0.63,1.17,0.95,2.11,0.95c0.45,0,0.99-0.07,1.63-0.2c0.64-0.14,1.3-0.33,1.97-0.59l0.58,2.4c-0.64,0.45-1.44,0.82-2.39,1.1
		c-0.95,0.29-1.9,0.43-2.84,0.43C107.2,25.69,105.76,25.12,104.73,23.98z"/>
	<path class="st1" d="M117.98,24.65c-0.67-0.7-1.01-1.75-1.01-3.18v-5.83h-1.68v-1.75l4.32-3.94l1.39,0.17v2.71h4.03v2.83H121v4.94
		c0,0.77,0.11,1.28,0.32,1.54c0.22,0.26,0.64,0.38,1.26,0.38c0.53,0,1.26-0.07,2.21-0.22l0.29,2.45c-0.58,0.27-1.22,0.5-1.93,0.67
		s-1.4,0.26-2.05,0.26C119.69,25.69,118.65,25.34,117.98,24.65z"/>
	<path class="st1" d="M127.44,9.01l3.17-0.38h1.13l-0.82,11.54h-2.5L127.44,9.01z M127.56,22.81l3.6-0.94l0.89,3.31l-3.58,0.96
		L127.56,22.81z"/>
</g>
<path class="st1" d="M11.05,9.29h7.8c0.41,0,0.8,0.22,1,0.57l0.73,1.26l3.01,5.21l0.25,0.43c0.01,0.01,0.01,0.02,0.02,0.03
	c0.09,0.16,0.14,0.35,0.14,0.54c0,0.18-0.04,0.35-0.12,0.5c0,0,0,0,0,0c-0.01,0.02-0.02,0.04-0.03,0.07l-0.25,0.43l-3.74,6.47
	c-0.2,0.35-0.59,0.57-1,0.57h-7.8c-0.04,0-0.08,0-0.12-0.01c-0.1-0.01-0.2-0.03-0.29-0.07c-0.44-0.16-0.75-0.59-0.75-1.08
	c0-0.2,0.06-0.4,0.16-0.57l0.86-1.5l0.57-0.98l0.05-0.09l0.91-1.57l0.08-0.15l0.51-0.88l0.14-0.23l0.05-0.09l0.43-0.74
	c0.03-0.04,0.03-0.1,0-0.14l-0.4-0.68l-0.08-0.15l-0.14-0.23l-0.51-0.88l-0.03-0.05l-0.05-0.1l-0.23-0.39l-0.01-0.01l-0.68-1.17
	l-0.05-0.09l-0.57-0.98l-0.86-1.5c-0.1-0.17-0.16-0.37-0.16-0.57c0-0.6,0.45-1.09,1.04-1.15C10.97,9.29,11.01,9.29,11.05,9.29z"/>
</svg>
