<!-- Generator: Adobe Illustrator 24.0.1, SVG Export Plug-In  -->
<svg version="1.1" xmlns="http://www.w3.org/2000/svg" xmlns:xlink="http://www.w3.org/1999/xlink" x="0px" y="0px"
	 width="53.009px" height="16.225px" viewBox="0 0 53.009 16.225" enable-background="new 0 0 53.009 16.225" xml:space="preserve">
<defs>
</defs>
<g>
	<path fill="#373D72" d="M2.727,0l5.232,13.059L13.192,0h2.736v16.006h-2.11V9.772l0.198-6.728L8.762,16.006H7.146L1.902,3.078
		l0.209,6.694v6.233H0V0H2.727z"/>
	<path fill="#373D72" d="M24.272,16.225c-1.612,0-2.924-0.529-3.936-1.588c-1.011-1.059-1.517-2.475-1.517-4.248v-0.375
		c0-1.18,0.226-2.232,0.676-3.16c0.451-0.927,1.081-1.652,1.891-2.176c0.81-0.524,1.688-0.787,2.633-0.787
		c1.547,0,2.749,0.51,3.606,1.528s1.286,2.478,1.286,4.376v0.846h-8.059c0.029,1.173,0.372,2.12,1.028,2.842
		c0.655,0.723,1.489,1.083,2.501,1.083c0.718,0,1.326-0.146,1.824-0.44c0.499-0.293,0.935-0.682,1.309-1.164l1.242,0.967
		C27.761,15.459,26.266,16.225,24.272,16.225z M24.02,5.563c-0.82,0-1.51,0.299-2.066,0.896S21.052,7.893,20.92,8.97h5.958V8.816
		c-0.059-1.033-0.337-1.834-0.835-2.402C25.544,5.846,24.87,5.563,24.02,5.563z"/>
	<path fill="#373D72" d="M33.188,4.111l0.065,1.494c0.909-1.143,2.097-1.715,3.563-1.715c2.514,0,3.781,1.418,3.803,4.255v7.86
		h-2.033V8.135c-0.008-0.857-0.203-1.492-0.588-1.902S37.014,5.617,36.2,5.617c-0.659,0-1.238,0.176-1.736,0.527
		c-0.499,0.352-0.887,0.813-1.166,1.385v8.477h-2.033V4.111H33.188z"/>
	<path fill="#373D72" d="M51.029,14.829c-0.791,0.931-1.953,1.396-3.484,1.396c-1.268,0-2.233-0.367-2.896-1.104
		c-0.663-0.737-0.999-1.827-1.006-3.271V4.111h2.033v7.684c0,1.803,0.733,2.705,2.199,2.705c1.554,0,2.587-0.58,3.1-1.738v-8.65
		h2.034v11.895h-1.935L51.029,14.829z"/>
</g>
</svg>
