<!-- Generator: Adobe Illustrator 24.0.1, SVG Export Plug-In  -->
<svg version="1.1" xmlns="http://www.w3.org/2000/svg" xmlns:xlink="http://www.w3.org/1999/xlink" x="0px" y="0px"
	 width="25.647px" height="29.255px" viewBox="0 0 25.647 29.255" enable-background="new 0 0 25.647 29.255" xml:space="preserve">
<defs>
</defs>
<path fill="#FFFFFF" d="M2.102,0h14.194c0.747,0,1.447,0.403,1.82,1.042l1.323,2.291l5.477,9.473l0.449,0.777
	c0.011,0.02,0.022,0.039,0.031,0.059c0.16,0.298,0.252,0.635,0.252,0.985c0,0.322-0.079,0.633-0.215,0.913
	c-0.002,0.004-0.004,0.007-0.004,0.009c-0.02,0.042-0.042,0.081-0.063,0.12l-0.449,0.775l-6.799,11.766
	c-0.372,0.642-1.073,1.045-1.82,1.045H2.102c-0.072,0-0.145-0.004-0.217-0.011c-0.182-0.018-0.359-0.059-0.523-0.123
	C0.565,28.824,0,28.055,0,27.153c0-0.372,0.103-0.731,0.282-1.045l1.566-2.728l1.029-1.789l0.09-0.164l1.655-2.862l0.149-0.269
	l0.924-1.596l0.247-0.425l0.09-0.164l0.78-1.351c0.048-0.081,0.048-0.182,0-0.263l-0.72-1.246l-0.149-0.269l-0.247-0.427
	L4.772,10.96l-0.053-0.096L4.623,10.69L4.211,9.979L4.198,9.955L2.967,7.828l-0.09-0.164L1.848,5.875L0.282,3.145
	C0.103,2.831,0,2.474,0,2.102c0-1.091,0.826-1.984,1.885-2.091C1.958,0.002,2.03,0,2.102,0z"/>
</svg>
