<!-- Generator: Adobe Illustrator 24.0.1, SVG Export Plug-In  -->
<svg version="1.1" xmlns="http://www.w3.org/2000/svg" xmlns:xlink="http://www.w3.org/1999/xlink" x="0px" y="0px"
	 width="300.44px" height="272.51px" viewBox="0 0 300.44 272.51" style="enable-background:new 0 0 300.44 272.51;"
	 xml:space="preserve">
<style type="text/css">
	.st0{fill:#373D72;}
	.st1{fill:#F04C4D;}
</style>
<defs>
</defs>
<g>
	<g>
		<path class="st0" d="M4.23,216.53C1.41,213.33,0,208.81,0,202.97c0-3.71,0.68-6.92,2.04-9.62c1.36-2.7,3.33-4.76,5.9-6.19
			c2.58-1.43,5.64-2.14,9.18-2.14c4.02,0,8.16,0.91,12.43,2.73c-0.31,3.09-0.81,6.51-1.5,10.26l-3.92,0.26l-3.56-5.21
			c-1.51-0.45-3.18-0.67-5-0.67c-1.38,0-2.68,0.12-3.92,0.36c-0.55,1.07-1,2.47-1.34,4.23c-0.34,1.75-0.52,3.52-0.52,5.31
			c0,3.82,0.7,6.64,2.09,8.48c1.39,1.84,3.6,2.79,6.63,2.86c1.2,0,2.72-0.18,4.56-0.54c1.84-0.36,3.63-0.83,5.39-1.42l1.6,5.67
			c-1.79,1.17-3.94,2.12-6.47,2.86c-2.53,0.74-4.96,1.11-7.3,1.11C11.07,221.32,7.05,219.73,4.23,216.53z"/>
		<path class="st0" d="M35.86,217.87c-2.15-2.23-3.22-5.65-3.22-10.26c0-2.96,0.54-5.53,1.62-7.73c1.08-2.2,2.64-3.88,4.67-5.05
			c2.03-1.17,4.42-1.75,7.17-1.75c8.9,0,13.35,4.61,13.35,13.82c0,4.5-1.21,8.02-3.63,10.54s-5.82,3.79-10.18,3.79
			C41.26,221.22,38.01,220.1,35.86,217.87z M48.26,215.01c0.52-0.12,1.07-0.32,1.65-0.59c0.21-0.79,0.38-1.8,0.52-3.04
			c0.14-1.24,0.21-2.42,0.21-3.56c0-2.78-0.44-4.9-1.31-6.34c-0.88-1.44-2.17-2.17-3.89-2.17c-1.13,0-2.29,0.15-3.45,0.46
			c-0.24,0.52-0.43,1.35-0.57,2.5c-0.14,1.15-0.21,2.47-0.21,3.94c0,2.89,0.46,5.1,1.37,6.65c0.91,1.55,2.21,2.32,3.89,2.32
			C47.14,215.19,47.74,215.13,48.26,215.01z"/>
		<path class="st0" d="M61.77,215.65l3.15-0.93V202.2c0-0.76-0.05-1.25-0.15-1.47c-0.1-0.22-0.38-0.47-0.82-0.75l-2.27-1.24
			l0.15-3.87c0.58-0.14,1.08-0.22,1.5-0.26c4.16-0.86,7.23-1.32,9.23-1.39c0.31,0.89,0.6,2.01,0.88,3.35
			c2.06-1.62,3.82-2.73,5.26-3.35h2.94c-0.03,1.31-0.12,2.72-0.26,4.25c-0.14,1.53-0.31,2.76-0.52,3.69
			c-1.24-0.07-2.15-0.1-2.73-0.1c-1.44,0-2.94,0.09-4.49,0.26v11.7c0,0.72,0.05,1.2,0.15,1.44c0.1,0.24,0.38,0.5,0.83,0.77
			l3.09,1.65l-0.21,3.66H62.02L61.77,215.65z"/>
		<path class="st0" d="M84.19,215.6l3.2-0.93V202.2c0-0.76-0.05-1.25-0.15-1.47c-0.1-0.22-0.38-0.47-0.82-0.75l-2.27-1.24l0.15-3.87
			l1.13-0.21c4.5-0.89,7.75-1.37,9.74-1.44c0.27,0.72,0.5,1.51,0.67,2.37c2.1-0.96,3.81-1.62,5.13-1.98
			c1.32-0.36,2.57-0.54,3.74-0.54c5.47,0,8.2,3.27,8.2,9.8v10.11c0,0.72,0.05,1.2,0.15,1.44c0.1,0.24,0.4,0.5,0.88,0.77l2.48,1.44
			l-0.21,3.87h-14.23l-0.26-4.9l2.53-0.72v-9.74c0-1.55-0.05-2.63-0.15-3.25c-0.1-0.62-0.39-1.1-0.85-1.44
			c-0.46-0.34-1.28-0.52-2.45-0.52c-1.24,0-2.8,0.19-4.69,0.57v12.48c0,0.72,0.05,1.2,0.15,1.44c0.1,0.24,0.38,0.5,0.83,0.77
			l2.53,1.44l-0.21,3.87H84.45L84.19,215.6z"/>
		<path class="st0" d="M120.93,217.51c-2.18-2.44-3.27-5.81-3.27-10.11c0-2.99,0.53-5.56,1.6-7.71c1.06-2.15,2.58-3.79,4.54-4.92
			c1.96-1.13,4.25-1.7,6.86-1.7c3.88,0,6.87,1.24,8.95,3.71c2.08,2.47,3.07,6,2.96,10.57l-15.67,2.89c0.48,1.44,1.16,2.5,2.04,3.17
			c0.88,0.67,2.04,1.01,3.48,1.01c1,0,2.18-0.15,3.56-0.44c1.37-0.29,2.77-0.7,4.18-1.21l1.19,5.1c-1.27,0.96-2.92,1.75-4.95,2.37
			c-2.03,0.62-4.07,0.93-6.14,0.93C126.21,221.17,123.11,219.95,120.93,217.51z M134.1,203.02c-0.07-1.31-0.44-2.26-1.11-2.86
			c-0.67-0.6-1.61-0.9-2.81-0.9c-1,0-1.94,0.14-2.84,0.41c-0.72,1.68-1.05,3.51-0.98,5.47L134.1,203.02z"/>
		<path class="st0" d="M144.88,215.65l3.15-0.93V202.2c0-0.76-0.05-1.25-0.15-1.47c-0.1-0.22-0.38-0.47-0.82-0.75l-2.27-1.24
			l0.15-3.87c0.58-0.14,1.08-0.22,1.5-0.26c4.16-0.86,7.23-1.32,9.23-1.39c0.31,0.89,0.6,2.01,0.88,3.35
			c2.06-1.62,3.82-2.73,5.26-3.35h2.94c-0.03,1.31-0.12,2.72-0.26,4.25c-0.14,1.53-0.31,2.76-0.52,3.69
			c-1.24-0.07-2.15-0.1-2.73-0.1c-1.44,0-2.94,0.09-4.49,0.26v11.7c0,0.72,0.05,1.2,0.15,1.44c0.1,0.24,0.38,0.5,0.83,0.77
			l3.09,1.65l-0.21,3.66h-15.47L144.88,215.65z"/>
		<path class="st0" d="M166.64,219.98c0.21-3.37,0.43-5.86,0.67-7.48l2.94-0.57l3.25,3.45c1.13,0.34,2.41,0.52,3.82,0.52
			c0.79,0,1.41-0.05,1.86-0.15c0.1-0.27,0.15-0.65,0.15-1.13c0-0.41-0.09-0.76-0.28-1.03c-0.19-0.27-0.61-0.6-1.26-0.98
			c-0.65-0.38-1.79-0.96-3.4-1.75c-2.03-1.07-3.58-2.02-4.64-2.86c-1.07-0.84-1.83-1.71-2.29-2.6c-0.46-0.89-0.7-1.96-0.7-3.2
			c0-2.75,1.02-4.93,3.07-6.55c2.04-1.62,4.82-2.42,8.33-2.42c1.44,0,2.96,0.16,4.56,0.49c1.6,0.33,3.03,0.77,4.31,1.31
			c0,2.23-0.16,4.73-0.46,7.48l-2.68,0.41l-3.45-3.71c-0.89-0.27-2.2-0.41-3.92-0.41c-0.28,0-0.83,0.03-1.65,0.1
			c-0.1,0.21-0.16,0.53-0.16,0.98c0,0.48,0.14,0.9,0.41,1.26c0.27,0.36,0.76,0.76,1.47,1.19c0.7,0.43,1.83,1.04,3.38,1.83
			c2.27,1.1,3.98,2.05,5.13,2.86c1.15,0.81,1.96,1.62,2.42,2.45c0.46,0.82,0.7,1.82,0.7,2.99c0,2.82-1.08,5.02-3.22,6.6
			c-2.15,1.58-5.11,2.37-8.89,2.37C173.36,221.43,170.21,220.95,166.64,219.98z"/>
		<path class="st0" d="M195.25,218.98c-1.44-1.5-2.17-3.77-2.17-6.83v-12.53h-3.61v-3.76l9.28-8.46l2.99,0.36v5.83h8.66v6.08h-8.66
			v10.62c0,1.65,0.23,2.75,0.7,3.3c0.46,0.55,1.37,0.82,2.71,0.82c1.13,0,2.71-0.15,4.74-0.46l0.62,5.26
			c-1.24,0.58-2.62,1.07-4.15,1.44c-1.53,0.38-3,0.57-4.41,0.57C198.93,221.22,196.7,220.47,195.25,218.98z"/>
		<path class="st0" d="M215.95,217.87c-2.15-2.23-3.22-5.65-3.22-10.26c0-2.96,0.54-5.53,1.62-7.73c1.08-2.2,2.64-3.88,4.67-5.05
			c2.03-1.17,4.42-1.75,7.17-1.75c8.9,0,13.35,4.61,13.35,13.82c0,4.5-1.21,8.02-3.63,10.54c-2.42,2.53-5.82,3.79-10.18,3.79
			C221.36,221.22,218.1,220.1,215.95,217.87z M228.35,215.01c0.52-0.12,1.07-0.32,1.65-0.59c0.21-0.79,0.38-1.8,0.52-3.04
			c0.14-1.24,0.21-2.42,0.21-3.56c0-2.78-0.44-4.9-1.31-6.34c-0.88-1.44-2.17-2.17-3.89-2.17c-1.13,0-2.29,0.15-3.46,0.46
			c-0.24,0.52-0.43,1.35-0.57,2.5c-0.14,1.15-0.21,2.47-0.21,3.94c0,2.89,0.46,5.1,1.37,6.65c0.91,1.55,2.21,2.32,3.89,2.32
			C227.23,215.19,227.84,215.13,228.35,215.01z"/>
		<path class="st0" d="M242.07,215.6l3.2-0.93V202.2c0-0.76-0.05-1.25-0.16-1.47c-0.1-0.22-0.38-0.47-0.82-0.75l-2.27-1.24
			l0.15-3.87l1.13-0.21c4.5-0.89,7.75-1.37,9.74-1.44c0.27,0.72,0.5,1.51,0.67,2.37c2.1-0.96,3.81-1.62,5.13-1.98
			c1.32-0.36,2.57-0.54,3.74-0.54c5.46,0,8.2,3.27,8.2,9.8v10.11c0,0.72,0.05,1.2,0.16,1.44c0.1,0.24,0.39,0.5,0.88,0.77l2.47,1.44
			l-0.21,3.87h-14.23l-0.26-4.9l2.53-0.72v-9.74c0-1.55-0.05-2.63-0.15-3.25c-0.1-0.62-0.39-1.1-0.85-1.44
			c-0.46-0.34-1.28-0.52-2.45-0.52c-1.24,0-2.8,0.19-4.69,0.57v12.48c0,0.72,0.05,1.2,0.16,1.44c0.1,0.24,0.38,0.5,0.83,0.77
			l2.53,1.44l-0.21,3.87h-14.95L242.07,215.6z"/>
		<path class="st0" d="M278.8,217.51c-2.18-2.44-3.27-5.81-3.27-10.11c0-2.99,0.53-5.56,1.6-7.71c1.06-2.15,2.58-3.79,4.54-4.92
			c1.96-1.13,4.24-1.7,6.86-1.7c3.88,0,6.87,1.24,8.95,3.71c2.08,2.47,3.07,6,2.96,10.57l-15.67,2.89c0.48,1.44,1.16,2.5,2.04,3.17
			c0.88,0.67,2.04,1.01,3.48,1.01c1,0,2.18-0.15,3.56-0.44c1.37-0.29,2.77-0.7,4.18-1.21l1.19,5.1c-1.27,0.96-2.92,1.75-4.95,2.37
			c-2.03,0.62-4.07,0.93-6.14,0.93C284.09,221.17,280.98,219.95,278.8,217.51z M291.97,203.02c-0.07-1.31-0.44-2.26-1.11-2.86
			c-0.67-0.6-1.61-0.9-2.81-0.9c-1,0-1.94,0.14-2.83,0.41c-0.72,1.68-1.05,3.51-0.98,5.47L291.97,203.02z"/>
	</g>
	<path class="st0" d="M217.91,65.23v64.83c0,3.4-1.84,6.6-4.76,8.31l-57.27,33.09c-1.43,0.82-3.13,1.29-4.77,1.29
		c-1.7,0-3.33-0.47-4.76-1.29l-57.27-33.09c-2.93-1.71-4.77-4.91-4.77-8.31V65.23c0-5.31,4.29-9.6,9.6-9.6
		c1.7,0,3.34,0.48,4.77,1.29l12.46,7.15l8.17,4.7l0.66,0.36c5.39-6.01,12.51-10.44,20.59-12.55c2.18-0.54,3.74-2.58,3.74-4.83V32.14
		c0-1.43-1.16-2.52-2.52-2.52l-7.9,0.13V14.57l8.11-0.48c1.36-0.07,2.38-1.15,2.38-2.52V1.29L158.19,0v10.48
		c0,1.43,1.23,2.59,2.66,2.52l9.33-0.54v16.75l-9.47,0.14c-1.36,0-2.45,1.15-2.45,2.52v19.95c0,2.24,1.5,4.29,3.68,4.83
		c10.69,2.86,19.75,10.01,25.26,19.48l-5.04,2.93c-4.56,2.65-10.21,1.97-14.16-1.5c-4.56-3.95-10.42-6.34-16.96-6.34
		c-6.37,0-12.21,2.32-16.74,6.17l0.06,0.03l7.29,4.22l2.11,1.23c2.24-1.23,4.76-1.91,7.49-1.91c5.92,0,11.03,3.2,13.82,7.97
		l-12.46,7.15c-0.82,0.48-1.91,0.48-2.72,0l-21.18-11.99l-8.05-4.64c-0.01,0-0.02,0-0.03-0.01l-5.74-3.31l-8.79-5.04l-11.85-6.81
		c-0.2-0.14-0.41-0.14-0.54-0.14c-0.62,0-1.16,0.48-1.16,1.16v64.83c0,0.41,0.2,0.81,0.61,1.02l57.27,33.09
		c0.21,0.07,0.41,0.14,0.55,0.14c0.2,0,0.4-0.07,0.61-0.14l57.27-33.09c0.34-0.21,0.54-0.61,0.54-1.02V65.3
		c0-0.68-0.54-1.16-1.16-1.16c-0.2,0-0.4,0.07-0.54,0.14l-11.85,6.81c-1.43-2.45-3.06-4.77-4.83-6.95l12.46-7.15
		c1.43-0.81,3.13-1.29,4.76-1.29C213.62,55.63,217.91,59.92,217.91,65.23z"/>
	<path class="st0" d="M120.63,79.44c-0.24-0.12-0.47-0.24-0.71-0.38l-5.03-2.93L120.63,79.44z"/>
	<path class="st1" d="M188.29,120.66l-5.38-3.06c-0.89-0.48-1.91-0.48-2.79,0l-5.38,3.06V99.14c0-4.56,2.45-8.85,6.4-11.1l7.08-4.09
		v36.7H188.29z"/>
	<path class="st0" d="M54.48,250.52l1.5-0.41v-7.9c0-0.34,0-0.61-0.07-0.68c-0.07-0.14-0.2-0.2-0.41-0.34l-1.09-0.61l0.14-1.7
		c1.02-0.14,2.04-0.27,3-0.34s1.97-0.14,3-0.14c1.5,0,2.66,0.14,3.61,0.48c0.89,0.34,1.57,0.82,1.97,1.5
		c0.41,0.68,0.61,1.57,0.61,2.72c0,1.43-0.54,2.59-1.57,3.4c-1.02,0.82-2.45,1.23-4.29,1.23l-1.16-0.07v1.57
		c0,0.34,0,0.54,0.07,0.61c0.07,0.07,0.14,0.2,0.34,0.27l1.29,0.75l-0.07,1.7h-6.81L54.48,250.52z M62.72,245.21
		c0.14-0.68,0.2-1.36,0.2-2.11c0-0.82-0.14-1.36-0.48-1.77c-0.34-0.34-0.82-0.54-1.5-0.54c-0.2,0-0.61,0-1.23,0.07v4.43
		c0.34,0.07,0.82,0.14,1.29,0.14C61.83,245.41,62.38,245.34,62.72,245.21z"/>
	<path class="st0" d="M70.96,250.52l1.5-0.41v-7.9c0-0.34,0-0.61-0.07-0.68c-0.07-0.14-0.2-0.2-0.41-0.34l-1.09-0.61l0.14-1.7
		c2.04-0.27,4.09-0.48,5.99-0.48c1.5,0,2.72,0.14,3.61,0.48c0.89,0.27,1.57,0.75,1.97,1.36c0.41,0.61,0.61,1.43,0.61,2.52
		c0,0.89-0.2,1.63-0.68,2.25c-0.41,0.61-1.09,1.16-1.91,1.5l3.34,5.31v0.82h-3.75l-3.06-5.52h-0.89v2.32c0,0.34,0,0.54,0.07,0.61
		c0.07,0.07,0.14,0.2,0.34,0.27l0.89,0.54l-0.07,1.77h-6.4L70.96,250.52z M79.2,244.53c0.14-0.48,0.2-1.09,0.2-1.77
		s-0.14-1.16-0.48-1.5c-0.27-0.27-0.82-0.41-1.5-0.41c-0.41,0-0.75,0-1.16,0.07v3.68c0.34,0.07,0.82,0.14,1.29,0.14
		C78.31,244.73,78.86,244.66,79.2,244.53z"/>
	<path class="st0" d="M88.05,250.52l1.5-0.41v-7.97c0-0.34,0-0.61-0.07-0.68c-0.07-0.14-0.2-0.2-0.41-0.34l-1.02-0.61l0.07-1.84
		h11.24c0.07,1.43,0.14,2.86,0.14,4.22l-1.57,0.14l-1.5-1.84l-3.13-0.07v3.4l4.43-0.34v3.2l-4.43-0.48v3.34l3.4-0.07l1.57-1.84
		l1.57,0.14c-0.07,1.43-0.14,2.86-0.34,4.22H88.05V250.52z"/>
	<path class="st0" d="M104.05,252.15c0.07-1.36,0.2-2.66,0.34-3.81l1.57-0.34l1.02,1.77c0.82,0.27,1.57,0.41,2.18,0.41
		c0.2,0,0.68-0.07,1.43-0.2c0-0.27,0.07-0.48,0.07-0.54c0-0.34-0.07-0.61-0.14-0.75c-0.14-0.2-0.34-0.34-0.75-0.61
		c-0.34-0.2-1.02-0.54-2.04-0.95c-1.16-0.61-2.04-1.23-2.59-1.91s-0.82-1.43-0.82-2.38c0-1.43,0.48-2.52,1.43-3.34
		s2.32-1.23,3.95-1.23c0.82,0,1.63,0.07,2.45,0.2c0.82,0.14,1.5,0.41,2.11,0.68c0,0.75-0.07,1.7-0.2,2.86l-0.07,0.89l-1.5,0.2
		l-1.57-2.04c-0.48-0.14-1.09-0.2-1.84-0.2c-0.48,0-0.82,0.07-1.09,0.14c-0.07,0.27-0.14,0.48-0.14,0.61c0,0.27,0.07,0.54,0.2,0.82
		c0.14,0.2,0.41,0.48,0.82,0.68c0.41,0.27,0.95,0.54,1.7,0.89c1.09,0.54,1.91,1.02,2.52,1.36c0.54,0.41,0.95,0.82,1.16,1.23
		c0.2,0.41,0.34,0.95,0.34,1.57c0,1.36-0.54,2.45-1.63,3.2c-1.09,0.82-2.59,1.16-4.49,1.16
		C107.19,252.83,105.62,252.63,104.05,252.15z"/>
	<path class="st0" d="M119.17,252.56l-0.14-2.04l1.5-0.41v-7.9c0-0.34,0-0.61-0.07-0.68c-0.07-0.14-0.2-0.2-0.41-0.34l-1.09-0.61
		l0.14-1.7c2.25-0.27,4.15-0.41,5.79-0.41c1.97,0,3.4,0.27,4.29,0.89c0.89,0.61,1.36,1.5,1.36,2.72c0,0.61-0.07,1.16-0.27,1.63
		c-0.2,0.48-0.48,0.89-0.89,1.29c1.36,0.61,2.04,1.63,2.04,3c0,1.23-0.34,2.25-1.02,3c-0.68,0.75-1.7,1.23-3.06,1.5
		c-0.48,0.14-1.7,0.2-3.68,0.2C122.17,252.7,120.67,252.63,119.17,252.56z M126.93,242.48c0-0.61-0.14-1.02-0.41-1.29
		s-0.68-0.41-1.23-0.48c-0.34,0-0.75,0-1.09,0.07v3.47c0.2,0,0.54,0,0.89,0c0.54,0,1.09,0,1.57,0.07
		C126.87,243.98,126.93,243.37,126.93,242.48z M127.55,249.91c0.14-0.54,0.2-1.02,0.2-1.5c0-0.68-0.2-1.16-0.54-1.5
		c-0.34-0.27-0.95-0.41-1.84-0.41c-0.2,0-0.41,0-0.68,0.07h-0.48v3.4c0.48,0.07,1.02,0.14,1.63,0.14
		C126.66,250.11,127.21,250.04,127.55,249.91z"/>
	<path class="st0" d="M137.22,250.59l1.77-0.48v-2.72l-3.81-6.06l-0.95-1.16l0.07-1.43h6.06l0.2,1.97l-1.36,0.34l2.18,3.68
		l1.77-3.06c0.07-0.07,0.07-0.2,0.07-0.27c0-0.14-0.07-0.27-0.27-0.34l-1.23-0.54l0.14-1.84h5.24l0.14,1.97l-0.82,0.48l-3.81,5.58
		v2.59c0,0.34,0,0.54,0.07,0.61c0.07,0.07,0.14,0.2,0.34,0.27l1.29,0.75l-0.07,1.63h-7.08L137.22,250.59z"/>
	<path class="st0" d="M154.1,250.59l1.77-0.48v-8.99l-1.77,0.14l-1.57,1.84l-1.5-0.14c0-1.16,0.07-2.59,0.14-4.36h12.94
		c0.14,1.77,0.14,3.2,0.14,4.36l-1.5,0.14l-1.57-1.84l-1.7-0.14v8.17c0,0.34,0,0.54,0.07,0.61c0.07,0.07,0.14,0.2,0.34,0.27
		l1.29,0.75l-0.07,1.63h-7.08L154.1,250.59z"/>
	<path class="st0" d="M168.68,250.52l1.5-0.41v-7.97c0-0.34,0-0.61-0.07-0.68c-0.07-0.14-0.2-0.2-0.41-0.34l-1.02-0.61l0.07-1.84
		h11.24c0.07,1.43,0.14,2.86,0.14,4.22l-1.57,0.14l-1.5-1.84l-3.13-0.07v3.4l4.43-0.34v3.2l-4.43-0.48v3.34l3.4-0.07l1.57-1.84
		l1.57,0.14c-0.07,1.43-0.14,2.86-0.34,4.22h-11.44L168.68,250.52z"/>
	<path class="st0" d="M184.95,250.52l1.5-0.41v-7.9c0-0.34,0-0.61-0.07-0.68c-0.07-0.14-0.2-0.2-0.41-0.34l-1.09-0.61l0.14-1.7
		c2.04-0.27,4.09-0.48,5.99-0.48c1.5,0,2.72,0.14,3.61,0.48c0.89,0.27,1.57,0.75,1.97,1.36c0.41,0.61,0.61,1.43,0.61,2.52
		c0,0.89-0.2,1.63-0.68,2.25c-0.41,0.61-1.09,1.16-1.91,1.5l3.34,5.31v0.82h-3.81l-3.06-5.52h-0.89v2.32c0,0.34,0,0.54,0.07,0.61
		c0.07,0.07,0.14,0.2,0.34,0.27l0.89,0.54l-0.07,1.77h-6.4L184.95,250.52z M193.12,244.53c0.14-0.48,0.2-1.09,0.2-1.77
		s-0.14-1.16-0.48-1.5c-0.27-0.27-0.82-0.41-1.5-0.41c-0.41,0-0.75,0-1.16,0.07v3.68c0.34,0.07,0.82,0.14,1.29,0.14
		C192.24,244.73,192.78,244.66,193.12,244.53z"/>
	<path class="st0" d="M201.91,250.52l1.5-0.41v-7.97c0-0.34,0-0.61-0.07-0.68c-0.07-0.14-0.2-0.2-0.41-0.34l-1.09-0.61l0.14-1.84
		h6.67l0.07,2.11l-1.5,0.41v8.1c0,0.34,0,0.54,0.07,0.61c0.07,0.07,0.2,0.2,0.41,0.27l1.09,0.61l-0.07,1.77h-6.61L201.91,250.52z"/>
	<path class="st0" d="M212.73,250.79l0.61-0.41l4.83-11.71l3.54-0.34l4.15,11.17c0.14,0.34,0.2,0.61,0.27,0.68
		c0.07,0.14,0.14,0.27,0.34,0.48l0.34,0.48l-0.14,1.5h-5.79l-0.2-1.97l1.5-0.34l-0.68-2.11l-4.22,0.07l-0.48,1.29
		c-0.07,0.14-0.07,0.2-0.07,0.34c0,0.07,0,0.14,0.07,0.2c0.07,0.07,0.07,0.07,0.2,0.14l1.43,0.61l-0.2,1.84h-5.45L212.73,250.79z
		 M219.48,241.87l-1.36,3.95l2.66,0.14L219.48,241.87z"/>
	<path class="st0" d="M234.46,243.78l0.34,5.45c0,0.34,0.07,0.54,0.14,0.61c0.07,0.07,0.2,0.2,0.34,0.34l1.09,0.75l-0.07,1.77h-5.38
		l-0.14-2.25l1.09-0.27l0.07-8.17c0-0.27,0-0.41-0.07-0.54c-0.07-0.07-0.14-0.2-0.27-0.34l-0.75-0.61l0.14-1.84h4.29l6.26,8.04
		l-0.27-4.63c0-0.34-0.07-0.54-0.14-0.61c-0.07-0.07-0.2-0.2-0.34-0.34l-1.09-0.68l0.07-1.77h5.31l0.07,2.11l-1.09,0.48l-0.07,11.24
		l-2.38,0.82L234.46,243.78z"/>
	<path class="st0" d="M98.88,270.61c-1.16-1.29-1.7-3.13-1.7-5.45c0-1.5,0.27-2.79,0.82-3.88c0.54-1.09,1.36-1.91,2.38-2.52
		c1.02-0.54,2.25-0.89,3.68-0.89c1.63,0,3.27,0.34,4.97,1.09c-0.14,1.23-0.34,2.59-0.61,4.15l-1.57,0.14l-1.43-2.11
		c-0.61-0.2-1.29-0.27-2.04-0.27c-0.54,0-1.09,0.07-1.57,0.14c-0.2,0.41-0.41,1.02-0.54,1.7c-0.14,0.68-0.2,1.43-0.2,2.11
		c0,1.57,0.27,2.66,0.82,3.4c0.54,0.75,1.43,1.09,2.66,1.16c0.48,0,1.09-0.07,1.84-0.2c0.75-0.14,1.43-0.34,2.18-0.54l0.61,2.25
		c-0.75,0.48-1.57,0.89-2.59,1.16s-1.97,0.48-2.93,0.48C101.67,272.51,100.04,271.9,98.88,270.61z"/>
	<path class="st0" d="M114.47,269.99l1.29-0.34v-7.97c0-0.34,0-0.61-0.07-0.68c-0.07-0.14-0.2-0.2-0.41-0.34l-0.89-0.48l0.07-1.97
		h6.47l0.14,2.11l-1.57,0.41v3l4.7-0.14v-1.91c0-0.34,0-0.61-0.07-0.68c-0.07-0.14-0.2-0.2-0.41-0.34l-1.02-0.61l0.14-1.91h6.33
		l0.07,2.18l-1.29,0.34v8.1c0,0.34,0,0.54,0.07,0.61c0.07,0.07,0.14,0.2,0.34,0.27l0.82,0.48l-0.07,1.91h-6.26l-0.14-2.11l1.43-0.41
		v-2.93l-4.7-0.2v2.45c0,0.34,0,0.54,0.07,0.61c0.07,0.07,0.2,0.2,0.41,0.27l1.09,0.61l-0.07,1.77h-6.4L114.47,269.99z"/>
	<path class="st0" d="M136.33,270.88c-0.95-1.09-1.43-2.72-1.43-5.04v-4.09c0-0.34,0-0.61-0.07-0.68c-0.07-0.14-0.2-0.2-0.41-0.34
		l-0.68-0.41l0.07-2.04h6.47l0.14,2.04l-1.7,0.48v4.22c0,1.43,0.2,2.59,0.61,3.4c0.41,0.82,1.16,1.23,2.11,1.23
		c0.34,0,0.68-0.07,0.95-0.14c0.34-0.07,0.54-0.2,0.82-0.41c0.14-0.34,0.2-0.75,0.27-1.29c0.07-0.54,0.07-1.23,0.07-2.11v-3.95
		c0-0.34,0-0.61-0.07-0.68c-0.07-0.14-0.2-0.2-0.41-0.34l-1.02-0.61l0.14-1.91h6.13l0.14,2.25l-1.09,0.27v4.7
		c0,2.25-0.54,3.95-1.7,5.18s-2.72,1.84-4.83,1.84C138.78,272.45,137.28,271.9,136.33,270.88z"/>
	<path class="st0" d="M153.08,270.06l1.5-0.41v-7.9c0-0.34,0-0.61-0.07-0.68c-0.07-0.14-0.2-0.2-0.41-0.34l-1.09-0.61l0.14-1.7
		c2.04-0.27,4.09-0.48,5.99-0.48c1.5,0,2.72,0.14,3.61,0.48c0.89,0.27,1.57,0.75,1.97,1.36c0.41,0.61,0.61,1.43,0.61,2.52
		c0,0.89-0.2,1.63-0.68,2.25c-0.41,0.61-1.09,1.16-1.91,1.5l3.34,5.31v0.82h-3.75l-3.06-5.52h-0.89v2.32c0,0.34,0,0.54,0.07,0.61
		c0.07,0.07,0.14,0.2,0.34,0.27l0.89,0.54l-0.07,1.77h-6.4L153.08,270.06z M161.32,264.14c0.14-0.48,0.2-1.09,0.2-1.77
		c0-0.68-0.14-1.16-0.48-1.5c-0.27-0.27-0.82-0.41-1.5-0.41c-0.41,0-0.75,0-1.16,0.07v3.68c0.34,0.07,0.82,0.14,1.29,0.14
		C160.44,264.34,160.98,264.27,161.32,264.14z"/>
	<path class="st0" d="M172.01,270.61c-1.16-1.29-1.7-3.13-1.7-5.45c0-1.5,0.27-2.79,0.82-3.88c0.54-1.09,1.36-1.91,2.38-2.52
		c1.02-0.54,2.25-0.89,3.68-0.89c1.63,0,3.27,0.34,4.97,1.09c-0.14,1.23-0.34,2.59-0.61,4.15l-1.57,0.14l-1.43-2.11
		c-0.61-0.2-1.29-0.27-2.04-0.27c-0.54,0-1.09,0.07-1.57,0.14c-0.2,0.41-0.41,1.02-0.54,1.7c-0.14,0.68-0.2,1.43-0.2,2.11
		c0,1.57,0.27,2.66,0.82,3.4s1.43,1.09,2.66,1.16c0.48,0,1.09-0.07,1.84-0.2c0.75-0.14,1.43-0.34,2.18-0.54l0.61,2.25
		c-0.75,0.48-1.57,0.89-2.59,1.16s-1.97,0.48-2.93,0.48C174.74,272.51,173.17,271.9,172.01,270.61z"/>
	<path class="st0" d="M187.61,269.99l1.29-0.34v-7.97c0-0.34,0-0.61-0.07-0.68c-0.07-0.14-0.2-0.2-0.41-0.34l-0.89-0.48l0.07-1.97
		h6.47l0.14,2.11l-1.57,0.41v3l4.7-0.14v-1.91c0-0.34,0-0.61-0.07-0.68c-0.07-0.14-0.2-0.2-0.41-0.34l-1.02-0.61l0.14-1.91h6.33
		l0.07,2.18l-1.29,0.34v8.1c0,0.34,0,0.54,0.07,0.61c0.07,0.07,0.14,0.2,0.34,0.27l0.82,0.48l-0.07,1.91h-6.26l-0.14-2.11l1.43-0.41
		v-2.93l-4.7-0.2v2.45c0,0.34,0,0.54,0.07,0.61c0.07,0.07,0.2,0.2,0.41,0.27l1.09,0.61l-0.07,1.77h-6.4L187.61,269.99z"/>
</g>
</svg>
