<!-- Generator: Adobe Illustrator 24.0.1, SVG Export Plug-In  -->
<svg version="1.1" xmlns="http://www.w3.org/2000/svg" xmlns:xlink="http://www.w3.org/1999/xlink" x="0px" y="0px" width="95.82px"
	 height="118.31px" viewBox="0 0 95.82 118.31" style="enable-background:new 0 0 95.82 118.31;" xml:space="preserve">
<style type="text/css">
	.st0{fill:#373D72;}
</style>
<defs>
</defs>
<path class="st0" d="M48.23,46.33l0.76,0.46h0.14l0.98,0.57l33.95,19.62c1.31,0.75,2.11,2.15,2.11,3.65v36.44
	c0,1.97-1.6,3.57-3.57,3.57h-19c-0.44,0-0.79-0.36-0.79-0.79V82.96c0-1.55-1.26-2.8-2.8-2.8H36.55c-1.55,0-2.8,1.26-2.8,2.8v26.89
	c0,0.44-0.36,0.79-0.79,0.79H13.97c-1.97,0-3.57-1.6-3.57-3.57V70.63c0-1.51,0.8-2.9,2.11-3.66l4.44-2.56l29.5-17.05L48.23,46.33
	 M48.28,38.44c-1.09,0-2.14,0.29-3.07,0.78c-0.06,0.03-0.12,0.06-0.18,0.1l-2.42,1.4l-29.5,17.05l-7.13,4.12
	c-1.99,1.16-3.25,3.34-3.25,5.67v44.2c0,0.23,0.01,0.45,0.03,0.68c0.33,3.3,3.12,5.87,6.51,5.87h28.34c2.1,0,3.81-1.7,3.81-3.81
	V89.46c0-0.9,0.73-1.64,1.64-1.64H53.5c0.9,0,1.64,0.73,1.64,1.64v25.04c0,2.1,1.7,3.81,3.81,3.81h28.34c2.81,0,5.2-1.76,6.13-4.24
	c0.2-0.51,0.33-1.06,0.38-1.63c0.02-0.22,0.03-0.45,0.03-0.68v-44.2c0-2.33-1.25-4.51-3.25-5.67L53.94,40.72l-2.41-1.4
	c-0.12-0.07-0.25-0.14-0.38-0.2c-0.01,0-0.01-0.01-0.03-0.01C50.25,38.69,49.28,38.44,48.28,38.44L48.28,38.44z"/>
<g>
	<path class="st0" d="M20.36,26.5h-3.51V14.25H3.49V26.5H0V0h3.49v11.39h13.36V0h3.51V26.5z"/>
	<path class="st0" d="M25.15,16.47c0-1.93,0.38-3.66,1.14-5.2s1.81-2.73,3.17-3.57c1.35-0.84,2.9-1.26,4.63-1.26
		c2.68,0,4.85,0.93,6.51,2.78c1.66,1.86,2.48,4.33,2.48,7.41v0.24c0,1.92-0.37,3.64-1.1,5.16s-1.78,2.71-3.15,3.56
		c-1.36,0.85-2.93,1.27-4.7,1.27c-2.67,0-4.83-0.93-6.49-2.78c-1.66-1.86-2.48-4.31-2.48-7.37L25.15,16.47L25.15,16.47z
		 M28.53,16.87c0,2.18,0.51,3.94,1.52,5.26s2.37,1.98,4.07,1.98c1.71,0,3.07-0.67,4.08-2.01s1.51-3.22,1.51-5.63
		c0-2.16-0.51-3.91-1.54-5.25c-1.02-1.34-2.39-2.01-4.08-2.01c-1.66,0-3,0.66-4.02,1.98C29.04,12.51,28.53,14.41,28.53,16.87z"/>
	<path class="st0" d="M50.46,6.81l0.09,2.18c1.44-1.7,3.39-2.55,5.84-2.55c2.75,0,4.63,1.06,5.62,3.17
		c0.66-0.95,1.51-1.71,2.56-2.29s2.29-0.87,3.72-0.87c4.32,0,6.51,2.29,6.59,6.86V26.5h-3.37v-13c0-1.41-0.32-2.46-0.96-3.16
		S68.83,9.3,67.31,9.3c-1.25,0-2.29,0.37-3.11,1.12s-1.3,1.75-1.44,3.01V26.5h-3.38V13.6c0-2.86-1.4-4.29-4.2-4.29
		c-2.21,0-3.72,0.94-4.53,2.82V26.5h-3.37V6.81H50.46z"/>
	<path class="st0" d="M88.13,26.86c-2.67,0-4.84-0.88-6.51-2.63s-2.51-4.1-2.51-7.03v-0.62c0-1.95,0.37-3.7,1.12-5.23
		s1.79-2.74,3.13-3.6c1.34-0.87,2.79-1.3,4.36-1.3c2.56,0,4.55,0.84,5.97,2.53s2.13,4.1,2.13,7.24v1.4H82.47
		c0.05,1.94,0.62,3.51,1.7,4.7c1.09,1.2,2.47,1.79,4.14,1.79c1.19,0,2.2-0.24,3.02-0.73s1.55-1.13,2.17-1.93l2.06,1.6
		C93.91,25.59,91.43,26.86,88.13,26.86z M87.71,9.21c-1.36,0-2.5,0.5-3.42,1.48c-0.92,0.99-1.49,2.38-1.71,4.16h9.86V14.6
		c-0.1-1.71-0.56-3.04-1.38-3.98C90.24,9.68,89.12,9.21,87.71,9.21z"/>
</g>
</svg>
