<!-- Generator: Adobe Illustrator 24.0.1, SVG Export Plug-In  -->
<svg version="1.1" xmlns="http://www.w3.org/2000/svg" xmlns:xlink="http://www.w3.org/1999/xlink" x="0px" y="0px" width="11.59px"
	 height="11.59px" viewBox="0 0 11.59 11.59" style="enable-background:new 0 0 11.59 11.59;" xml:space="preserve">
<style type="text/css">
	.st0{fill:#000080;}
</style>
<defs>
</defs>
<path class="st0" d="M3.58,11.15c-0.7-0.29-1.33-0.71-1.88-1.26S0.73,8.71,0.44,8.01S0,6.57,0,5.79s0.15-1.51,0.44-2.21
	S1.15,2.25,1.7,1.7s1.18-0.97,1.88-1.26S5.02,0,5.79,0s1.51,0.15,2.21,0.44S9.34,1.15,9.89,1.7s0.97,1.18,1.26,1.88
	s0.44,1.44,0.44,2.21s-0.15,1.51-0.44,2.21s-0.71,1.33-1.26,1.88s-1.18,0.97-1.88,1.26s-1.44,0.44-2.21,0.44S4.28,11.44,3.58,11.15z
	 M5.79,2.91c-0.27,0-0.47,0-0.6,0s-0.25,0-0.33,0.01S4.69,2.93,4.59,2.93c-0.3,0.02-0.54,0.06-0.71,0.13
	C3.69,3.13,3.52,3.25,3.36,3.4S3.09,3.73,3.02,3.92C2.95,4.09,2.9,4.33,2.89,4.63c0,0.1-0.01,0.19-0.01,0.27s0,0.19-0.01,0.33
	s0,0.34,0,0.6c0,0.27,0,0.47,0,0.6s0,0.25,0.01,0.33s0,0.17,0.01,0.27c0.02,0.3,0.06,0.54,0.13,0.71c0.07,0.19,0.18,0.36,0.34,0.52
	S3.69,8.53,3.88,8.6c0.17,0.07,0.41,0.12,0.71,0.13c0.1,0,0.19,0.01,0.27,0.01s0.19,0.01,0.33,0.01s0.34,0,0.6,0
	c0.27,0,0.47,0,0.6,0s0.25,0,0.33-0.01S6.9,8.74,7,8.74C7.3,8.72,7.53,8.68,7.71,8.6c0.19-0.07,0.36-0.18,0.52-0.34
	s0.27-0.33,0.34-0.52C8.63,7.57,8.68,7.34,8.7,7.04c0-0.1,0.01-0.19,0.01-0.27s0-0.19,0.01-0.33s0-0.34,0-0.6c0-0.26,0-0.46,0-0.6
	s0-0.25-0.01-0.33s0-0.17-0.01-0.27c-0.02-0.3-0.06-0.54-0.13-0.71C8.49,3.73,8.38,3.56,8.22,3.4S7.89,3.13,7.71,3.06
	C7.53,2.99,7.29,2.95,7,2.93c-0.1,0-0.19-0.01-0.28-0.01s-0.2-0.01-0.33-0.01S6.06,2.91,5.79,2.91z M5.53,3.44c0.05,0,0.11,0,0.16,0
	c0.03,0,0.06,0,0.1,0c0.26,0,0.45,0,0.59,0s0.24,0,0.32,0.01s0.17,0.01,0.27,0.01c0.27,0.02,0.46,0.05,0.54,0.1
	C7.65,3.6,7.76,3.68,7.85,3.77c0.1,0.09,0.17,0.21,0.22,0.33c0.05,0.09,0.08,0.27,0.1,0.54c0,0.1,0.01,0.19,0.01,0.27
	s0.01,0.19,0.01,0.32s0,0.33,0,0.59c0,0.26,0,0.46,0,0.59s0,0.24-0.01,0.32S8.17,6.92,8.17,7.01c-0.02,0.27-0.05,0.45-0.1,0.54
	C8.02,7.68,7.95,7.79,7.85,7.89c-0.09,0.1-0.21,0.17-0.33,0.22c-0.09,0.05-0.27,0.08-0.54,0.1c-0.1,0-0.19,0.01-0.27,0.01
	s-0.19,0-0.32,0.01s-0.33,0-0.59,0c-0.26,0-0.46,0-0.59,0s-0.24,0-0.32-0.01s-0.17,0-0.27-0.01c-0.27-0.02-0.45-0.05-0.54-0.1
	C3.94,8.06,3.83,7.99,3.73,7.89c-0.1-0.1-0.17-0.21-0.22-0.34c-0.05-0.09-0.08-0.27-0.1-0.54c0-0.1-0.01-0.19-0.01-0.27
	S3.4,6.55,3.4,6.42s0-0.33,0-0.59c0-0.26,0-0.45,0-0.59S3.4,5,3.4,4.92s0.01-0.17,0.01-0.27c0.02-0.27,0.05-0.46,0.1-0.54
	c0.05-0.13,0.12-0.24,0.22-0.33c0.1-0.1,0.21-0.17,0.34-0.22c0.09-0.05,0.27-0.08,0.54-0.1C4.7,3.45,4.78,3.44,4.85,3.44
	s0.16,0,0.26,0S5.35,3.44,5.53,3.44z M5.79,4.33c-0.41,0-0.77,0.15-1.06,0.44S4.29,5.42,4.29,5.83c0,0.42,0.15,0.77,0.44,1.06
	s0.65,0.44,1.06,0.44s0.77-0.15,1.06-0.44s0.44-0.65,0.44-1.06c0-0.41-0.15-0.77-0.44-1.06S6.21,4.33,5.79,4.33z M5.79,4.86
	c0.27,0,0.49,0.1,0.69,0.29s0.29,0.42,0.29,0.69c0,0.27-0.1,0.5-0.29,0.69S6.06,6.81,5.79,6.81c-0.27,0-0.5-0.1-0.69-0.29
	S4.82,6.1,4.82,5.83c0-0.27,0.1-0.49,0.29-0.69S5.53,4.86,5.79,4.86z M7.35,3.93c-0.1,0-0.18,0.03-0.25,0.1S7,4.18,7,4.27
	c0,0.1,0.03,0.18,0.1,0.25s0.15,0.1,0.25,0.1c0.09,0,0.17-0.03,0.24-0.1s0.1-0.15,0.1-0.25c0-0.09-0.03-0.17-0.1-0.24
	S7.45,3.93,7.35,3.93z"/>
</svg>
