<!-- Generator: Adobe Illustrator 24.0.1, SVG Export Plug-In  -->
<svg version="1.1" xmlns="http://www.w3.org/2000/svg" xmlns:xlink="http://www.w3.org/1999/xlink" x="0px" y="0px"
	 width="25.647px" height="29.255px" viewBox="0 0 25.647 29.255" enable-background="new 0 0 25.647 29.255" xml:space="preserve">
<defs>
</defs>
<path fill="#FFFFFF" d="M23.544,29.255H9.35c-0.747,0-1.447-0.403-1.82-1.042l-1.323-2.291L0.731,16.45l-0.449-0.777
	c-0.011-0.02-0.022-0.039-0.031-0.059C0.092,15.315,0,14.978,0,14.628c0-0.322,0.079-0.633,0.215-0.913
	c0.002-0.004,0.004-0.007,0.004-0.009c0.02-0.042,0.042-0.081,0.063-0.12l0.449-0.775L7.531,1.045C7.903,0.403,8.604,0,9.35,0
	h14.194c0.072,0,0.145,0.004,0.217,0.011c0.182,0.018,0.359,0.059,0.523,0.123c0.797,0.298,1.362,1.066,1.362,1.969
	c0,0.372-0.103,0.731-0.282,1.045l-1.566,2.728l-1.029,1.789l-0.09,0.164l-1.655,2.862l-0.149,0.269l-0.924,1.596l-0.247,0.425
	l-0.09,0.164l-0.78,1.351c-0.048,0.081-0.048,0.182,0,0.263l0.72,1.246l0.149,0.269l0.247,0.427l0.924,1.594l0.053,0.096
	l0.096,0.173l0.412,0.712l0.013,0.024l1.231,2.126l0.09,0.164l1.029,1.789l1.566,2.731c0.18,0.313,0.282,0.67,0.282,1.042
	c0,1.091-0.826,1.984-1.885,2.091C23.689,29.253,23.617,29.255,23.544,29.255z"/>
</svg>
