<!-- Generator: Adobe Illustrator 24.0.1, SVG Export Plug-In  -->
<svg version="1.1" xmlns="http://www.w3.org/2000/svg" xmlns:xlink="http://www.w3.org/1999/xlink" x="0px" y="0px" width="11.59px"
	 height="11.59px" viewBox="0 0 11.59 11.59" style="enable-background:new 0 0 11.59 11.59;" xml:space="preserve">
<style type="text/css">
	.st0{fill:#000080;}
</style>
<defs>
</defs>
<path class="st0" d="M3.58,11.15c-0.7-0.29-1.33-0.71-1.88-1.26S0.73,8.71,0.44,8.01S0,6.57,0,5.79s0.15-1.51,0.44-2.21
	S1.15,2.25,1.7,1.7s1.18-0.97,1.88-1.26S5.02,0,5.79,0s1.51,0.15,2.21,0.44S9.34,1.15,9.89,1.7s0.97,1.18,1.26,1.88
	s0.44,1.44,0.44,2.21s-0.15,1.51-0.44,2.21s-0.71,1.33-1.26,1.88s-1.18,0.97-1.88,1.26s-1.44,0.44-2.21,0.44S4.28,11.44,3.58,11.15z
	 M4.66,8.27c0.87,0,1.64-0.28,2.31-0.84C7.46,7,7.8,6.48,8.02,5.89c0.14-0.4,0.21-0.78,0.21-1.14V4.54C8.3,4.5,8.41,4.4,8.57,4.24
	C8.69,4.1,8.79,3.99,8.85,3.89H8.85c-0.32,0.13-0.55,0.2-0.7,0.2V4.08c0.05-0.03,0.14-0.1,0.26-0.21c0.13-0.16,0.22-0.32,0.27-0.48
	c-0.16,0.1-0.33,0.18-0.5,0.23C8.01,3.67,7.91,3.7,7.89,3.7C7.61,3.44,7.3,3.31,6.97,3.31S6.35,3.43,6.09,3.67
	C5.84,3.91,5.71,4.21,5.71,4.56c0,0.09,0.01,0.18,0.04,0.29c-0.1,0-0.28-0.02-0.55-0.06C4.74,4.66,4.34,4.5,4,4.28
	C3.73,4.12,3.45,3.87,3.16,3.53c-0.11,0.21-0.16,0.41-0.16,0.6c0,0.31,0.1,0.59,0.29,0.84c0.1,0.11,0.18,0.19,0.25,0.22v0.01
	c-0.17,0-0.35-0.05-0.55-0.15c0,0.35,0.13,0.66,0.38,0.91C3.52,6.11,3.67,6.2,3.8,6.25c0.1,0.03,0.16,0.05,0.18,0.05
	c0,0.01-0.05,0.02-0.14,0.04H3.69H3.64c-0.06,0-0.14-0.01-0.23-0.02c0.11,0.29,0.28,0.52,0.53,0.67c0.21,0.13,0.43,0.2,0.65,0.2
	c-0.13,0.1-0.25,0.18-0.36,0.23c-0.39,0.2-0.77,0.3-1.16,0.3c-0.14,0-0.25-0.01-0.33-0.02C3.32,8.09,3.96,8.27,4.66,8.27z"/>
</svg>
