<!-- Generator: Adobe Illustrator 24.0.1, SVG Export Plug-In  -->
<svg version="1.1" xmlns="http://www.w3.org/2000/svg" xmlns:xlink="http://www.w3.org/1999/xlink" x="0px" y="0px"
	 width="183.974px" height="53.573px" viewBox="0 0 183.974 53.573" enable-background="new 0 0 183.974 53.573"
	 xml:space="preserve">
<defs>
</defs>
<g>
	<g>
		<g>
			<path fill="#373D72" d="M2.589,19.291C0.863,17.333,0,14.566,0,10.988c0-2.273,0.415-4.236,1.247-5.889
				C2.078,3.447,3.283,2.184,4.862,1.31C6.441,0.437,8.313,0,10.482,0c2.462,0,4.998,0.558,7.609,1.674
				c-0.19,1.894-0.495,3.989-0.916,6.283l-2.4,0.158l-2.179-3.189c-0.926-0.274-1.947-0.411-3.062-0.411
				c-0.842,0-1.641,0.074-2.4,0.221c-0.336,0.652-0.61,1.515-0.82,2.589c-0.211,1.074-0.316,2.158-0.316,3.252
				c0,2.336,0.426,4.068,1.278,5.193c0.853,1.127,2.205,1.71,4.058,1.752c0.736,0,1.668-0.111,2.794-0.331
				c1.126-0.221,2.226-0.51,3.299-0.869l0.979,3.473c-1.095,0.716-2.415,1.3-3.962,1.752c-1.547,0.452-3.036,0.679-4.468,0.679
				C6.777,22.227,4.314,21.248,2.589,19.291z"/>
		</g>
		<g>
			<path fill="#373D72" d="M21.958,20.112c-1.316-1.368-1.973-3.462-1.973-6.283c0-1.81,0.332-3.389,0.994-4.736
				c0.664-1.347,1.615-2.378,2.858-3.094c1.241-0.715,2.704-1.073,4.388-1.073c5.451,0,8.177,2.82,8.177,8.461
				c0,2.758-0.742,4.91-2.226,6.457c-1.484,1.547-3.563,2.32-6.236,2.32C25.268,22.164,23.273,21.48,21.958,20.112z M29.551,18.359
				c0.315-0.073,0.652-0.194,1.01-0.363c0.126-0.484,0.231-1.105,0.316-1.863c0.084-0.758,0.126-1.484,0.126-2.179
				c0-1.705-0.268-2.999-0.805-3.883c-0.536-0.884-1.332-1.326-2.384-1.326c-0.694,0-1.4,0.094-2.115,0.284
				c-0.147,0.316-0.264,0.827-0.347,1.532c-0.084,0.705-0.126,1.51-0.126,2.415c0,1.768,0.279,3.126,0.837,4.073
				c0.558,0.947,1.352,1.421,2.384,1.421C28.866,18.47,29.235,18.434,29.551,18.359z"/>
		</g>
		<g>
			<path fill="#373D72" d="M37.823,18.754l1.926-0.569v-7.672c0-0.463-0.031-0.763-0.095-0.9c-0.063-0.137-0.231-0.289-0.505-0.458
				L37.76,8.398l0.094-2.368c0.358-0.084,0.664-0.137,0.916-0.158c2.546-0.526,4.431-0.81,5.651-0.852
				c0.19,0.548,0.369,1.231,0.537,2.052c1.263-0.989,2.336-1.674,3.22-2.052h1.8c-0.021,0.8-0.074,1.668-0.158,2.605
				c-0.085,0.937-0.19,1.689-0.316,2.257c-0.758-0.042-1.315-0.063-1.673-0.063c-0.885,0-1.8,0.053-2.747,0.158v7.167
				c0,0.442,0.031,0.737,0.095,0.884c0.063,0.147,0.231,0.305,0.505,0.473l1.894,1.01l-0.126,2.242H37.98L37.823,18.754z"/>
		</g>
		<g>
			<path fill="#373D72" d="M51.557,18.723l1.957-0.568v-7.641c0-0.463-0.031-0.763-0.095-0.9c-0.063-0.137-0.231-0.289-0.505-0.458
				l-1.389-0.758l0.094-2.368l0.695-0.126c2.757-0.547,4.746-0.842,5.967-0.884c0.169,0.442,0.305,0.927,0.411,1.452
				c1.283-0.589,2.331-0.994,3.141-1.216c0.81-0.221,1.574-0.331,2.289-0.331c3.347,0,5.021,2,5.021,5.999v6.188
				c0,0.442,0.031,0.737,0.094,0.884c0.064,0.147,0.242,0.305,0.537,0.474l1.515,0.884l-0.126,2.368h-8.713l-0.159-2.999
				l1.547-0.442v-5.967c0-0.947-0.031-1.61-0.095-1.989c-0.063-0.379-0.237-0.674-0.521-0.884c-0.284-0.21-0.784-0.316-1.499-0.316
				c-0.758,0-1.716,0.116-2.873,0.347v7.641c0,0.442,0.031,0.737,0.095,0.884c0.063,0.147,0.231,0.305,0.505,0.474l1.547,0.884
				l-0.126,2.368h-9.156L51.557,18.723z"/>
		</g>
		<g>
			<path fill="#373D72" d="M74.051,19.891c-1.336-1.494-2.004-3.557-2.004-6.188c0-1.831,0.326-3.404,0.979-4.72
				c0.652-1.315,1.579-2.32,2.778-3.015c1.2-0.695,2.599-1.042,4.199-1.042c2.379,0,4.204,0.758,5.479,2.273
				c1.273,1.515,1.878,3.673,1.815,6.472l-9.599,1.768c0.295,0.884,0.711,1.531,1.248,1.942c0.536,0.411,1.247,0.616,2.131,0.616
				c0.611,0,1.336-0.089,2.179-0.268s1.695-0.426,2.557-0.742l0.726,3.126c-0.779,0.589-1.789,1.074-3.031,1.452
				s-2.494,0.568-3.757,0.568C77.287,22.132,75.388,21.385,74.051,19.891z M82.118,11.019c-0.042-0.799-0.268-1.384-0.679-1.752
				c-0.41-0.368-0.984-0.552-1.721-0.552c-0.611,0-1.19,0.084-1.736,0.253c-0.442,1.032-0.642,2.147-0.6,3.347L82.118,11.019z"/>
		</g>
		<g>
			<path fill="#373D72" d="M88.717,18.754l1.926-0.569v-7.672c0-0.463-0.031-0.763-0.095-0.9c-0.063-0.137-0.231-0.289-0.505-0.458
				l-1.389-0.758l0.094-2.368c0.358-0.084,0.664-0.137,0.916-0.158c2.546-0.526,4.431-0.81,5.651-0.852
				c0.19,0.548,0.369,1.231,0.537,2.052c1.263-0.989,2.336-1.674,3.22-2.052h1.8c-0.021,0.8-0.074,1.668-0.158,2.605
				c-0.085,0.937-0.19,1.689-0.316,2.257c-0.758-0.042-1.315-0.063-1.673-0.063c-0.885,0-1.8,0.053-2.747,0.158v7.167
				c0,0.442,0.031,0.737,0.095,0.884c0.063,0.147,0.231,0.305,0.505,0.473l1.894,1.01l-0.126,2.242h-9.472L88.717,18.754z"/>
		</g>
		<g>
			<path fill="#373D72" d="M102.04,21.406c0.126-2.062,0.264-3.588,0.411-4.578l1.799-0.347l1.99,2.115
				c0.695,0.211,1.473,0.316,2.336,0.316c0.484,0,0.863-0.031,1.137-0.094c0.063-0.168,0.094-0.4,0.094-0.695
				c0-0.253-0.058-0.463-0.173-0.631c-0.116-0.168-0.374-0.368-0.774-0.6c-0.4-0.231-1.094-0.589-2.084-1.074
				c-1.242-0.652-2.189-1.236-2.841-1.752c-0.652-0.516-1.121-1.047-1.405-1.594c-0.284-0.547-0.426-1.2-0.426-1.957
				c0-1.684,0.626-3.02,1.878-4.01c1.252-0.989,2.953-1.484,5.099-1.484c0.885,0,1.815,0.1,2.794,0.3
				c0.979,0.2,1.858,0.469,2.637,0.805c0,1.368-0.095,2.895-0.284,4.578l-1.642,0.253l-2.115-2.273
				c-0.547-0.169-1.347-0.253-2.4-0.253c-0.169,0-0.505,0.021-1.01,0.063c-0.064,0.127-0.095,0.327-0.095,0.6
				c0,0.295,0.084,0.552,0.253,0.774s0.468,0.463,0.899,0.726c0.431,0.264,1.122,0.637,2.068,1.121
				c1.39,0.674,2.437,1.258,3.142,1.752c0.705,0.495,1.2,0.995,1.485,1.5c0.284,0.505,0.426,1.116,0.426,1.831
				c0,1.726-0.658,3.073-1.973,4.041c-1.316,0.968-3.131,1.452-5.446,1.452C106.154,22.29,104.228,21.995,102.04,21.406z"/>
		</g>
		<g>
			<path fill="#373D72" d="M119.563,20.79c-0.884-0.916-1.326-2.31-1.326-4.183V8.935h-2.21V6.631l5.683-5.178l1.831,0.221v3.568
				h5.303v3.725h-5.303v6.504c0,1.01,0.142,1.685,0.426,2.021c0.285,0.337,0.837,0.505,1.658,0.505c0.695,0,1.662-0.094,2.905-0.284
				l0.379,3.22c-0.758,0.358-1.605,0.653-2.542,0.884c-0.937,0.231-1.837,0.347-2.699,0.347
				C121.815,22.164,120.447,21.706,119.563,20.79z"/>
		</g>
		<g>
			<path fill="#373D72" d="M132.239,20.112c-1.316-1.368-1.973-3.462-1.973-6.283c0-1.81,0.332-3.389,0.994-4.736
				c0.664-1.347,1.615-2.378,2.858-3.094c1.241-0.715,2.704-1.073,4.388-1.073c5.451,0,8.177,2.82,8.177,8.461
				c0,2.758-0.742,4.91-2.226,6.457c-1.484,1.547-3.563,2.32-6.236,2.32C135.549,22.164,133.554,21.48,132.239,20.112z
				 M139.832,18.359c0.315-0.073,0.652-0.194,1.01-0.363c0.126-0.484,0.231-1.105,0.316-1.863c0.084-0.758,0.126-1.484,0.126-2.179
				c0-1.705-0.268-2.999-0.805-3.883c-0.536-0.884-1.332-1.326-2.384-1.326c-0.694,0-1.4,0.094-2.115,0.284
				c-0.147,0.316-0.264,0.827-0.347,1.532c-0.084,0.705-0.126,1.51-0.126,2.415c0,1.768,0.279,3.126,0.837,4.073
				c0.558,0.947,1.352,1.421,2.384,1.421C139.147,18.47,139.516,18.434,139.832,18.359z"/>
		</g>
		<g>
			<path fill="#373D72" d="M148.229,18.723l1.957-0.568v-7.641c0-0.463-0.031-0.763-0.095-0.9c-0.063-0.137-0.231-0.289-0.505-0.458
				l-1.389-0.758l0.094-2.368l0.695-0.126c2.757-0.547,4.746-0.842,5.967-0.884c0.169,0.442,0.305,0.927,0.411,1.452
				c1.283-0.589,2.331-0.994,3.141-1.216c0.81-0.221,1.574-0.331,2.289-0.331c3.347,0,5.021,2,5.021,5.999v6.188
				c0,0.442,0.031,0.737,0.094,0.884c0.064,0.147,0.242,0.305,0.537,0.474l1.515,0.884l-0.126,2.368h-8.713l-0.158-2.999
				l1.547-0.442v-5.967c0-0.947-0.031-1.61-0.095-1.989c-0.063-0.379-0.237-0.674-0.521-0.884c-0.284-0.21-0.784-0.316-1.499-0.316
				c-0.758,0-1.716,0.116-2.873,0.347v7.641c0,0.442,0.031,0.737,0.095,0.884c0.063,0.147,0.231,0.305,0.505,0.474l1.547,0.884
				l-0.126,2.368h-9.156L148.229,18.723z"/>
		</g>
		<g>
			<path fill="#373D72" d="M170.724,19.891c-1.336-1.494-2.004-3.557-2.004-6.188c0-1.831,0.326-3.404,0.979-4.72
				c0.652-1.315,1.579-2.32,2.778-3.015c1.2-0.695,2.599-1.042,4.199-1.042c2.378,0,4.204,0.758,5.479,2.273
				c1.273,1.515,1.878,3.673,1.815,6.472l-9.599,1.768c0.295,0.884,0.711,1.531,1.248,1.942c0.536,0.411,1.247,0.616,2.131,0.616
				c0.611,0,1.336-0.089,2.179-0.268s1.695-0.426,2.557-0.742l0.726,3.126c-0.779,0.589-1.789,1.074-3.031,1.452
				c-1.242,0.379-2.494,0.568-3.757,0.568C173.961,22.132,172.061,21.385,170.724,19.891z M178.791,11.019
				c-0.042-0.799-0.268-1.384-0.679-1.752c-0.41-0.368-0.984-0.552-1.721-0.552c-0.611,0-1.19,0.084-1.736,0.253
				c-0.442,1.032-0.642,2.147-0.6,3.347L178.791,11.019z"/>
		</g>
	</g>
	<g>
		<path fill="#373D72" d="M33.36,40.105l0.917-0.25v-4.837c0-0.208,0-0.375-0.042-0.417c-0.042-0.083-0.125-0.125-0.25-0.208
			l-0.667-0.375l0.083-1.042c0.625-0.083,1.251-0.167,1.835-0.208c0.584-0.042,1.209-0.083,1.835-0.083
			c0.917,0,1.626,0.083,2.21,0.292c0.542,0.208,0.959,0.5,1.209,0.917c0.25,0.417,0.375,0.959,0.375,1.668
			c0,0.876-0.334,1.585-0.959,2.085c-0.625,0.5-1.501,0.751-2.627,0.751l-0.709-0.042v0.959c0,0.208,0,0.334,0.042,0.375
			c0.042,0.042,0.083,0.125,0.208,0.167l0.792,0.459l-0.042,1.042h-4.17L33.36,40.105z M38.406,36.852
			c0.083-0.417,0.125-0.834,0.125-1.293c0-0.5-0.083-0.834-0.292-1.084c-0.208-0.208-0.5-0.334-0.917-0.334
			c-0.125,0-0.375,0-0.751,0.042v2.71c0.208,0.042,0.5,0.083,0.792,0.083C37.864,36.978,38.197,36.936,38.406,36.852z"/>
	</g>
	<g>
		<path fill="#373D72" d="M43.451,40.105l0.917-0.25v-4.837c0-0.208,0-0.375-0.042-0.417c-0.042-0.083-0.125-0.125-0.25-0.208
			l-0.667-0.375l0.083-1.042c1.251-0.167,2.502-0.292,3.669-0.292c0.917,0,1.668,0.083,2.21,0.292
			c0.542,0.167,0.959,0.459,1.209,0.834s0.375,0.876,0.375,1.543c0,0.542-0.125,1.001-0.417,1.376
			c-0.25,0.375-0.667,0.709-1.168,0.917l2.043,3.252v0.5h-2.293l-1.876-3.378h-0.542v1.418c0,0.208,0,0.334,0.042,0.375
			c0.042,0.042,0.083,0.125,0.208,0.167l0.542,0.334l-0.042,1.084h-3.92L43.451,40.105z M48.497,36.435
			c0.083-0.292,0.125-0.667,0.125-1.084c0-0.417-0.083-0.709-0.292-0.917c-0.167-0.167-0.5-0.25-0.917-0.25
			c-0.25,0-0.459,0-0.709,0.042v2.252c0.208,0.042,0.5,0.083,0.792,0.083C47.955,36.561,48.288,36.519,48.497,36.435z"/>
	</g>
	<g>
		<path fill="#373D72" d="M53.918,40.105l0.917-0.25v-4.879c0-0.208,0-0.375-0.042-0.417c-0.042-0.083-0.125-0.125-0.25-0.208
			l-0.625-0.375l0.042-1.126h6.88c0.042,0.876,0.083,1.751,0.083,2.585l-0.959,0.083l-0.917-1.126l-1.918-0.042v2.085l2.71-0.208
			v1.96l-2.71-0.292v2.043l2.085-0.042l0.959-1.126l0.959,0.083c-0.042,0.876-0.083,1.751-0.208,2.585h-7.005V40.105z"/>
	</g>
	<g>
		<path fill="#373D72" d="M63.717,41.106c0.042-0.834,0.125-1.626,0.208-2.335l0.959-0.208l0.625,1.084
			c0.5,0.167,0.959,0.25,1.334,0.25c0.125,0,0.417-0.042,0.876-0.125c0-0.167,0.042-0.292,0.042-0.334
			c0-0.208-0.042-0.375-0.083-0.459c-0.083-0.125-0.208-0.208-0.459-0.375c-0.208-0.125-0.625-0.334-1.251-0.584
			c-0.709-0.375-1.251-0.751-1.585-1.168c-0.334-0.417-0.5-0.876-0.5-1.459c0-0.876,0.292-1.543,0.876-2.043
			c0.584-0.5,1.418-0.751,2.418-0.751c0.5,0,1.001,0.042,1.501,0.125c0.5,0.083,0.917,0.25,1.293,0.417
			c0,0.459-0.042,1.042-0.125,1.751l-0.042,0.542l-0.917,0.125l-0.959-1.251c-0.292-0.083-0.667-0.125-1.126-0.125
			c-0.292,0-0.5,0.042-0.667,0.083c-0.042,0.167-0.083,0.292-0.083,0.375c0,0.167,0.042,0.334,0.125,0.5
			c0.083,0.125,0.25,0.292,0.5,0.417c0.25,0.167,0.584,0.334,1.042,0.542c0.667,0.334,1.168,0.625,1.543,0.834
			c0.334,0.25,0.584,0.5,0.709,0.751c0.125,0.25,0.208,0.584,0.208,0.959c0,0.834-0.334,1.501-1.001,1.96
			c-0.667,0.5-1.585,0.709-2.752,0.709C65.635,41.523,64.676,41.398,63.717,41.106z"/>
	</g>
	<g>
		<path fill="#373D72" d="M72.974,41.356l-0.083-1.251l0.917-0.25v-4.837c0-0.208,0-0.375-0.042-0.417
			c-0.042-0.083-0.125-0.125-0.25-0.208l-0.667-0.375l0.083-1.042c1.376-0.167,2.544-0.25,3.544-0.25
			c1.209,0,2.085,0.167,2.627,0.542c0.542,0.375,0.834,0.917,0.834,1.668c0,0.375-0.042,0.709-0.167,1.001s-0.292,0.542-0.542,0.792
			c0.834,0.375,1.251,1.001,1.251,1.835c0,0.751-0.208,1.376-0.625,1.835c-0.417,0.459-1.042,0.751-1.876,0.917
			c-0.292,0.083-1.042,0.125-2.252,0.125C74.808,41.439,73.891,41.398,72.974,41.356z M77.727,35.184
			c0-0.375-0.083-0.625-0.25-0.792c-0.167-0.167-0.417-0.25-0.751-0.292c-0.208,0-0.459,0-0.667,0.042v2.127
			c0.125,0,0.334,0,0.542,0c0.334,0,0.667,0,0.959,0.042C77.686,36.102,77.727,35.727,77.727,35.184z M78.103,39.73
			c0.083-0.334,0.125-0.625,0.125-0.917c0-0.417-0.125-0.709-0.334-0.917c-0.208-0.167-0.584-0.25-1.126-0.25
			c-0.125,0-0.25,0-0.417,0.042h-0.292v2.085c0.292,0.042,0.625,0.083,1.001,0.083C77.561,39.855,77.894,39.813,78.103,39.73z"/>
	</g>
	<g>
		<path fill="#373D72" d="M84.024,40.147l1.084-0.292v-1.668l-2.335-3.711l-0.584-0.709l0.042-0.876h3.711l0.125,1.209l-0.834,0.208
			l1.334,2.252l1.084-1.876c0.042-0.042,0.042-0.125,0.042-0.167c0-0.083-0.042-0.167-0.167-0.208l-0.751-0.334l0.083-1.126h3.211
			l0.083,1.209l-0.5,0.292l-2.335,3.419v1.585c0,0.208,0,0.334,0.042,0.375c0.042,0.042,0.083,0.125,0.208,0.167l0.792,0.459
			l-0.042,1.001h-4.337L84.024,40.147z"/>
	</g>
	<g>
		<path fill="#373D72" d="M94.365,40.147l1.084-0.292v-5.504l-1.084,0.083l-0.959,1.126l-0.917-0.083
			c0-0.709,0.042-1.585,0.083-2.669h7.923c0.083,1.084,0.083,1.96,0.083,2.669l-0.917,0.083l-0.959-1.126l-1.042-0.083v5.004
			c0,0.208,0,0.334,0.042,0.375c0.042,0.042,0.083,0.125,0.208,0.167l0.792,0.459l-0.042,1.001h-4.337L94.365,40.147z"/>
	</g>
	<g>
		<path fill="#373D72" d="M103.288,40.105l0.917-0.25v-4.879c0-0.208,0-0.375-0.042-0.417c-0.042-0.083-0.125-0.125-0.25-0.208
			l-0.625-0.375l0.042-1.126h6.88c0.042,0.876,0.083,1.751,0.083,2.585l-0.959,0.083l-0.917-1.126l-1.918-0.042v2.085l2.71-0.208
			v1.96l-2.71-0.292v2.043l2.085-0.042l0.959-1.126l0.959,0.083c-0.042,0.876-0.083,1.751-0.208,2.585h-7.005L103.288,40.105z"/>
	</g>
	<g>
		<path fill="#373D72" d="M113.254,40.105l0.917-0.25v-4.837c0-0.208,0-0.375-0.042-0.417c-0.042-0.083-0.125-0.125-0.25-0.208
			l-0.667-0.375l0.083-1.042c1.251-0.167,2.502-0.292,3.669-0.292c0.917,0,1.668,0.083,2.21,0.292
			c0.542,0.167,0.959,0.459,1.209,0.834c0.25,0.375,0.375,0.876,0.375,1.543c0,0.542-0.125,1.001-0.417,1.376
			c-0.25,0.375-0.667,0.709-1.168,0.917l2.043,3.252v0.5h-2.335l-1.876-3.378h-0.542v1.418c0,0.208,0,0.334,0.042,0.375
			c0.042,0.042,0.083,0.125,0.208,0.167l0.542,0.334l-0.042,1.084h-3.92L113.254,40.105z M118.258,36.435
			c0.083-0.292,0.125-0.667,0.125-1.084c0-0.417-0.083-0.709-0.292-0.917c-0.167-0.167-0.5-0.25-0.917-0.25
			c-0.25,0-0.459,0-0.709,0.042v2.252c0.208,0.042,0.5,0.083,0.792,0.083C117.716,36.561,118.049,36.519,118.258,36.435z"/>
	</g>
	<g>
		<path fill="#373D72" d="M123.637,40.105l0.917-0.25v-4.879c0-0.208,0-0.375-0.042-0.417c-0.042-0.083-0.125-0.125-0.25-0.208
			l-0.667-0.375l0.083-1.126h4.086l0.042,1.293l-0.917,0.25v4.962c0,0.208,0,0.334,0.042,0.375c0.042,0.042,0.125,0.125,0.25,0.167
			l0.667,0.375l-0.042,1.084h-4.045L123.637,40.105z"/>
	</g>
	<g>
		<path fill="#373D72" d="M130.267,40.272l0.375-0.25l2.961-7.172l2.168-0.208l2.544,6.839c0.083,0.208,0.125,0.375,0.167,0.417
			c0.042,0.083,0.083,0.167,0.208,0.292l0.208,0.292l-0.083,0.917h-3.544l-0.125-1.209l0.917-0.208l-0.417-1.293l-2.585,0.042
			l-0.292,0.792c-0.042,0.083-0.042,0.125-0.042,0.208c0,0.042,0,0.083,0.042,0.125c0.042,0.042,0.042,0.042,0.125,0.083
			l0.876,0.375l-0.125,1.126h-3.336L130.267,40.272z M134.395,34.809l-0.834,2.418l1.626,0.083L134.395,34.809z"/>
	</g>
	<g>
		<path fill="#373D72" d="M143.569,35.977l0.208,3.336c0,0.208,0.042,0.334,0.083,0.375c0.042,0.042,0.125,0.125,0.208,0.208
			l0.667,0.459l-0.042,1.084h-3.294l-0.083-1.376l0.667-0.167l0.042-5.004c0-0.167,0-0.25-0.042-0.334
			c-0.042-0.042-0.083-0.125-0.167-0.208l-0.459-0.375l0.083-1.126h2.627l3.836,4.92l-0.167-2.835c0-0.208-0.042-0.334-0.083-0.375
			c-0.042-0.042-0.125-0.125-0.208-0.208l-0.667-0.417l0.042-1.084h3.252l0.042,1.293l-0.667,0.292l-0.042,6.88l-1.459,0.5
			L143.569,35.977z"/>
	</g>
	<g>
		<path fill="#373D72" d="M60.548,52.406c-0.709-0.792-1.042-1.918-1.042-3.336c0-0.917,0.167-1.71,0.5-2.377
			c0.334-0.667,0.834-1.168,1.459-1.543c0.625-0.334,1.376-0.542,2.252-0.542c1.001,0,2.002,0.208,3.044,0.667
			c-0.083,0.751-0.208,1.585-0.375,2.544l-0.959,0.083l-0.876-1.293c-0.375-0.125-0.792-0.167-1.251-0.167
			c-0.334,0-0.667,0.042-0.959,0.083c-0.125,0.25-0.25,0.625-0.334,1.042c-0.083,0.417-0.125,0.876-0.125,1.293
			c0,0.959,0.167,1.626,0.5,2.085c0.334,0.459,0.876,0.667,1.626,0.709c0.292,0,0.667-0.042,1.126-0.125
			c0.459-0.083,0.876-0.208,1.334-0.334l0.375,1.376c-0.459,0.292-0.959,0.542-1.585,0.709c-0.625,0.167-1.209,0.292-1.793,0.292
			C62.257,53.573,61.256,53.198,60.548,52.406z"/>
	</g>
	<g>
		<path fill="#373D72" d="M70.097,52.031l0.792-0.208v-4.879c0-0.208,0-0.375-0.042-0.417c-0.042-0.083-0.125-0.125-0.25-0.208
			l-0.542-0.292l0.042-1.209h3.961l0.083,1.293l-0.959,0.25v1.835l2.877-0.083v-1.168c0-0.208,0-0.375-0.042-0.417
			c-0.042-0.083-0.125-0.125-0.25-0.208l-0.625-0.375l0.083-1.168h3.878l0.042,1.334l-0.792,0.208v4.962
			c0,0.208,0,0.334,0.042,0.375c0.042,0.042,0.083,0.125,0.208,0.167l0.5,0.292l-0.042,1.168h-3.836l-0.083-1.293l0.876-0.25v-1.793
			l-2.877-0.125v1.501c0,0.208,0,0.334,0.042,0.375c0.042,0.042,0.125,0.125,0.25,0.167l0.667,0.375l-0.042,1.084h-3.92
			L70.097,52.031z"/>
	</g>
	<g>
		<path fill="#373D72" d="M83.482,52.573c-0.584-0.667-0.876-1.668-0.876-3.086v-2.502c0-0.208,0-0.375-0.042-0.417
			c-0.042-0.083-0.125-0.125-0.25-0.208l-0.417-0.25l0.042-1.251H85.9l0.083,1.251l-1.042,0.292v2.585
			c0,0.876,0.125,1.585,0.375,2.085s0.709,0.751,1.293,0.751c0.208,0,0.417-0.042,0.584-0.083c0.208-0.042,0.334-0.125,0.5-0.25
			c0.083-0.208,0.125-0.459,0.167-0.792c0.042-0.334,0.042-0.751,0.042-1.293v-2.418c0-0.208,0-0.375-0.042-0.417
			c-0.042-0.083-0.125-0.125-0.25-0.208l-0.625-0.375l0.083-1.168h3.753l0.083,1.376l-0.667,0.167v2.877
			c0,1.376-0.334,2.418-1.042,3.169c-0.709,0.751-1.668,1.126-2.961,1.126C84.983,53.532,84.065,53.198,83.482,52.573z"/>
	</g>
	<g>
		<path fill="#373D72" d="M93.739,52.072l0.917-0.25v-4.837c0-0.208,0-0.375-0.042-0.417c-0.042-0.083-0.125-0.125-0.25-0.208
			l-0.667-0.375l0.083-1.042c1.251-0.167,2.502-0.292,3.669-0.292c0.917,0,1.668,0.083,2.21,0.292
			c0.542,0.167,0.959,0.459,1.209,0.834c0.25,0.375,0.375,0.876,0.375,1.543c0,0.542-0.125,1.001-0.417,1.376
			c-0.25,0.375-0.667,0.709-1.168,0.917l2.043,3.252v0.5H99.41l-1.876-3.378h-0.542v1.418c0,0.208,0,0.334,0.042,0.375
			c0.042,0.042,0.083,0.125,0.208,0.167l0.542,0.334l-0.042,1.084h-3.92L93.739,52.072z M98.785,48.445
			c0.083-0.292,0.125-0.667,0.125-1.084c0-0.417-0.083-0.709-0.292-0.917c-0.167-0.167-0.5-0.25-0.917-0.25
			c-0.25,0-0.459,0-0.709,0.042v2.252c0.208,0.042,0.5,0.083,0.792,0.083C98.243,48.57,98.576,48.528,98.785,48.445z"/>
	</g>
	<g>
		<path fill="#373D72" d="M105.332,52.406c-0.709-0.792-1.042-1.918-1.042-3.336c0-0.917,0.167-1.71,0.5-2.377
			c0.334-0.667,0.834-1.168,1.459-1.543c0.625-0.334,1.376-0.542,2.252-0.542c1.001,0,2.002,0.208,3.044,0.667
			c-0.083,0.751-0.208,1.585-0.375,2.544l-0.959,0.083l-0.876-1.293c-0.375-0.125-0.792-0.167-1.251-0.167
			c-0.334,0-0.667,0.042-0.959,0.083c-0.125,0.25-0.25,0.625-0.334,1.042c-0.083,0.417-0.125,0.876-0.125,1.293
			c0,0.959,0.167,1.626,0.5,2.085c0.334,0.459,0.876,0.667,1.626,0.709c0.292,0,0.667-0.042,1.126-0.125
			c0.459-0.083,0.876-0.208,1.334-0.334l0.375,1.376c-0.459,0.292-0.959,0.542-1.585,0.709c-0.625,0.167-1.209,0.292-1.793,0.292
			C106.999,53.573,106.04,53.198,105.332,52.406z"/>
	</g>
	<g>
		<path fill="#373D72" d="M114.88,52.031l0.792-0.208v-4.879c0-0.208,0-0.375-0.042-0.417c-0.042-0.083-0.125-0.125-0.25-0.208
			l-0.542-0.292l0.042-1.209h3.961l0.083,1.293l-0.959,0.25v1.835l2.877-0.083v-1.168c0-0.208,0-0.375-0.042-0.417
			c-0.042-0.083-0.125-0.125-0.25-0.208l-0.625-0.375l0.083-1.168h3.878l0.042,1.334l-0.792,0.208v4.962
			c0,0.208,0,0.334,0.042,0.375c0.042,0.042,0.083,0.125,0.208,0.167l0.5,0.292l-0.042,1.168h-3.836l-0.083-1.293l0.876-0.25v-1.793
			l-2.877-0.125v1.501c0,0.208,0,0.334,0.042,0.375c0.042,0.042,0.125,0.125,0.25,0.167l0.667,0.375l-0.042,1.084h-3.92
			L114.88,52.031z"/>
	</g>
</g>
</svg>
