<!-- Generator: Adobe Illustrator 24.0.1, SVG Export Plug-In  -->
<svg version="1.1" xmlns="http://www.w3.org/2000/svg" xmlns:xlink="http://www.w3.org/1999/xlink" x="0px" y="0px" width="11.59px"
	 height="11.59px" viewBox="0 0 11.59 11.59" style="enable-background:new 0 0 11.59 11.59;" xml:space="preserve">
<style type="text/css">
	.st0{fill:#373D72;}
</style>
<defs>
</defs>
<path class="st0" d="M3.58,11.15c-0.7-0.29-1.33-0.71-1.88-1.26S0.73,8.71,0.44,8.01S0,6.57,0,5.79s0.15-1.51,0.44-2.21
	S1.15,2.25,1.7,1.7s1.18-0.97,1.88-1.26S5.02,0,5.79,0s1.51,0.15,2.21,0.44S9.34,1.15,9.89,1.7s0.97,1.18,1.26,1.88
	s0.44,1.44,0.44,2.21s-0.15,1.51-0.44,2.21s-0.71,1.33-1.26,1.88s-1.18,0.97-1.88,1.26s-1.44,0.44-2.21,0.44S4.28,11.44,3.58,11.15z
	 M8.6,4.38C8.57,4.26,8.5,4.15,8.41,4.06S8.21,3.9,8.09,3.87C7.96,3.84,7.78,3.81,7.54,3.8s-0.5-0.03-0.77-0.04S6.18,3.75,5.79,3.74
	C5.41,3.75,5.08,3.75,4.82,3.76S4.29,3.78,4.05,3.79S3.62,3.83,3.5,3.86C3.37,3.9,3.26,3.96,3.17,4.05s-0.16,0.2-0.19,0.33
	C2.95,4.5,2.93,4.64,2.91,4.8S2.88,5.11,2.88,5.26S2.86,5.59,2.86,5.8c0,0.2,0.01,0.38,0.02,0.53S2.9,6.64,2.91,6.8
	s0.04,0.29,0.07,0.41c0.04,0.13,0.1,0.24,0.19,0.33s0.2,0.16,0.33,0.19C3.62,7.76,3.81,7.78,4.05,7.8s0.5,0.03,0.77,0.04
	s0.59,0.01,0.98,0.02c0.38,0,0.71-0.01,0.97-0.01S7.29,7.82,7.54,7.8s0.43-0.04,0.55-0.07c0.13-0.04,0.24-0.1,0.33-0.19
	s0.15-0.2,0.19-0.33C8.63,7.1,8.66,6.96,8.67,6.8S8.7,6.49,8.71,6.34S8.72,6.01,8.72,5.8c0-0.2-0.01-0.38-0.01-0.53
	S8.69,4.96,8.67,4.8S8.63,4.5,8.6,4.38z M6.73,5.8L5.21,6.67V4.92L6.73,5.8z"/>
</svg>
